<svg width="385" height="520" viewBox="0 0 385 520" fill="none" xmlns="http://www.w3.org/2000/svg">
<path d="M119.485 491.812L119.865 493.179L118.928 492.799L117.599 493.27L118.26 492.583L117.848 491.681L119.485 491.812ZM136.122 374.411L139.926 374.634L141.786 374.189L142.251 373.371L142.63 373.391L143.671 372.05L143.089 370.834L144.49 369.454L146.14 370.167L147.129 369.303L147.875 370.193L148.765 370.069L149.335 369.199L148.517 368.322L149.407 367.184L149.315 365.817L147.96 364.575L147.757 366.308L146.755 366.282L146.166 365.346L147.39 364.699L144.143 364.078L145.276 363.724L144.961 362.161L146.467 362.115L147.312 361.474L148.15 362.063L149.538 360.788L150.9 362.089L151.81 360.958L152.766 360.84L153.192 362.371L154.573 362.253L155.261 363.685L155.045 361.73L155.496 361.213L156.145 361.488L158.921 360.65L158.757 361.821L158.672 362.855L158.803 364.11L157.991 364.47L158.626 365.019L157.919 366.256L159.098 367.361L159.445 367.243L160.047 366.962L160.119 365.477L161.474 364.777L162.181 367.309H162.568L163.262 365.889L165.174 364.548L164.984 365.176L166.575 366.367L166.444 369.611L167.478 370.219L168.192 372.279L166.942 373.326L167.19 374.431L165.652 375.85L167.642 376.491L167.871 375.079L169.292 373.797L169.986 374.137L169.272 375.412L170.183 375.379L170.209 375.948H170.379L169.914 379.807L170.484 380.376L174.288 380.317L174.753 379.14L176.043 378.27L175.152 377.479L176.226 376.387L177.326 377.152L177.064 378.604L178.635 378.767L177.732 379.945L178.635 381.704L177.928 381.769L177.483 382.724L179.133 383.365L180.305 386.04L178.027 387.113L178.701 388.938L178.007 388.846L177.85 389.487L178.144 390.305L179.487 390.697L179.068 392.129L180.109 393.424L179.159 394.543L178.74 393.712L178.144 394.804L179.127 395.177L178.537 395.504L179.388 397.806L178.825 397.793L178.747 398.545L180.043 398.971L180.58 399.906L181.052 399.618L181.863 401.377L182.688 400.841L183.9 401.763L184.207 402.993L182.937 403.673L182.296 404.805L183.075 405.524L184.011 405.4L183.35 406.407L184.496 407.231L184.011 408.663L185.812 408.513L186.977 409.553L188.09 409.448L188.418 410.946L189.459 411.182V411.966L190.041 411.855L190.487 412.575L190.801 412.235L190.447 413.333L190.997 413.203L191.515 414.569L192.398 415.106L191.855 415.413L192.647 416.479L191.226 417.192L192.51 418.258L192.503 420.155L191.429 421.129L192.32 421.927L192.34 423.15L191.161 423.935L191.665 425.374L190.814 425.688L191.456 426.61L190.965 427.212L192.235 428.376L192.948 427.932L192.575 428.363L193.721 429.658L193.243 429.992L194.225 430.96L192.975 432.026L190.722 432.601L191.371 431.875L191.213 430.783L191.862 430.6L190.611 430.312L189.779 432.274L188.634 433.098L187.56 430.842L186.257 431.084L184.79 429.985L184.974 431.051L184.273 431.411L184.207 432.359L187.023 435.904L186.001 436.231L185.812 437.108L186.637 438.684L186.146 440.031L186.532 441.28L183.363 442L183.042 442.314L183.644 442.366L183.625 443.236L181.222 444.25L180.685 445.355L179.087 445.519L178 444.126L176.2 445.564L175.119 445.283L174.733 446.631L175.309 447.154L172.343 450.339L172.533 451.248L173.522 451.281L173.483 452.281L176.285 456.376L176.246 459.371L178.092 465.755L179.251 466.952L179.605 469.326V470.281L179.428 470.621L179.48 471.033L178.393 475.474L177.247 475.951V477.096L178.21 478.044L178.158 479.457L177.588 481.059L177.994 481.367L176.815 482.191L177.018 482.851L177.948 482.374L177.365 483.708L178.007 483.041L177.83 483.682L179.303 485.703L178.563 485.552L178.321 486.278L177.359 486.043L176.206 487.089L178.478 488.77L178.406 491.295L179.388 492.394L179.015 493.885L178.23 494.598L177.359 494.153L176.756 496.246L176.246 494.009L174.851 494.062L174.687 493.349L173.535 493.715L172.075 495.5L167.393 493.872L166.516 494.493L166.483 494.768L165.855 495.664L164.827 495.801L164.951 496.56L163.229 497.953L161.245 498.594L159.268 497.986L158.462 498.522L157.336 499.85L156.845 501.903L151.234 500.877L139.599 495.16L135.572 493.767L132.632 493.388L127.46 495.71L125.633 493.65L125.659 492.767L126.589 492.891L126.523 492.289L124.304 491.681L123.891 490.17L122.287 491.367L122.261 492.08L123.924 492.884L123.204 494.094L120.473 492.924L120.86 491.53L119.878 490.791L120.264 489.778L121.056 489.549L120.31 488.528L119.092 489.065L118.673 487.299L117.435 486.35L117.023 487.089L117.35 488.012L116.381 488.901L115.903 486.429L114.175 486.377L113.788 485.86L113.566 486.743L114.168 487.502L113.16 487.312L111.831 488.175L110.318 488.228L108.871 490.072L109.074 491.158L107.077 492.636L107.693 493.558L107.057 494.173L108.701 495.383L109.637 495.219L109.971 496.325L109.873 495.671L110.731 496.174L112.093 495.984L112.079 495.023L112.669 495.206L112.832 494.591L114.299 494.879L115.353 494.251L116.322 495.788L115.805 496.403L115.523 495.507L114.987 496.076L115.353 497.901L114.135 499.039L113.526 498.659L113.86 497.685L111.785 496.684L111.294 497.652L109.159 498.633L109.611 499.706L110.501 499.425L110.416 500.118L108.105 500.805L106.697 500.125L106.082 500.811L103.6 500.36L102.147 498.117L100.818 497.77L99.5474 498.417L98.6569 497.43L96.9873 499.045L94.676 499.824L93.8445 501.321L92.9409 500.903L90.9308 501.76L88.4034 501.315L87.7225 502.172L86.4588 501.779L85.5945 499.497L82.6874 499.457L81.6005 501.328L77.2857 502.871L76.2184 502.629L74.85 501.092L77.0041 500.811L76.4148 499.516L77.2726 498.673L76.4934 499.228L75.3934 499L74.2542 500.098L73.0167 499.346L72.0214 496.71L70.1881 494.879L69.7363 492.708L71.2554 490.464L70.4958 487.645L71.8512 483.806L71.622 481.465L72.6696 480.34L72.7286 478.266L74.3655 475.696L73.7696 473.878L72.1655 471.824L72.4732 466.448L76.2184 460.143L77.3315 455.133L79.4857 453.544L78.9749 449.338L80.291 445.63L80.4743 443.334L82.0458 441.797L81.7969 437.441L83.4273 433.857L85.516 432.529L88.6326 428.756L88.96 426.538L90.7868 426.336L91.3695 424.727L92.9082 424.537L93.8641 423.687L96.3522 417.244L98.3688 413.909L99.829 413.346L101.99 411.495L102.54 410.312L103.155 407.781L105.106 404.805L105.486 400.468L107.031 397.27L106.206 397.316L106.429 396.296L110.508 392.456L108.917 390.56L110.901 387.898L110.986 386.505L109.886 387.46L109.428 386.962L110.79 385.687L111.3 383.535L108.603 382.561L109.467 381.246L107.47 375.942L107.765 374.006L108.819 373.633L109.971 374.026L113.546 378.453L115.013 377.368L115.491 377.577L115.838 376.746L114.973 372.332L119.026 371.462L118.83 372.423L118.568 371.534L118.09 371.88L119.236 373.123L118.529 374.51L119.563 376.236L119.432 377.073L120.722 378.179L120.716 378.009L123.42 378.604L124.487 377.786L124.264 378.983L124.873 379.886L125.489 379.297L127.663 379.179L127.722 380.337L126.746 381.475L126.137 381.521L125.738 380.415L124.618 381.397L125.122 383.601L123.61 385.098L124.166 385.968L124.86 385.275L125.62 386.066L127.453 384.399L127.794 382.953L128.245 383.359L129.791 382.214L129.005 381.292L129.385 380.35L129.954 380.474L129.856 379.12L131.27 378.715L132.933 379.533L133.824 378.833L133.994 378.519L134.597 377.446L136.044 377.708L136.332 378.754L137.144 378.29L134.911 375.209L134.97 374.529L135.369 375.438L136.076 375.504L136.122 374.411Z" fill="#CCCCCC" stroke="white" stroke-width="0.5"/>
<path d="M175.296 313.631L176.58 312.951L176.508 312.349L178.079 310.531L179.513 311.905L179.853 311.283L180.875 311.905L181.039 311.316L182.06 311.159L182.256 312.062L183.225 312.677L183.245 313.978L184.24 313.847L186.172 315.116L187.344 315.096L187.632 316.96L188.922 318.72L189.492 318.641L189.046 319.132L190.362 319.55L189.603 320.649L190.048 321.624L192.431 321.114L193.309 322.951H193.616L194.081 322.834L194.068 324.142L194.919 323.848L195.037 324.475L195.771 323.462L196.275 323.573L196.988 325.273L198.58 325.548L198.259 327.235L198.763 328.21L198.226 329.597L198.913 329.583L198.527 330.126L199.044 331.042L198.481 331.271L198.907 332.272L199.824 332.736L201.055 332.285L202.554 333.455H202.77L203.471 333.933L204.014 333.495L204.086 330.898L205.664 331.539L206.993 330.872L207.884 331.781L208.885 331.349L208.84 329.341L207.419 329.086H207.19L207.078 328.288L205.729 328.184L204.525 326.725L203.438 326.385L203.968 324.848L203.333 324.75L203.451 323.547L205.055 323.959L206.371 322.225L207.17 322.572L208.29 321.722L209.547 322.016L210.129 321.46L210.758 322.507L211.465 322.082L211.779 321.957L212.611 321.728L214.654 324.632L215.191 324.528L215.02 323.488L216.828 323.834L217.129 324.881L218.844 324.371L218.995 323.488L220.095 323.403L220.206 324.547L221.038 324.286L221.869 325.757L220.848 327.752L221.378 328.674L222.884 328.995L222.616 329.701L223.218 329.492L223.421 328.19L225.772 329.786L225.988 328.465H226.158L225.778 328.151L226.518 327.334L226.184 325.326L226.806 325.378L226.191 324.377L227.153 323.808L226.047 321.205L226.42 319.217L225.641 318.007L225.621 316.064L227.258 315.652L227.422 316.274L227.886 315.371L228.731 315.28L228.698 314.122L229.766 313.978L229.72 313.324L233.269 313.945L233.681 314.724L233.452 315.24L232.817 315.083L232.83 318.321L234.094 319.145L233.773 319.923L234.683 319.132L235.442 319.25L235.285 321.179L237.02 321.493L237.079 322.866L238.664 322.18L239.135 321.225L240.065 321.035L241.361 322.042L244.838 321.068L245.087 321.486L246.128 320.636L247.149 320.845L246.691 320.276L247.529 320.558L247.817 319.956L249.716 321.061V321.918L253.828 319.707L255.078 320.721L254.908 321.532L255.537 321.244L256.316 321.99L256.074 324.449L256.905 324.214L258.948 326.078L258.994 325.672L260.847 325.568L261.227 326.575L262.248 327.327L261.986 327.929L262.864 329.328L261.102 330.192L260.84 331.035L262.32 332.108L263.289 331.925L263.689 333.54L264.297 333.364L264.651 334.293L265.24 334.325L264.906 334.613L266.019 336.294L265.122 338.001L265.345 340.14L266.674 341.108L267.368 340.911L268.494 342.272L267.912 343.443L270.269 343.796L270.708 345.11L271.127 344.659L272.377 346.098L273.752 346.196L273.811 346.896L275.016 347.059L275.062 348.211L276.24 347.53L277.471 348.433L277.857 349.028L276.672 350.532L276.967 351.35L279.868 352.338L279.992 353.626L277.792 356.478L277.812 357.655L276.843 357.812L276.417 359.421L276.744 360.984L273.791 362.639L273.863 363.816L275.461 366.321L277.36 367.374L278.787 367.42L279.049 371.802L280.405 371.704L281.629 376.936L282.951 377.662L283.574 377.289L283.894 377.858L283.456 380.834L284.425 382.358L284.444 383.561L286.579 384.189L288.622 386.099L289.578 389.153L292.413 389.304L293.834 390.272L293.814 388.944L296.407 389.343L299.026 391.796L299.949 391.894L300.152 394.418L301.003 394.471L301.311 395.308L302.149 395.557L302.431 396.76L303.517 397.381L303.406 398.389L305.927 400.279L306.208 402.535L308.585 404.013L310.825 403.712L315.172 407.833L315.585 412.078L319.421 414.955L319.958 414.877L319.945 413.209L320.947 412.882L322.983 413.124L324.162 415.191L325.013 414.458L324.745 415.125L326.774 418.821L328.634 418.984L329.544 418.448L330.631 421.659L331.836 422.012L332.746 424.02L332.346 425.106L333.793 425.688L331.901 429.24L332.628 430.109L333.689 430.299L332.648 430.75L333.093 435.597L332.13 436.741L332.15 438.089L330.827 439.351L330.362 438.723L329.852 439.403L329.963 440.738L329.276 441.849L326.532 440.62L326.048 439.737L324.057 438.586L322.689 438.991L319.985 437.127L319.88 438.03L318.616 439.24L317.555 438.736L317.064 439.109L317.843 442.02L316.534 445.473L317.064 447.115L315.886 450.627L312.697 453.668L309.404 455.741L306.346 455.597L299.635 457.926L296.989 460.921L293.342 461.405L292.4 463.557L290.39 464.878L289.813 466.33L288.661 466.127L288.301 467.2L288.838 469.463L292.557 473.028L293.519 476.291L295.163 476.703L295.51 477.75L296.178 477.514L298.908 483.329L295.752 488.103L296.374 488.6L294.92 491.112L295.765 491.897L297.579 492.086L299.471 491.112L302.123 493.368L301.972 494.421L302.876 496.58L301.37 498.614L301.736 499.497L300.551 500.19L301.193 501.066L300.1 502.721L300.754 503.532L300.702 505.39L298.882 507.123L298.509 506.187L297.664 505.795L297.422 506.462L294.96 505.062L293.853 503.539L292.642 503.015L292.4 502.015L290.291 501.452L289.617 499.869L290.337 498.391L291.45 497.96L288.72 495.572L289.709 494.199L288.694 494.774L287.554 493.761L285.426 493.623L284.117 494.395L282.277 494.245L281.066 496.717L279.449 496.514L277.792 497.194L275.304 494.094L275.343 492.884L272.325 493.558L271.009 492.773L267.637 493.872L267.054 492.943L268.016 490.543L267.499 489.935L265.928 491.838L263.793 492.57L265.332 496.396L265.45 498.352L264.278 498.686L264.402 497.868L262.772 498.398L259.59 497.567L257.874 498.117L257.377 497.175L256.015 497.894L253.415 497.868L251.006 498.601L250.534 499.837L247.948 499.261L242.965 499.706L241.859 499.058L241.761 499.922L240.497 500.033L239.829 503.303L239.181 503.944L236.411 504.552L233.347 504.049L231.291 506.567L232.273 506.848L232.856 508.274L229.34 507.993L227.395 509.353L227.336 510.556L226.453 511.197L224.593 511.322L225.804 509.301L223.82 508.947L220.566 510.275L220.062 511.243L214.261 511.132L213.966 510.112L214.549 509.17L212.271 506.665L212.532 506.07L209.769 505.978L209.92 504.775L211.786 504.081L210.542 502.61L205.985 504.016L205.199 502.78L202.541 502.145L202.357 501.249L198.527 500.661L197.434 502.813L195.404 502.734L192.569 501.472L193.63 499.647L191.849 499.699L191.521 500.144L192.451 501.557L191.561 504.683L192.065 505.821L193.125 506.312L193.413 508.987L191.777 510.341L191.757 512.152L190.107 512.479L187.344 516.822L183.291 518.948L181.949 518.568L180.901 519L181.039 517.398L182.505 516.397L181.877 515.455L183.448 512.107L183.036 511.753L182.44 512.263L181.189 511.452L180.417 512.957L178.472 512.571L177.653 513.768L176.481 510.301L177.922 509.275L177.437 507.738L175.82 506.966L175.342 505.638L173.555 505.919L172.985 505.01L173.332 504.69L172.068 503.545L172.291 502.028L171.977 502.734L170.209 503.048L168.552 501.91L168.238 503.133L165.783 501.91L166.28 500.007L165.193 499.006L163.55 499.719L162.483 502.806L156.806 501.923L157.297 499.869L158.423 498.542L159.229 498.005L161.206 498.62L163.196 497.979L164.918 496.586L164.794 495.827L165.822 495.69L166.444 494.794L166.477 494.519L167.354 493.891L172.036 495.52L173.496 493.741L174.648 493.375L174.812 494.094L176.2 494.042L176.717 496.272L177.32 494.186L178.197 494.631L178.976 493.918L179.356 492.426L178.367 491.321L178.439 488.803L176.167 487.122L177.32 486.076L178.276 486.311L178.518 485.585L179.264 485.736L177.791 483.708L177.968 483.074L177.326 483.741L177.909 482.407L176.979 482.884L176.776 482.223L177.955 481.399L177.542 481.092L178.112 479.49L178.164 478.077L177.202 477.128V475.984L178.348 475.506L179.434 471.065L179.382 470.653L179.565 470.313V469.352L179.212 466.984L178.053 465.787L176.213 459.404L176.252 456.408L173.45 452.314L173.489 451.313L172.494 451.281L172.311 450.372L175.277 447.186L174.701 446.657L175.087 445.309L176.161 445.597L177.961 444.152L179.048 445.545L180.646 445.381L181.189 444.276L183.592 443.262L183.605 442.392L183.003 442.34L183.324 442.026L186.493 441.307L186.113 440.057L186.597 438.704L185.772 437.127L185.962 436.257L186.984 435.93L184.168 432.379L184.227 431.431L184.928 431.071L184.745 430.005L186.218 431.104L187.521 430.862L188.594 433.118L189.74 432.294L190.572 430.325L191.822 430.62L191.181 430.803L191.331 431.888L190.683 432.614L192.936 432.039L194.186 430.979L193.204 430.005L193.682 429.671L192.536 428.383L192.909 427.951L192.196 428.402L190.925 427.232L191.416 426.63L190.775 425.708L191.626 425.394L191.122 423.955L192.3 423.17L192.287 421.947L191.39 421.149L192.471 420.175L192.477 418.284L191.194 417.212L192.621 416.499L191.822 415.426L192.372 415.119L191.489 414.583L190.971 413.216L190.421 413.346L190.775 412.248L190.467 412.588L190.015 411.862L189.439 411.973V411.188L188.398 410.953L188.071 409.455L186.958 409.559L185.792 408.52L183.992 408.67L184.476 407.238L183.33 406.414L183.998 405.4L183.062 405.531L182.283 404.811L182.924 403.68L184.195 402.999L183.893 401.776L182.675 400.854L181.857 401.391L181.045 399.625L180.574 399.912L180.037 398.977L178.734 398.552L178.812 397.8L179.382 397.813L178.531 395.511L179.12 395.184L178.138 394.811L178.734 393.719L179.153 394.549L180.096 393.431L179.055 392.136L179.474 390.704L178.138 390.311L177.837 389.494L178.001 388.853L178.688 388.944L178.014 387.119L180.292 386.047L179.12 383.365L177.47 382.724L177.915 381.776L178.629 381.71L177.726 379.951L178.629 378.774L177.058 378.604L177.32 377.152L176.213 376.393L175.146 377.479L176.036 378.27L174.746 379.147L174.281 380.324L170.484 380.376L169.908 379.807L170.373 375.955H170.202L170.17 375.386L169.26 375.419L169.973 374.143L169.286 373.803L167.865 375.085L167.636 376.491L165.645 375.85L167.177 374.438L166.935 373.332L168.186 372.286L167.472 370.226L166.438 369.617L166.568 366.373L164.977 365.183L165.167 364.555L163.255 365.896L162.561 367.315H162.182L161.468 364.784L160.113 365.484L160.041 366.968L159.445 367.25L159.098 367.367L157.919 366.262L158.626 365.026L157.991 364.483L158.803 364.123L158.672 362.868L158.764 361.828L158.927 360.657L156.151 361.494L155.503 361.219L155.045 361.736L155.261 363.692L154.58 362.253L153.198 362.37L152.773 360.84L151.817 360.958L150.907 362.089L149.545 360.788L148.157 362.063L147.319 361.474L146.467 362.122L144.961 362.168L145.282 363.731L144.15 364.084L147.397 364.705L146.173 365.353L146.762 366.288L147.764 366.314L147.967 364.581L149.316 365.817L149.407 367.191L148.517 368.329L149.335 369.199L148.772 370.075L147.875 370.193L147.129 369.303L146.14 370.16L144.49 369.447L143.082 370.827L143.672 372.05L142.631 373.391L142.251 373.371L141.786 374.189L139.926 374.634L136.122 374.411L135.31 372.927L134.623 372.809L134.616 371.71L136.083 370.311L135.579 366.968L137.176 366.484L136.934 365.641L137.988 363.907L136.299 362.756L137.432 361.252L137.144 360.363L135.585 360.663L135.048 358.983L135.402 357.105L134.525 358.06L134.034 357.576L134.381 357.132L133.326 357.269L133.195 355.817L133.916 355.778L132.77 352.985L132.573 348.629L132.888 347.713L133.876 347.622L133.248 346.916L133.019 344.594L130.838 344.097L131.755 342.736L131.722 341.271L132.613 340.002L136.797 339.021L138.257 339.636L138.145 341.278L139.789 339.002L139.573 338.276L141.046 337.556L142.434 338.243L144.752 338.583L145.525 338.106L146.048 338.688L147.253 338.701L148.589 341.356L149.911 341.742L153.179 341.081L152.989 337.792L153.526 337.517L153.847 336.457L153.788 336.372L152.589 335.771L152.675 334.711L153.31 334.312L152.458 332.54L152.675 331.552L154.416 332.651L155.844 332.141L156.119 332.847L159.523 332.082L159.569 331.591L158.404 330.97L159.098 329.629L161.075 328.988L162.954 327.111L162.967 325.051L162.398 324.116L163.596 319.583L164.395 320.002L165.279 319.583L165.547 320.361L167.629 321.428L168.146 320.564L168.611 321.231L169.436 320.976L171.826 319.649L173.489 317.183L174.314 316.862L175.296 313.631Z" fill="#CCCCCC" stroke="white" stroke-width="0.5"/>
<path d="M318.622 169.546L318.668 169.572L319.133 169.35L319.087 170.259L320.58 171.181L319.519 173.719L319.971 174.779L321.719 175.092L323.068 176.25L323.14 177.754L325.255 178.252L324.928 178.984L326.119 179.063L324.201 183.033L324.712 183.412L325.74 182.542L328.175 184.184L327.946 183.301L330.369 184.982L329.557 185.727L328.948 185.583L329.688 185.936L329.707 186.093L329.504 186.12L329.269 186.538L329.557 187.284L329.144 187.964L327.357 188.88L327.913 189.651L326.794 190.24L325.753 192.111L325.288 191.627L325.589 189.501L324.974 189.115L324.037 189.638L323.402 188.389L321.124 188.657L321.078 187.931L318.74 188.213L318.184 186.577L316.246 187.251L316.233 189.573L314.936 189.449L314.838 188.736L314.17 188.716L313.044 187.218L312.081 187.715L311.433 187.506L311.125 186.806L310.163 187.617L309.115 187.604L308.978 186.545L308.133 186.46L305.711 187.487L305.337 188.147L305.868 188.232L304.27 188.553L304.048 188.566L304.46 188.029L303.026 187.212L302.823 187.101L302.522 187.094L302.784 186.381L303.89 185.309L303.347 184.537L303.694 182.562L305.743 180.436L304.742 179.73L303.661 179.919L304.074 177.663L304.853 177.48L305.18 175.969L304.146 175.171L305.612 174.327L307.812 175.079L307.184 173.778L307.983 172.326L309.777 172.365L309.665 171.482L310.569 171.358L310.582 170.063L311.695 170.298L311.682 172.254L313.777 172.614L315.224 170.939L316.429 171.763L317.313 170.782L318.406 170.724L317.562 169.926L317.928 169.468L318.524 169.121L318.773 169.193L318.622 169.546Z" fill="#CCCCCC" stroke="white" stroke-width="0.5"/>
<path d="M226.413 138.25L231.664 139.029L231.848 137.067L232.843 136.962L233.655 137.38L234.591 137.014L234.945 137.949L236.274 138.381L237.478 138.054L238.487 137.171L238.238 136.269L238.932 135.261L238.271 132.187L239.77 131.88L241.42 130.068L243.116 129.735L245.65 130.592L245.774 131.592L247.647 130.925L249.402 131.102L249.919 130.304L248.498 129.126L251.156 129.44L252.499 127.478L254.862 127.93L255.897 126.007L256.761 126.432L257.946 125.811L257.71 123.469L259.498 122.305L258.948 120.807L260.369 121.108L260.467 122.56L261.698 122.743L263.354 121.572L264.107 123.083L264.795 122.841L264.874 122.135L266.648 121.742L267.813 124.182L269.981 123.888L273.412 125.83L273.438 126.942L274.878 127.616L275.592 129.388L278.938 128.381L282.284 129.787L284.628 129.1L285.243 129.434L284.811 130.513L285.564 130.997L288.563 131.193L287.816 132.835L289.119 133.698L292.347 132.724L293.63 134.215L294.698 133.227L295.765 133.123L295.405 133.646L296.21 133.744L296.105 133.201L297.284 132.783L297.945 133.384L296.394 134.581L297.068 134.333L297.749 135.471L298.986 135.15L300.401 133.162L301.998 132.822L302.365 131.9L303.17 131.782L303.124 130.376L304.172 130.389L305.023 129.375L306.424 129.421L307.256 131.311L308.402 131.749L309.011 128.97L311.296 127.289L312.9 127.812L313.83 127.498L314.897 129.944L315.709 129.519L315.637 129.401L317.071 126.962L316.992 126.026L317.732 126L318.059 126.667L318.976 126.432L319.722 124.117L320.541 124.535L320.279 122.22L320.62 121.278L321.392 121.376L321.988 120.487L321.733 119.028L323.232 117.988L324.882 118.217L325.177 116.02L328.542 113.24L329.609 112.939L331.115 113.776L332.661 112.959L333.08 112.121L331.069 110.918L331.836 107.785L333.08 110.643L335.352 111.579L335.266 113.717L336.916 115.143L336.321 116.719L336.982 117.367L340.498 116.477L342.39 116.817L342.626 117.969L344.079 118.152L345.559 116.039L348.008 117.347L349.187 117.243L349.789 116.484L350.496 116.929L350.699 119.728L349.92 121.762L345.919 126.033L344.577 128.538L347.137 128.211L349.331 129.081L351.406 128.721L351.472 127.544L353.082 126.89L353.744 125.143L355.014 125.228L357.679 123.79L358.059 127.439L358.831 127.616L359.145 128.518L357.345 132.174L356.199 132.926L355.826 135.582L356.638 136.982L355.669 141.311L354.857 143.123L351.315 146.465L346.515 149.415L347.196 154.699L345.618 157.891L346.417 158.84L349.599 159.382L352.12 162.254L355.158 163.908L359.859 170.024L365.405 173.634L367.114 176.139L365.686 178.775L366.917 181.705L364.678 185.034L363.395 185.616L362.773 188.226L363.905 192.732L364.822 194.099L364.475 195.342L365.202 196.46L369.189 197.65L370.263 199.011L369.949 200.875L369.078 201.712L369.877 203.445L368.842 205.316L368.927 207.16L372.142 210.594L371.573 211.359L371.684 212.87L370.289 214.852L370.591 215.519L369.91 216.644L370.551 218.913L369.477 221.686L365.948 224.8L365.136 226.703L365.811 228.207L367.448 228.835L368.397 233.518L371.271 236.042L372.09 237.926L372.404 241.464L370.957 243.145L369.569 242.092L369.851 243.387L368.842 245.075L366.164 245.271L365.372 243.826L364.181 243.25L363.211 243.76L362.943 244.663L359.453 244.78L359.165 245.742L356.703 245.814L354.778 247.37L354.405 248.384L354.045 247.841L354.019 247.527L351.766 246.448L350.758 246.756L349.416 245.971L346.24 245.709L345.9 246.455L346.358 247.043L344.904 247.207L344.453 248.744L343.608 249.097L344.178 250.137L341.906 250.209L343.097 252.256L342.056 252.91L342.403 254.022L341.179 254.931L341.644 255.5L340.675 255.598L340.439 257.037L339.274 256.815L339.306 255.683L338.782 255.474L336.576 256.586L333.597 256.272L332.962 257.279L331.449 257.214L331.037 257.737L330.755 257.214L329.681 257.783L326.584 256.802L326.218 257.279L323.625 257.318L323.284 256.331L322.492 256.239L321.438 257.279L321.176 256.468L320.593 256.435L320.449 255.114L318.073 254.441L318.505 253.996L317.372 253.074L316.311 253.774L316.599 252.976L315.427 251.7L314.445 252.845L314.55 253.571L312.265 252.806L312.487 253.525L310.72 254.506L310.693 255.356L309.652 255.239L309.914 256.272L307.727 255.52L306.837 252.845L306.64 253.675L306.084 253.394L307.243 251.883L306.379 250.268L306.477 249.149L307.177 249.097L307.426 246.985L306.503 244.767L304.768 243.983L305.501 242.321L303.871 240.529L302.404 241.294L300.99 238.796L304.977 236.219L305.501 235.683L305.167 234.453L306.542 234.074L305.167 232.157L305.658 231.745L304.958 230.601L305.586 228.07L303.877 224.701L305.148 224.401L304.585 223.125L303.799 222.981L302.188 223.91L300.525 223.701L299.975 223.086L300.433 223.092L300.695 221.758L297.67 221.791L297.749 220.352L296.957 220.215L297.042 219.371L295.431 219.096L294.161 219.901L294.043 219.443L292.622 219.378L292.314 217.167L289.604 217.514L288.589 215.898L285.073 214.191L284.438 214.145L283.96 215.381L282.703 215.558L282.617 216.212L279.592 215.977L279.429 214.832L277.537 214.08L277.072 212.752L276.319 212.68L275.854 213.851L275.212 213.903L273.294 212.098L272.037 211.791L270.125 208.782L268.553 207.965L267.984 206.068L266.176 203.582L266.537 202.536L267.355 202.549L267.388 200.698L269.476 199.58L267.912 199.122L268.422 198.775L267.309 197.951L268.606 193.582L269.889 191.542L268.854 190.227L269.771 189.39L269.273 188.834L269.588 187.428L268.475 186.885L269.424 186.27L269.097 185.806L270.871 182.575L269.941 181.849L270.845 181.267L268.357 181.96L267.892 181.345L268.324 180.998L267.178 179.553L266.163 180.953L264.795 181.293L264.029 180.063L264.985 178.781L264.206 178.317L263.06 178.938L264.559 175.897L264.134 172.417L265.496 172.856L266.628 172.143L266.707 171.489L266.962 168.572L266.242 168.022L266.458 167.009L265.712 166.492L265.849 165.897L265.351 166.027L266.321 164.235L265.777 163.241L266.255 161.24L267.479 161.122L267.813 160.076L266.805 156.191L265.43 155.746L265.162 155.053L262.281 156.799L262.202 154.006L261.704 155.203L257.979 154.268L256.178 155.268L252.44 153.96L251.51 152.947L250.043 152.927L249.539 152.116L250.639 150.769L250.462 149.971L248.04 149.402L246.206 147.433L244.222 148.238L243.502 146.112L241.387 145.87L241.964 144.026L240.314 144.183L238.153 142.966L236.542 143.3L234.224 141.213L229.451 142.809L226.708 139.846L226.413 138.25ZM317.928 169.468L317.562 169.926L318.406 170.723L317.313 170.782L316.429 171.763L315.224 170.939L313.777 172.614L311.682 172.26L311.695 170.298L310.582 170.063L310.569 171.358L309.665 171.482L309.777 172.365L307.983 172.326L307.184 173.778L307.812 175.079L305.612 174.327L304.146 175.177L305.18 175.969L304.853 177.48L304.067 177.663L303.655 179.919L304.742 179.73L305.737 180.436L303.688 182.568L303.34 184.543L303.884 185.315L302.784 186.388L302.522 187.101L302.823 187.107L303.026 187.218L304.46 188.036L304.048 188.572L304.27 188.559L305.868 188.239L305.337 188.147L305.711 187.487L308.133 186.466L308.978 186.551L309.115 187.617L310.157 187.63L311.119 186.819L311.427 187.513L312.075 187.722L313.037 187.225L314.164 188.723L314.825 188.742L314.923 189.449L316.22 189.579L316.233 187.258L318.171 186.584L318.727 188.219L321.065 187.938L321.104 188.657L323.383 188.389L324.024 189.638L324.961 189.115L325.569 189.501L325.268 191.627L325.733 192.111L326.774 190.247L327.887 189.651L327.331 188.88L329.118 187.964L329.531 187.284L329.249 186.532L329.485 186.113L329.688 186.087L329.668 185.93L328.928 185.577L329.537 185.721L330.349 184.975L327.927 183.294L328.156 184.177L325.72 182.542L324.692 183.412L324.181 183.039L326.1 179.062L324.908 178.984L325.236 178.251L323.121 177.754L323.049 176.25L321.7 175.092L319.945 174.779L319.493 173.719L320.554 171.181L319.061 170.266L319.1 169.357L318.636 169.579L318.747 169.2L318.498 169.134L318.158 169.599L317.928 169.468Z" fill="#CCCCCC" stroke="white" stroke-width="0.5"/>
<path d="M110.541 131.01L111.012 130.945L113.179 132.279L114.201 131.703L115.059 132.05L114.253 133.476L115.55 133.502L116.08 134.817L118.339 134.594L119.269 133.901L119.511 134.477L120.467 134.248L121.069 135.386L124.69 135.36L125.116 135.837L125.24 136.445L126.032 137.413L126.104 137.629L128.2 137.557L129.489 136.19L131.1 137.976L129.633 138.689L130.262 139.833L131.369 140.003L130.229 140.873L130.341 142.6L131.008 143.542L129.182 145.066L129.083 145.778L127.388 145.772L126.209 143.96L126.17 145.242L124.369 145.34L122.51 144.019L122.281 143.051L121.593 144.078L120.035 144.012L119.498 142.959L119.714 141.481L117.854 140.461L118.005 139.611L116.368 137.145L115.903 135.163L111.372 133.044L111.196 132.822L110.181 131.167L110.508 130.925L110.541 131.01ZM111.811 104.567L114.823 105.457L115.772 104.646L117.023 104.842L116.912 104.28H117.632L115.857 106.739L116.309 107.981L117.01 108.112L116.741 109.983L117.232 110.957L116.486 112.285L115.412 113.096L114.554 112.488L114.044 112.939L112.931 110.558L113.278 110.329L113.841 110.408L113.893 108.819L114.207 109.126L113.428 108.302L113.494 106.569L113.049 106.51L112.924 107.412L111.811 104.567Z" fill="#CCCCCC" stroke="white" stroke-width="0.5"/>
<path d="M162.267 107.975L163.976 102.723L164.034 103.756L165.049 104.083L165.174 105.365L166.693 105.895L168.958 103.344L169.626 101.284L172.644 101.709L173.483 99.2696L176.259 99.4919L176.789 97.641L176.364 97.1963L176.914 96.516L178.603 97.0066L180.587 95.2341L181.647 95.777L181.588 96.2675L181.163 97.2878L180.115 97.6475L180.22 98.6024L179.539 99.4854L181.261 100.486L181.85 101.578L181.523 102.239L182.787 102.572L181.503 104.077L181.831 105.941L179.827 106.824L180.292 110.375L181.359 111.108L182.348 110.499L183.592 113.188L185.746 115.307L187.154 115.529L186.414 116.608L184.548 117.543L183.513 119.211H180.829L175.715 114.515L175.532 115.666L174.38 115.693L174.812 116.517L172.913 117.818L171.112 117.001L170.012 117.982L169.646 117.838L170.235 116.471L169.515 115.032L167.747 116.248L167.767 116.863L165.488 114.541L165.357 112.507L164.473 112.625L164.578 111.997L163.642 111.337L164.277 110.552L163.74 109.106L164.12 108.21L162.267 107.975Z" fill="#CCCCCC" stroke="white" stroke-width="0.5"/>
<path d="M150.638 238.829L152.511 238.142L152.328 239.548L153.08 240.17L154.527 239.274L155.588 240.32L157.932 239.535L158.417 241.36L160.591 243.479L160.119 244.107L158.083 243.002L157.932 243.95L158.783 245.18L157.801 245.382L157.068 244.539L157.716 246.403L156.243 247.501L158.626 250.595L157.978 252.191L158.679 254.075L158.037 254.944L155.929 255.206L155.136 256.665L155.876 257.22L155.529 257.816L153.984 257.482L155.235 258.96L157.029 260.301L158.181 260.249L158.116 261.177L159.766 260.733L162.437 262.263L163.864 261.511L164.048 259.503L162.653 260.648L161.108 257.698L162.797 257.24L163.989 256.089L165.141 256.259L165.017 254.761L165.973 254.513L166.824 255.134L166.87 256.39L167.917 257.194L167.315 254.33L168.474 254.938L168.631 254.31L169.443 254.127L170.641 255.768L170.536 256.939L170.405 258.332L171.381 260.641L171.001 261.472L172.245 261.923L172.383 262.976L175.853 263.368L175.506 265.03L176.783 265.73L176.403 266.822L178.249 267.561L179.336 267.201L179.736 268.091L180.449 267.79L181.706 269.091L183.428 269.536L181.968 271.825L182.368 273.519L181.837 274.369L180.462 271.707L178.531 272.623L180.829 274.14L179.605 276.24L179.984 277.273L179.434 277.895L182.126 279.504L182.525 280.112L181.615 280.602L182.086 281.315L179.677 282.309L178.537 281.145L177.837 281.57L175.192 280.969L174.367 283.055L175.257 283.977L175.349 285.187L176.193 285.482L174.773 285.959L174.57 285.567L174.059 286.155L171.479 285.645L171.63 286.881L172.075 286.273L173.044 286.338L172.37 287.901L174.052 286.992L175.663 288.405L175.532 289.125L176.023 289.072L176.076 289.582L174.498 290.688L174.452 291.832L175.146 291.545L174.687 292.748L173.81 292.578L173.437 293.323L172.776 293.023L172.507 292.925L171.577 293.631L171.198 295.05L171.604 296.751L170.451 296.724L170.281 297.719L170.982 297.941L171.047 299.033L169.724 301.231L170.327 301.983L168.5 303.546L168.389 305.502L171.872 306.215L172.199 305.436L171.414 304.429L171.61 303.736L173.568 303.141L175.801 303.487L176.992 306.666L175.604 306.607L175.1 307.444L176.108 311.035L175.165 312.775L175.296 313.631L174.314 316.862L173.489 317.183L171.826 319.649L169.436 320.976L168.611 321.231L168.146 320.564L167.629 321.428L165.547 320.362L165.279 319.583L164.395 320.002L163.596 319.583L162.398 324.116L162.967 325.051L162.954 327.111L161.075 328.988L159.098 329.629L158.404 330.97L159.569 331.591L159.523 332.082L156.119 332.847L155.844 332.141L154.416 332.651L152.675 331.552L152.458 332.54L153.31 334.312L152.675 334.711L152.589 335.771L153.788 336.372L153.847 336.457L153.526 337.517L152.989 337.792L153.179 341.081L149.911 341.742L148.589 341.356L147.253 338.701L146.048 338.688L145.525 338.106L144.752 338.583L142.434 338.243L141.046 337.556L139.573 338.276L139.789 339.002L138.145 341.278L138.257 339.636L136.797 339.021L132.613 340.002L131.722 341.271L131.755 342.736L130.838 344.097L133.019 344.594L133.248 346.916L133.876 347.622L132.888 347.713L132.573 348.629L132.77 352.985L133.916 355.778L133.196 355.817L133.326 357.269L134.381 357.132L134.034 357.576L134.525 358.06L135.402 357.105L135.048 358.983L135.585 360.663L137.144 360.363L137.432 361.252L136.299 362.756L137.988 363.908L136.934 365.641L137.176 366.484L135.579 366.968L136.083 370.311L134.616 371.71L134.623 372.809L135.31 372.927L136.122 374.411L136.004 375.51L135.297 375.451L134.898 374.536L134.839 375.216L137.072 378.296L136.26 378.767L135.972 377.721L134.525 377.459L133.922 378.538L133.752 378.852L132.862 379.546L131.199 378.728L129.784 379.134L129.882 380.481L129.319 380.363L128.94 381.298L129.719 382.221L128.18 383.365L127.728 382.966L127.381 384.405L125.548 386.073L124.788 385.282L124.088 385.981L123.531 385.112L125.044 383.614L124.54 381.41L125.666 380.429L126.065 381.54L126.674 381.495L127.65 380.357L127.591 379.192L125.417 379.31L124.802 379.899L124.193 378.996L124.415 377.799L123.355 378.617L120.65 378.022V378.198L119.361 377.086L119.498 376.249L118.463 374.523L119.164 373.143L118.025 371.893L118.503 371.547L118.765 372.443L118.961 371.481L114.908 372.351L115.772 376.766L115.425 377.603L114.947 377.387L113.481 378.473L109.906 374.045L108.753 373.653L107.699 374.026L106.095 371.285L105.061 367.067L108.347 365.144L110.07 362.56L109.755 362.115L107.752 362.148L105.925 358.649L106.141 356.523L104.478 355.13L104.903 352.54L103.528 348.747L100.287 345.464L97.7601 344.953L91.7625 346.988L88.7964 348.655L85.3066 349.048L84.5471 348.498L83.9578 346.392L80.6382 343.501L81.8691 341.821L83.3292 341.801L83.0346 340.859L83.9054 339.002L85.2346 339.819L85.981 339.361L87.1596 340.578L86.7929 338.537L87.2643 337.89L85.2542 336.314L85.2018 335.45L86.328 334.665L86.3346 334.044L87.8405 333.632L88.0107 333.004L89.497 332.461L89.5887 331.807L90.597 333.102L91.4548 333.226L92.2929 331.846L92.1226 331.618L91.0095 330.525L91.6119 329.649L93.1571 329.557L93.4387 330.264L94.5387 330.336L95.069 327.824L94.3815 327.137L94.3488 326.039L93.1048 325.679L93.2946 324.665L92.594 322.932L92.0179 322.88L91.9 322.199L90.7542 322.265L91.0161 321.231L89.497 321.29L88.5804 320.538L89.4839 319.766L89.6018 319.008L89.0584 318.772L90.5316 317.765L89.1762 315.535L89.8833 313.082L91.9 310.943L93.0458 312.153L94.3881 312.513L95.7369 311.375L96.4113 308.216L95.344 307.529L95.9202 306.051L94.6565 304.259L95.272 302.565L97.0595 299.373L95.4946 296.411L95.6583 295.737L95.9202 295.652L101.204 289.733L102.232 289.661L102.854 291.028H105.048L108.112 287.293L109.271 287.215L108.852 285.75L109.199 284.115L110.024 283.899L109.886 283.421L112.492 280.576L111.733 278.967L111.15 279.17L112.06 277.659L111.039 276.567L112.099 275.435L113.356 275.043L117.481 275.599L118.627 274.723L120.133 274.592L119.328 273.702H119.171L119.125 272.774L121.718 270.138L121.266 268.699L122.097 268.025L121.004 267.365L120.434 265.219L120.801 264.474L120.199 263.722L118.948 263.565L114.928 265.488L113.324 263.48L115.949 259.575L116.65 259.065L117.377 259.353L117.566 258.319L118.509 258.012L118.313 257.26L119.04 256.874L120.591 257.155L123.577 255.932L125.005 256.069L125.751 256.808L127.27 255.795L129.228 256.03L129.607 253.479L128.455 253.27L128.442 252.08L127.27 249.856L132.587 247.436L133.451 248.463L135.022 248.417L135.625 248.953L135.088 250.935L135.808 252.328L137.51 251.949L138.466 252.42L139.475 250.922L140.837 251.36L141.177 249.307L142.82 248.724L143.593 247.698L144.647 247.724L144.981 245.134L147.332 242.55L145.885 240.981L149.433 239.96L150.638 238.829Z" fill="#CCCCCC" stroke="white" stroke-width="0.5"/>
<path d="M332.51 64.9389L333.78 67.954L335.234 69.7069L341.225 73.1013L349.973 81.8655L348.224 82.9185L349.442 83.808L349.383 86.1691L342.07 85.6785L340.125 87.4837L337.997 87.8172L337.283 87.2809L338.115 87.4575L338.56 86.7642L337.512 85.6654L336.799 87.863L335.43 88.0723L333.237 87.3463L333.669 85.8355L336.216 85.3515L337.886 83.2128L337.237 80.3285L336.164 79.2297L336.674 77.5553L338.979 77.5619L338.737 81.4142L339.09 79.8118L339.785 79.4848L341.434 79.4455L340.93 80.2435L342.174 80.8648L342.469 77.8758L342.161 75.9464L341.231 75.2924L340.747 76.0183L340.282 73.7227L339.248 72.238L336.72 72.2903L336.609 73.7488L337.689 74.7691L337.401 75.6259L336.956 75.2662L337.218 74.2982L336.282 75.8614L334.632 76.7378L334.343 75.7764L335.45 74.0366L334.481 73.3629L332.091 75.4363L330.821 75.3839L330.683 74.5925L331.404 74.017L332.458 71.0411L332.589 69.0921L331.672 68.7912L330.258 67.0253L329.944 65.5079L331.528 64.4615L332.51 64.9389ZM304.198 54.9321L303.779 55.3441L303.445 54.6181L303.969 54.3631L304.198 54.9321ZM320.725 54.3304L320.607 54.7686L320.371 54.3107L321.386 53.1204L321.55 53.7679L320.725 54.3304ZM286.389 46.3053L287.443 47.2471L285.204 47.1752L285.813 46.181L286.389 46.3053ZM296.531 45.3046L297.206 45.6774L295.569 45.926L295.765 45.285L296.531 45.3046ZM300.944 44.9318L297.612 45.8409L298.751 45.0234L300.113 44.9645L300.761 44.0554L300.944 44.9318ZM279.18 42.5053L278.571 43.1005L280.522 44.5198L284.896 45.3242L295.261 45.1084L295.667 46.3969L293.565 47.3321L291.405 46.8416L290.514 47.7376L289.82 47.2013L287.751 47.234L287.103 46.0829L285.787 46.1156L284.765 47.7376L283.554 47.2079L283.619 46.5211L282.67 47.8423L281.059 48.0908L281.95 48.9607L281.675 49.6017L281.439 49.0653L280.084 49.0523L278.938 49.7194L278.715 50.1903L279.377 50.864L280.162 49.9025L280.686 50.3603L282.88 50.2819L284.844 49.1046L284.863 47.7638L286.5 47.5414L286.795 48.1301L285.669 48.4113L285.918 49.3989L285.23 50.4388L285.669 50.4911L286.232 48.4505L286.821 48.444L287.037 50.3538L287.699 50.465L288.085 49.5755L289.028 50.3996L289.833 48.6468L290.887 52.3552L293.781 50.6481L294.436 48.2936L295.562 47.4172L298.24 46.5015L299.157 45.6251L300.008 45.8017L299.844 48.5748L300.768 49.7325L302.051 49.6736L302.634 50.6416L301.92 52.2244L302.431 54.0818L303.557 55.4553L303.131 56.783L304.349 57.7575L305.678 57.11L306.248 57.6529L304.788 58.8236L306.575 57.8949L307.773 59.7393L310.831 60.1317L312.357 63.7551L314.216 63.9055L312.939 64.2064L311.977 65.4491L314.452 64.2718L315.761 64.952L315.166 63.9317L316.148 64.4353L316.05 65.4229L315.788 65.0959L314.609 66.0246L314.681 66.5348L315.86 65.7172L315.729 66.3843L316.658 67.0711L318.276 70.6291L319.638 70.6814L318.642 68.5296L319.225 67.954L324.83 66.7768L327.73 64.5661L328.424 64.7689L328.647 65.2463L327.789 65.5799L327.894 66.175L329.328 67.1038L330.016 66.8356L330.212 68.2418L332.222 69.7788L331.659 72.238L331.063 72.5716L331.312 73.4349L329.786 74.7495L330.323 74.7757L330.48 75.6848L331.862 77.0583L333.518 77.8431L334.455 80.2892L335.502 80.3546L336.89 82.271L336.393 83.1474L334.835 83.8472L334.088 85.3907L333.152 85.4758L333.178 86.3195L332.373 86.6857L332.851 87.8565L334.311 87.9153L336.275 90.6623L337.008 90.4792L339.202 92.8076L344.767 95.0902L347.406 94.9397L348.093 95.4106L350.143 93.5859L351.629 94.4885L351.59 95.7573L349.462 97.7194L351.852 98.1642L352.179 98.8313L351.734 100.251L352.31 100.63L352.349 102.514L353.718 103.71L353.318 108.864L354.117 111.552L355.256 112.507L356.867 122.102L357.686 123.776L355.021 125.215L353.75 125.13L353.089 126.877L351.478 127.531L351.413 128.708L349.337 129.068L347.144 128.198L344.584 128.525L345.926 126.02L349.927 121.749L350.706 119.715L350.503 116.915L349.796 116.471L349.193 117.229L348.015 117.334L345.566 116.026L344.086 118.139L342.633 117.955L342.397 116.804L340.505 116.464L336.989 117.354L336.327 116.706L336.923 115.13L335.273 113.704L335.358 111.565L333.086 110.63L331.842 107.772L331.076 110.905L333.086 112.108L332.667 112.945L331.122 113.763L329.616 112.926L328.549 113.227L325.183 116.006L324.889 118.204L323.239 117.975L321.739 119.015L321.995 120.473L321.399 121.363L320.626 121.265L320.286 122.207L320.548 124.522L319.729 124.103L318.983 126.419L318.066 126.654L317.739 125.987L316.999 126.013L317.078 126.948L315.644 129.388L315.716 129.506L314.904 129.931L313.836 127.485L312.907 127.799L311.303 127.275L309.017 128.956L308.409 131.736L307.263 131.298L306.431 129.408L305.03 129.362L304.179 130.376L303.131 130.363L303.177 131.769L302.372 131.886L302.005 132.809L300.407 133.149L298.993 135.137L297.756 135.458L297.075 134.32L296.4 134.568L297.952 133.371L297.291 132.769L296.112 133.188L296.217 133.731L295.412 133.633L295.772 133.11L294.704 133.214L293.637 134.202L292.354 132.711L289.126 133.685L287.823 132.822L288.569 131.18L285.571 130.984L284.818 130.5L285.25 129.421L284.634 129.087L282.29 129.774L278.944 128.368L275.599 129.375L274.885 127.603L273.445 126.929L273.418 125.817L269.987 123.874L267.82 124.169L266.655 121.729L264.88 122.122L264.802 122.828L264.114 123.07L263.361 121.559L261.705 122.73L260.474 122.547L260.376 121.095L258.955 120.794L259.505 122.292L257.717 123.456L257.953 125.797L256.768 126.419L255.904 125.994L254.869 127.916L252.505 127.465L251.163 129.427L248.505 129.113L249.926 130.291L249.408 131.089L247.654 130.912L245.781 131.579L245.657 130.578L243.123 129.722L241.427 130.055L239.777 131.867L238.278 132.174L238.939 135.248L238.245 136.255L238.494 137.158L237.485 138.041L236.281 138.368L234.951 137.936L234.598 137.001L233.661 137.367L232.85 136.949L231.854 137.053L231.671 139.016L226.42 138.237L224.678 136.733L222.943 137.237L222.544 135.785L223.48 134.202L219.008 131.88L216.435 127.321L215.695 127.23L214.759 123.554L213.2 123.489L211.871 122.514L208.421 125.568L205.271 123.914L205.402 123.155L204.433 122.874L202.757 120.971L198.403 121.415L199.274 120.153L199.987 115.163L200.845 114.679L202.475 115.051L202.875 113.482L205.147 113.148L206.43 111.232L208.008 111.016L207.569 110.519L208.375 109.002L207.897 106.732L208.578 106.614L209.062 107.438L211.577 106.968L212.356 102.899L213.312 101.546L212.886 98.9883L211.969 98.622L212.094 97.9614L209.062 97.7717L207.458 96.4702L207.183 95.2471L205.232 94.2595L205.409 93.0626L205.854 91.3818L204.833 87.2417L205.788 85.7439L207.013 85.4888L207.661 84.2396L208.827 83.9976L210.326 82.0617L211.655 82.7353L211.256 83.3174L211.609 83.9453L213.868 83.2717L210.863 82.2121L211.295 79.8314L216.939 76.3323L222.825 75.6979L224.004 77.6077L226.151 77.9151L225.444 79.8968L226.06 81.3357L227.356 81.6104L229.32 79.6548L230.682 81.4207L232.241 81.3292L232.156 82.3364L233.301 82.9512L233.511 83.893L234.493 84.0696L233.878 83.0427L235.37 81.8655L235.488 79.0858L235.01 79.3801L234.67 78.8961L233.904 79.6679L233.864 76.8621L233.144 77.8039L233.321 79.4455L231.907 78.6084L231.429 79.0923L232.404 79.1774H231.527L230.997 78.1113L231.435 76.607L233.995 75.1354L235.796 75.1681L234.847 78.6345L235.783 79.0662L236.195 77.8235L235.809 77.2414L236.621 75.8025L237.616 75.3447L237.014 74.5075L238.284 74.9261L239.273 74.344L239.587 72.2642L241.27 71.3223L241.42 70.3347L240.536 69.4387L237.479 73.3237L237.302 71.5251L238.598 69.9816L240.7 69.1509L243.666 65.9396L246.901 65.7892L250.639 66.4628L257.482 64.1279L262.229 63.7158L264.762 59.8897L271.028 55.7366L274.04 49.9091L276.463 47.0378L277.864 43.1005L279.18 42.5053ZM304.873 33.8851L305.292 35.9715L304.86 34.2644L304.873 35.906L304.415 34.8727L304.683 34.0747L303.373 35.2586L303.596 38.5157L301.822 41.2365L301.481 44.2058L301.304 42.8847L302.876 37.0572L302.928 34.7419L303.923 33.7739L304.873 33.8851ZM316.776 28.051L316.626 29.7123L315.133 30.3532L314.432 31.6155L315.081 34.114L316.246 35.5987L317.994 36.1742L325.177 35.1212L327.017 36.6255L327.03 38.9735L322.728 42.8781L322.689 44.958L324.306 48.0712L326.768 48.3197L329.125 51.603L330.683 52.5579L329.616 52.9373L328.758 54.6116L328.948 57.2278L328.366 57.7183L327.292 56.6326L328.32 56.9073L328.012 55.7496L326.277 56.3514L325.668 55.6581L327.92 54.2977L328.097 53.5782L326.742 53.3297L324.175 54.2977L326.964 52.7411L327.305 51.8058L325.622 52.0739L324.417 53.3428L323.121 51.6946L321.805 52.6102L319.716 52.486L316.311 55.2983L314.838 57.9276L315.041 56.9792L313.457 57.6464L313.679 59.3011L313.981 58.0649L314.603 58.804L315.624 58.0192L316.2 58.7713L316.488 59.8832L315.126 61.0997L310.897 59.0198L312.193 59.3926L312.704 57.0316L311.663 57.921L312.101 58.4966L309.973 58.7975L307.931 57.0316L307.125 57.6267L306.87 55.7431L304.631 56.7896L305.266 55.2133L306.497 55.4749L303.557 53.1923L304.1 50.4388L306.962 50.0856L307.97 50.6612L309.646 49.4839L308.651 49.2092L308.382 48.2478L309.351 47.9142L308.481 48.0647L307.597 46.2268L305.037 46.7435L306.215 44.3693L303.963 45.37L303.832 44.958L305.842 41.7728L308.245 42.3156L308.055 43.748L306.549 43.7349L306.385 44.3693L307.066 44.9841L307.354 44.075L309.279 43.8134L308.409 43.4995L310.045 42.6623L308.278 42.2633L308.395 40.4647L307.06 41.0141L305.855 40.6609L304.788 37.927L308.959 37.2992L310.805 38.2344L310.759 39.6733L311.447 40.2162L311.761 39.4575L311.152 37.443L313.548 35.4875L314.151 35.7687L312.881 37.7635L313.588 38.0055L314.413 36.9656L316.017 39.8499L315.951 41.6943L317.195 42.1718L317.556 43.3032L318.466 42.5184L319.736 42.5969L320.188 39.2155L319.258 37.0506L320.017 37.1095L320.083 36.5797L319.173 36.8152L319.212 37.6L317.333 37.5739L316.475 36.3443L315.139 35.9845L314.177 33.0544L312.442 34.5522L312.664 35.3174L308.913 37.0179L310.589 32.8778L310.628 30.8242L308.238 32.3088L308.684 34.4475L305.475 37.0572L305.632 36.2331L307.832 34.3036L307.885 31.3866L309.017 29.9412L310.838 28.7312L316.776 28.051Z" fill="#CCCCCC" stroke="white" stroke-width="0.5"/>
<path d="M40.5279 105.032L38.1315 105.261L36.5731 106.072L38.2951 107.236L37.7124 108.06L37.1297 107.138L36.1803 107.831L33.9541 106.006L34.144 104.855L37.9154 103.527L40.5279 105.032ZM44.4826 101.48L43.7427 101.86L44.6856 101.918L43.8213 102.343L44.1618 102.952L43.088 102.919L42.7606 101.774L44.4826 101.48ZM40.9665 101.539L41.9683 102.043L41.032 102.298L40.8814 100.656L40.9665 101.539ZM51.626 98.864L52.3331 99.518L42.682 100.244L51.626 98.864ZM62.3116 96.1432L62.8092 96.758L60.7926 97.3728L60.4521 97L60.6551 97.4251L59.5813 97.6736L57.0015 97.5363L56.445 98.0791L55.345 97.4709L54.7426 98.2034L54.101 97.4774L56.1896 96.3525L62.3116 96.1432ZM97.1905 95.7311L98.1268 96.202L96.7584 96.3525L96.4834 97.1504L95.056 97.0981L95.8548 95.9143L97.1905 95.7311ZM65.0616 95.463L66.4039 95.7115L66.6003 96.7122L63.333 96.1301L65.0616 95.463ZM72.4538 93.8083L74.4705 94.1157L74.6407 94.7697L69.73 94.9855L69.4616 96.2936L69.311 95.8358L69.239 96.3786L67.7265 96.3002L68.3223 94.1614L72.4538 93.8083ZM90.5513 93.6382L90.9834 94.7959L90.2763 94.338L90.5513 93.6382ZM90.7084 92.9318L90.3221 93.4551L89.9555 93.1608L90.4007 92.2778L90.7084 92.9318ZM78.4972 92.1993L82.4258 92.9188L79.918 93.7429L77.3907 93.3897L76.8538 94.3184L76.2514 94.1353L76.88 92.5656L78.4972 92.1993ZM85.7126 91.264L88.8358 92.6833L84.9007 91.7611L84.4555 92.788L83.6567 91.8788L85.7126 91.264ZM105.696 88.9357L104.406 89.1123L105.388 88.0069L105.977 88.0985L105.696 88.9357ZM118.817 84.3966L118.758 85.1618L119.767 85.757L119.498 86.4503L120.251 87.0978L119.911 85.9598L122.242 88.3143L127.375 89.2104L132.639 87.9938L131.978 85.672L140.529 85.3057L144.896 87.1567L146.998 90.0083L149.565 95.2406L152.897 98.3604L154.757 103.756L159.897 107.399L162.273 107.981L164.126 108.21L163.747 109.106L164.283 110.552L163.648 111.337L164.578 112.004L164.473 112.625L165.357 112.514L165.488 114.548L167.767 116.863L167.747 116.248L169.515 115.032L170.235 116.471L169.646 117.838L170.006 117.975L171.113 117.001L172.913 117.818L174.805 116.51L174.373 115.686L175.532 115.666L175.709 114.515L180.823 119.211H183.507L184.542 117.543L186.408 116.608L187.351 117.21L189.315 117.275L194.422 120.768L197.742 121.742L198.383 121.441L202.737 120.997L204.414 122.9L205.383 123.181L205.252 123.94L208.401 125.595L211.852 122.54L213.181 123.515L214.739 123.58L215.675 127.256L216.415 127.347L218.988 131.906L223.46 134.228L222.524 135.811L222.923 137.263L224.659 136.759L226.4 138.263L226.636 139.885L229.379 142.848L234.153 141.252L236.47 143.339L238.081 143.005L240.242 144.222L238.611 145.87L238.474 146.766L236.523 146.308L235.829 149.415L236.235 150.808L234.329 151.266L232.162 153.293L228.345 155.125L227.592 155.36L227.428 154.353L225.268 155.007L224.515 153.797L221.804 153.3L219.414 153.771L219.434 152.757L215.512 152.848L214.942 153.11L214.765 154.706L212.794 156.884L211.007 156.681L210.352 157.368L209.796 156.668L205.579 157.61L205.121 161.658L206.653 164.137L206.875 166.459L208.139 166.289L208.683 167.806V167.97L211.93 173.614L214.294 172.659L214.097 174.02L212.768 175.007L212.683 176.505L215.643 181.443L215.243 181.397L214.3 181.057L213.004 181.561L212.539 183.811L215.937 187.931L215.918 188.716L216.382 188.598L216.756 188.925L218.412 189.664L218.144 190.959L216.795 191.751L214.588 191.934L216.782 194.504L216.788 194.687L215.774 195.551L216.448 196.741L217.463 197.009L217.725 198.729H218.098L218.838 199.586L218.419 200.194L216.494 200.75L215.832 201.646L216.075 203.04L217.777 203.373L217.149 205.996H216.788L214.359 207.938L212.912 208.095L212.755 208.671L214.097 209.259L213.849 211.228L210.411 211.019L208.159 211.908L202.777 211.693L200.622 212.281L200.93 213.308L199.614 214.472L198.58 214.603L198.357 214.06L197.015 214.76L197.971 216.781L198.848 216.598L199.49 217.906L200.727 217.926L199.143 219.227L199.195 220.391L200.636 221.222L200.675 222.425L199.981 223.746L197.67 225.257L197.525 225.885L198.069 226.121L197.532 227.788L198.213 230.64L199.771 231.405L199.974 232.91L201.487 234.59L201.513 237.403L202.796 239.175L201.742 239.45L202.024 240.065L200.197 240.64L200.609 241.517L200.014 241.484L200.203 243.001L201.317 243.577L200.943 244.728L198.828 243.322L196.949 244.885L195.208 245.029L194.199 243.76L191.613 242.478H191.364L188.987 242.792L189.413 244.041V244.434L187.842 247.383L186.375 247.678L186.015 249.045L183.808 249.751L183.298 250.595L182.597 250.582L181.995 249.561L181.012 250.647L181.346 251.085L180.803 252.243L179.467 252.387L179.985 253.198L178.452 253.257H178.184L176.907 252.976L176.416 254.087L175.499 252.812L175.159 253.917L173.967 253.944L173.581 254.983L170.549 256.952L170.654 255.781L169.456 254.14L168.644 254.323L168.487 254.951L167.328 254.342L167.93 257.207L166.876 256.403L166.837 255.147L165.986 254.519L165.023 254.774L165.148 256.265L163.995 256.102L162.804 257.253L161.114 257.704L162.653 260.661L164.054 259.516L163.864 261.517L162.437 262.269L159.772 260.739L158.122 261.184L158.188 260.262L157.035 260.307L155.241 258.967L153.991 257.488L155.536 257.822L155.883 257.227L155.143 256.664L155.935 255.206L158.05 254.944L158.692 254.074L157.998 252.184L158.639 250.588L156.263 247.495L157.729 246.396L157.088 244.532L157.821 245.376L158.803 245.173L157.959 243.943L158.109 242.995L160.139 244.1L160.61 243.472L158.443 241.36L157.959 239.528L155.614 240.32L154.547 239.267L153.1 240.163L152.347 239.542L152.524 238.142L150.651 238.829L147.469 238.6L148.576 235.159L147.973 233.95L148.281 233.073L147.476 232.347L150.448 228.92L149.663 227.533L150.259 226.467L149.918 225.754L151.038 224.433L148.753 224.806L146.932 224.178L145.387 224.911L146.186 223.086L146.062 221.294L143.246 219.672L143.371 218.874L142.821 218.652L143.711 217.84L143.279 216.912L140.896 216.853L140.522 217.742L139.593 217.422L139.141 216.382L139.985 215.329L139.363 214.845L140.005 214.224L139.147 212.7L139.062 211.123L139.933 210.352L138.29 208.455L137.419 208.645L138.473 206.964L138.257 206.277L137.255 205.623L135.559 205.93L134.675 205.564L134.734 205.002L132.312 205.911L132.744 203.458L131.231 201.856L132.069 202.202L132.397 201.817L132.757 202.667L133.66 202.601L133.333 199.854L134.047 200.096L135.042 199.351L133.372 198.095L130.714 197.186L130.976 196.46L130.406 196.081L131.251 195.669L131.762 192.928L132.613 192.614L132.98 191.633L134.296 192.026L135.946 189.834L135.828 188.729L136.974 187.617L137.013 186.401L136.437 186.407L136.443 185.485L135.782 184.923L137.55 182.679L135.991 181.253L134.027 181.064L132.39 184L130.924 184.471L131.271 185.701L129.424 186.8L129.195 187.781L127.368 187.526L127.1 188.284L125.79 188.625L123.06 187.99L121.305 188.69L120.362 187.944L119.583 188.206L119.472 186.571L120.015 185.884L119.465 184.975L119.367 180.802L118.824 179.73L118.09 179.913L117.259 178.951L113.317 181.182L111.045 180.292L109.232 181.639L109.087 183.745L107.496 184.896L106.763 184.491L105.264 184.916L102.749 183.935L102.789 185.583L103.529 186.178L103.306 187.683L106.56 188.978L108.629 190.502L109.729 193.68L109.277 195.577L109.651 198.337L108.577 200.508L109.664 201.915L111.68 202.556L109.703 204.557L107.208 205.806L107.064 207.552L105.637 207.585L104.308 206.624L103.07 207.01L101.97 206.526L102.036 205.891L99.3905 207.788L98.1268 210.103L96.4048 209.94L94.1001 211.143L91.4483 210.365L89.3072 212.621L86.7341 211.588L85.3132 209.358L88.9602 207.18L90.4465 207.232L90.093 204.779L90.237 204.223L91.2126 204.027L90.3941 203.125L87.4739 203.118L86.3347 202.248L86.0204 201.189L87.0876 199.704L87.0352 197.199L88.3513 196.95L87.2971 195.669L87.3102 194.596L89.8114 194.112L88.0043 192.359L87.5132 190.332L85.562 189.213L83.6763 189.985L82.1049 189.821L78.1764 187.905L77.1484 184.373L73.783 182.875L71.9889 185.793L73.5865 186.499L72.277 189.207L72.7419 189.599L70.2211 190.109L66.5937 192.529L66.1878 193.785L64.4658 194.099L63.4836 195.551L61.5456 196.087L60.7664 197.153L54.8736 196.99L53.4986 197.343L52.595 198.572L51.0236 198.671L49.5242 196.506L49.4587 195.394L51.4034 191.162L51.4296 189.71L50.801 187.931L49.845 187.82L48.7909 185.91L47.9659 183.301L45.9231 185.518L42.2302 184.55L42.2368 183.909L38.2231 183.66L35.7285 182.006L36.0231 179.651L34.9821 177.486L36.4356 177.781L36.8809 176.799L38.6094 176.78L36.6321 175.034L36.9136 173.196L36.3309 172.411L37.9874 170.939L43.0683 170.566L45.6939 171.665L47.2915 171.05L50.0742 171.999L50.657 171.312L51.3575 159.853L52.2284 157.878L52.0188 157.1L56.0063 150.71L57.4402 146.269L56.7724 138.845L56.0194 138.29L55.8557 137.132L56.851 134.647L57.8462 134.339L57.067 133.62L57.4599 132.933L57.1063 129.872L57.9051 128.584L58.6122 124.548L61.2444 124.424L48.9611 122.939L48.2278 120.984L48.7843 120.055L49.4064 113.076L50.3754 111.552L49.7468 109.558L50.6635 111.245L52.0581 111.252L52.5034 111.964L53.0272 111.271L50.8272 111.232L50.0808 109.381L51.1611 110.676L51.5605 109.675L52.726 111.14L52.5557 110.264L53.5051 110.192L54.3694 109.021L53.2563 108.596L52.1105 106.425L54.5658 103.972L54.8474 102.932L54.7885 103.416L58.5795 100.048L63.4444 98.864L64.0926 99.2957L68.4467 99.1387L70.2866 99.9955L77.7311 97.726L77.7442 96.5879L77.7573 97.968L82.046 97.2093L83.2246 95.548L82.19 97.4578L86.446 96.6533L91.2322 97.3793L90.9834 99.1714L91.9459 102.01L93.1441 101.631L94.1983 102.671L94.6828 102.023L94.9905 102.409L94.2376 102.736L94.8989 103.782L95.4685 103.534L94.9578 103.88L95.2721 104.986L97.2102 108.936L96.7256 109.813L97.2822 109.486L96.5489 110.996L94.0542 111.938L92.6334 111.618L92.7513 113.645L94.2245 115.81L95.737 115.241L96.4441 115.581L98.5 118.662L100.333 119.113L101.25 118.57L103.168 114.966L103.044 110.512L99.5869 110.584L100.215 106.281L101.82 104.214L102.874 103.756L104.164 104.136L106.076 106.784L109.448 108.289L111.091 108.452L111.72 107.877L111.7 108.563L113.055 109.322L113.291 110.336L112.944 110.565L114.057 112.945L114.568 112.494L115.425 113.102L116.499 112.291L117.246 110.964L116.755 109.989L117.023 108.119L116.323 107.988L115.871 106.745L117.645 104.286H116.925L117.036 104.848L115.786 104.652L114.836 105.463L111.824 104.574L110.253 101.094L110.201 98.3408L112.82 91.7807L112.944 89.8448L115.615 85.2011L118.817 84.3966ZM115.89 135.163L116.355 137.145L117.992 139.611L117.842 140.461L119.701 141.481L119.485 142.959L120.022 144.012L121.58 144.078L122.268 143.051L122.497 144.019L124.356 145.34L126.157 145.242L126.196 143.96L127.375 145.772L129.071 145.778L129.169 145.065L130.996 143.541L130.328 142.6L130.216 140.873L131.356 140.003L130.249 139.833L129.621 138.689L131.087 137.976L129.477 136.19L128.187 137.557L126.091 137.629L126.019 137.413L125.227 136.445L125.103 135.837L124.677 135.359L121.056 135.386L120.454 134.248L119.498 134.476L119.256 133.901L118.326 134.594L116.067 134.817L115.537 133.502L114.24 133.476L115.046 132.05L114.188 131.703L113.167 132.279L110.999 130.945L110.489 130.925L110.161 131.167L111.176 132.822L111.353 133.044L115.89 135.163ZM111.058 81.8916L111.648 82.7157L110.39 82.9447L110.574 81.8197L111.058 81.8916ZM108.963 79.5371L109.441 79.7333L107.915 80.9498L107.411 80.7078L108.23 79.3801L108.963 79.5371Z" fill="#CCCCCC" stroke="white" stroke-width="0.5"/>
<path d="M50.9907 198.671L52.5621 198.572L53.4657 197.343L54.8407 196.99L60.7335 197.153L61.5126 196.087L63.4507 195.551L64.4394 194.092L66.1549 193.785L66.5674 192.523L70.1947 190.109L72.7155 189.592L72.2441 189.2L73.5536 186.492L71.956 185.786L73.75 182.869L77.1089 184.367L78.1369 187.899L82.0655 189.815L83.6369 189.978L85.5226 189.207L87.4737 190.325L87.9648 192.353L89.7719 194.105L87.2708 194.589L87.2577 195.669L88.3118 196.95L86.9958 197.199L87.0482 199.71L85.9744 201.195L86.2952 202.255L87.4345 203.118L90.3547 203.125L91.1731 204.027L90.1975 204.223L90.0535 204.779L90.4071 207.232L88.9208 207.18L85.2738 209.358L86.6946 211.594L89.2678 212.628L91.4088 210.371L94.0671 211.143L96.3719 209.94L98.0939 210.103L99.3576 207.788L102.003 205.891L101.931 206.532L103.031 207.01L104.268 206.624L105.604 207.585L107.031 207.552L107.169 205.806L109.663 204.557L111.634 202.556L109.618 201.921L108.531 200.515L109.605 198.344L109.231 195.583L109.69 193.687L108.59 190.508L106.521 188.984L103.266 187.689L103.489 186.178L102.749 185.59L102.71 183.935L105.224 184.916L106.73 184.497L107.463 184.896L109.055 183.745L109.192 181.639L111.006 180.299L113.284 181.181L117.226 178.958L118.057 179.919L118.797 179.736L119.341 180.809L119.439 184.981L119.996 185.891L119.452 186.577L119.557 188.212L120.336 187.951L121.279 188.696L123.034 187.997L125.764 188.631L127.073 188.284L127.335 187.532L129.162 187.781L129.391 186.8L131.238 185.701L130.891 184.478L132.357 184.007L133.994 181.07L135.958 181.26L137.517 182.686L135.749 184.936L136.417 185.492L136.41 186.414L136.986 186.407L136.947 187.617L135.801 188.729L135.926 189.834L134.276 192.025L132.953 191.633L132.586 192.614L131.735 192.928L131.225 195.669L130.38 196.081L130.95 196.46L130.688 197.186L133.346 198.102L135.016 199.357L134.014 200.103L133.3 199.854L133.628 202.608L132.724 202.673L132.37 201.823L132.043 202.215L131.205 201.869L132.717 203.465L132.285 205.917L134.714 205.015L134.656 205.577L135.539 205.943L137.235 205.636L138.237 206.29L138.453 206.977L137.406 208.658L138.27 208.468L139.913 210.358L139.042 211.13L139.128 212.706L139.985 214.23L139.35 214.852L139.972 215.335L139.121 216.389L139.573 217.428L140.503 217.749L140.882 216.853L143.266 216.918L143.691 217.847L142.801 218.658L143.351 218.88L143.226 219.678L146.042 221.3L146.166 223.092L145.361 224.917L146.913 224.185L148.733 224.813L151.018 224.44L149.898 225.761L150.239 226.474L149.643 227.533L150.435 228.92L147.456 232.347L148.261 233.073L147.96 233.956L148.563 235.159L147.456 238.6L150.638 238.829L149.433 239.96L145.885 240.98L147.332 242.55L144.981 245.134L144.647 247.724L143.593 247.697L142.82 248.724L141.177 249.306L140.836 251.36L139.475 250.922L138.466 252.42L137.51 251.949L135.808 252.328L135.088 250.935L135.625 248.953L135.022 248.417L133.451 248.463L132.586 247.436L127.27 249.856L128.442 252.079L128.455 253.27L129.607 253.479L129.228 256.03L127.27 255.794L125.751 256.808L125.004 256.069L123.577 255.932L120.591 257.155L119.04 256.874L118.313 257.259L118.509 258.012L117.566 258.319L117.376 259.352L116.65 259.065L115.949 259.575L113.324 263.479L114.928 265.487L118.948 263.564L120.198 263.721L120.801 264.474L120.434 265.219L121.004 267.364L122.097 268.025L121.266 268.699L121.718 270.138L119.125 272.773L119.171 273.702H119.328L120.133 274.592L118.627 274.722L117.481 275.599L113.356 275.043L112.099 275.435L111.038 276.567L112.06 277.659L111.15 279.17L111.732 278.967L112.492 280.576L109.886 283.421L110.024 283.899L109.199 284.114L108.852 285.749L109.271 287.215L108.112 287.293L105.047 291.028H102.854L102.232 289.661L101.204 289.733L95.9201 295.652L95.6582 295.737L95.4945 296.41L97.0594 299.373L95.2719 302.565L93.3273 301.178L92.5612 301.898L91.7624 301.78L91.6707 299.772L88.7374 296.652L89.1237 293.408L88.7505 292.022L88.2726 291.531L86.5505 292.068L85.169 290.099L82.8904 289.602L83.8137 286.6L81.4172 285.645L80.2976 286.861L79.0405 287.247L80.0619 288.379L79.6363 290.635L80.1667 292.074L78.7655 291.675L77.6655 293.245L75.9107 293.657L76.7161 294.448L76.3625 296.247L75.6816 297.104L73.3834 297.287L73.056 299L71.3013 298.556L70.0769 299.164L70.0703 299.7L66.4626 300.943L63.9811 300.387L63.2608 301.76L63.8763 302.833L63.1299 304.095L63.3525 304.854L62.3442 305.587L57.2305 306.633L56.746 304.985L56.2287 306.626L55.5216 307.346L54.7555 307.235L54.474 308.144L53.1579 307.366L52.0776 309.086L50.6633 307.764L48.2407 310.479L47.2193 311.015L45.4187 310.753L45.4449 312.487L43.4152 312.899L44.0044 313.546L43.6574 314.239L44.3384 314.501L44.1681 316.731L42.3937 317.771L40.5211 316.509L40.0104 315.221L37.686 316.45L38.5634 317.385L37.6206 318.569L38.786 318.935L39.2836 319.851L38.7402 321.696L40.089 323.272L39.9515 323.815L39.1003 323.592L35.8854 325.404L34.5366 323.167L33.2533 324.881L32.5331 324.214L32.7361 322.958L31.826 322.886L31.7474 322.055L27.773 323.867L26.804 325.267L25.501 325.391L25.7956 323.795L25.1867 323.121L24.5778 323.697L23.8445 321.97L22.751 322.291L23.1111 323.762L23.5891 323.671L23.648 325.234L24.3421 325.633L24.3683 326.274L23.504 326.307L23.2814 324.868L20.8784 322.552L22.3451 318.877L22.1617 317.68L20.8522 317.163L21.2778 315.43L17.9255 314.351L16.0856 314.998L15.3326 313.324L14.5207 312.951L14.835 312.277L14.0951 311.937L14.0035 310.937L16.0529 308.804L16.8124 308.876L17.8731 306.424L14.9136 305.999L14.0493 306.43L14.3374 306.044L13.7154 305.345L14.3047 304.802L11.7053 300.302L8.56244 299.739L8.27435 300.341L8.39221 298.68L7.31186 297.561L7.72435 296.764L5.53092 295.266L5.9827 294.396L6.82734 294.886L7.67197 294.036L7.42317 292.009L8.96184 291.348L9.72136 291.963L10.3499 290.21L9.7672 288.915L10.5922 287.031L8.90292 286.992L7.44281 286.175L6.84043 284.664L7.67197 282.911L5.25592 283.225L4.69283 282.636L2.35535 283.506L2.64999 281.708L1.58273 280.628L1 278.679L3.0101 277.463L3.97914 279.53L4.9089 279.484L5.76663 277.064L7.06305 275.795L8.44459 275.213L10.435 272.95L13.9053 271.446L12.4582 270.406L14.2261 269.536L13.532 268.993L10.7952 270.602L10.0553 270.465L9.44636 267.345L10.1993 267.07L9.61005 265.808L11.7511 263.721L13.6565 259.869L14.6648 259.653L16.0463 257.835L15.5487 256.193L16.0398 255.278L15.2148 255.317L15.9481 250.51L15.5291 247.809L13.316 244.427L10.4154 241.543L11.4696 238.168L7.96007 236.965L7.71126 234.708L8.44459 234.087L6.33627 232.661L4.74521 232.622L4.76485 231.798L6.17913 230.81L6.23151 229.652L5.54401 229.437L5.66842 228.632L4.37855 227.645L4.8958 227.324L4.33926 226.899L5.01366 226.062L7.16781 226.134L9.30232 224.165L10.7755 225.212L13.5517 225.767L13.4731 224.433L12.4059 222.772L11.0243 222.308L11.5874 221.667L13.6826 221.712L15.4767 223.89L18.3183 223.544L19.1171 223.93L19.3921 225.159L21.4088 225.251L21.8082 226.094L23.4189 226.703L23.7659 224.983L22.8034 224.283L22.9933 223.518L24.6629 224.571L25.4028 224.132L26.2278 224.93L29.3313 222.863L35.1849 220.627L37.1753 221.869L39.5128 219.829L39.9646 217.84L41.1628 217.468L41.2675 215.95L38.0527 213.151L35.2896 212.379L35.5712 210.28L37.3587 209.959L38.367 207.023L42.3021 206.885L44.4562 203.118L46.2699 202.771L47.6907 199.763L49.8972 199.678L50.9907 198.671Z" fill="#CCCCCC" stroke="white" stroke-width="0.5"/>
<path d="M23.5038 326.307L24.3681 326.274L24.3419 325.633L23.6479 325.234L23.5889 323.671L23.111 323.762L22.7509 322.291L23.8443 321.97L24.5776 323.697L25.1866 323.122L25.7955 323.795L25.5008 325.391L26.8038 325.267L27.7728 323.867L31.7472 322.055L31.8258 322.886L32.7359 322.958L32.5329 324.214L33.2532 324.881L34.5365 323.167L35.8853 325.404L39.1001 323.592L39.9513 323.815L40.0888 323.272L38.74 321.696L39.2835 319.851L38.7859 318.936L37.6204 318.569L38.5632 317.386L37.6859 316.45L40.0103 315.221L40.521 316.509L42.3936 317.771L44.168 316.732L44.3382 314.501L43.6573 314.24L44.0043 313.546L43.415 312.899L45.4447 312.487L45.4185 310.754L47.2191 311.015L48.2405 310.479L50.6631 307.765L52.0774 309.086L53.1578 307.366L54.4738 308.144L54.7554 307.235L55.5214 307.346L56.2286 306.627L56.7458 304.985L57.2304 306.633L62.344 305.587L63.3523 304.854L63.1297 304.096L63.8761 302.833L63.2607 301.761L63.9809 300.387L66.4624 300.943L70.0701 299.7L70.0767 299.164L71.3011 298.556L73.0558 299.001L73.3832 297.287L75.6814 297.104L76.3624 296.247L76.7159 294.448L75.9106 293.657L77.6653 293.245L78.7653 291.675L80.1665 292.074L79.6361 290.635L80.0617 288.379L79.0403 287.247L80.2974 286.862L81.4171 285.645L83.8135 286.6L82.8903 289.602L85.1688 290.099L86.5504 292.068L88.2724 291.531L88.7504 292.022L89.1236 293.408L88.7373 296.653L91.6706 299.772L91.7622 301.78L92.561 301.898L93.3271 301.178L95.2717 302.565L94.6563 304.259L95.9199 306.051L95.3438 307.529L96.411 308.216L95.7366 311.375L94.3878 312.513L93.0456 312.153L91.8997 310.943L89.8831 313.082L89.1759 315.535L90.5313 317.765L89.0581 318.772L89.6015 319.008L89.4837 319.766L88.5801 320.538L89.4968 321.29L91.0158 321.231L90.7539 322.265L91.8997 322.199L92.0176 322.88L92.5938 322.932L93.2944 324.665L93.1045 325.679L94.3485 326.039L94.3813 327.137L95.0688 327.824L94.5384 330.336L93.4384 330.264L93.1569 329.557L91.6116 329.649L91.0093 330.525L92.1224 331.618L92.2926 331.846L91.4545 333.226L90.5968 333.102L89.5884 331.807L89.4968 332.461L88.0105 333.004L87.8402 333.632L86.3343 334.044L86.3278 334.665L85.2016 335.45L85.254 336.314L87.2641 337.89L86.7926 338.537L87.1593 340.578L85.9807 339.361L85.2343 339.819L83.9052 339.002L83.0343 340.859L83.329 341.801L81.8689 341.821L80.6379 343.501L83.9575 346.392L84.5468 348.498L85.3063 349.048L88.7962 348.655L91.7622 346.987L97.7598 344.953L100.287 345.464L103.528 348.747L104.903 352.54L104.478 355.13L106.141 356.523L105.925 358.649L107.751 362.148L109.755 362.115L110.069 362.56L108.347 365.144L105.06 367.067L106.095 371.285L107.699 374.026L107.404 375.961L109.401 381.266L108.537 382.58L111.241 383.555L110.731 385.707L109.369 386.982L109.827 387.479L110.92 386.531L110.842 387.924L108.858 390.579L110.449 392.476L106.363 396.315L106.141 397.335L106.966 397.29L105.42 400.488L105.041 404.824L103.096 407.8L102.481 410.331L101.931 411.515L99.7699 413.366L99.4818 412.705L98.408 413.261L98.1985 412.614L96.7057 412.777L93.9426 411.849L92.214 410.312L89.0843 409.461L87.2968 407.539L86.7141 408.565L85.4046 408.127L84.4813 409.089L81.4695 407.048L80.3171 408.271L79.0141 408.454L78.8897 407.637L78.3986 407.983L77.3314 407.532L77.4034 408.094L76.4344 408.395L74.7517 407.761L74.6796 406.603L73.3701 405.956L71.8576 406.158L70.3648 405.066L69.1928 402.941L68.9374 400.534L66.5017 400.808L66.8029 399.585L63.5488 400.377L63.4702 401.207L60.7137 398.192L61.0149 397.061L60.4321 396.112L61.2244 394.863L61.8922 395.491L61.9184 394.687L62.7041 394.118L62.3833 393.522L63.5029 393.562L64.4392 392.554L65.0809 387.721L63.6535 388.074L63.1494 387.093L60.4714 386.478L60.4125 384.726L58.828 383.646L58.6512 382.849L60.2946 382.103L61.0738 380.991L59.9934 380.35L60.3405 378.244L61.2244 377.878L60.9952 377.198L59.8232 377.001L59.5155 373.986L57.2893 375.183L57.2304 374.523L56.1107 374.51L55.6131 373.921L55.5149 373.084L53.4459 373.28L52.5489 372.593L52.0512 372.992L50.8661 371.082L49.5173 370.415L47.7298 371.619L47.9721 370.723L46.3549 371.311L45.8703 370.742L45.4054 372.129L43.9781 371.913L43.2578 372.861L42.6686 372.456L41.49 374.039L40.462 373.535L37.8168 375.7L36.2519 375.942L35.4139 377.093L35.1781 376.321L34.2353 376.615L33.7639 376.151L33.6067 376.916L32.952 376.746L31.9109 377.584L31.9633 378.192L30.8568 378.028L30.1038 376.772L28.2312 377.642L26.3324 376.563L25.4877 376.929L24.5383 376.269L23.9949 376.615L22.4431 376.099L21.5134 374.771L22.5151 374.424L22.3253 373.391L24.1717 371.73L25.0098 369.421L24.558 368.558L27.7467 365.641L27.3276 364.83L28.1657 365.065L27.4913 363.384L28.2246 362.514L27.727 360.709L28.6502 359.486L27.9824 360.009L26.2735 358.656L24.5645 359.421L23.1961 358.728L21.7032 356.844L20.0598 357.648L19.6211 355.693L18.9991 355.85L16.3604 353.704L16.2557 352.468L15.7057 352.161L15.9087 350.46L15.195 350.133L14.9069 350.585L14.5729 349.277L13.9968 350.225L13.6563 348.145L12.3926 347.36L12.9688 346.719L12.3861 346.353L12.7724 345.725L12.1307 345.274L11.8688 343.351L11.2402 343.358L12.0849 342.507L11.417 342.462L11.692 341.304L12.2355 341.219L11.9146 339.512L13.0605 338.001L12.1896 337.242L12.5301 336.287L12.8444 335.679L13.2765 336.058L14.5991 335.365L13.5974 332.886L13.9968 331.951L14.8545 331.801L15.614 330.532L18.3116 329.891L18.8158 329.211L18.5408 328.145L19.5884 326.451L20.5705 326.32L21.7032 327.504L21.7556 326.83L23.5038 326.307Z" fill="#CCCCCC" stroke="white" stroke-width="0.5"/>
<path d="M22.4434 376.099L23.9951 376.615L24.5386 376.269L25.488 376.929L26.3326 376.563L28.2314 377.642L30.104 376.772L30.857 378.028L31.9635 378.192L31.9111 377.583L32.9522 376.746L33.607 376.916L33.7641 376.151L34.2355 376.615L35.1784 376.321L35.4141 377.093L36.2522 375.942L37.8171 375.7L40.4623 373.535L41.4902 374.038L42.6688 372.456L43.2581 372.861L43.9783 371.913L45.4057 372.129L45.8706 370.742L46.3551 371.311L47.9723 370.722L47.7301 371.618L49.5176 370.415L50.8664 371.082L52.0515 372.992L52.5491 372.593L53.4461 373.28L55.5151 373.084L55.6133 373.921L56.111 374.509L57.2306 374.522L57.2895 375.183L59.5157 373.986L59.8234 377.001L60.9954 377.197L61.2246 377.878L60.3407 378.244L59.9937 380.35L61.074 380.991L60.2949 382.103L58.6514 382.848L58.8282 383.646L60.4127 384.725L60.4716 386.478L63.1496 387.093L63.6538 388.074L65.0811 387.721L64.4395 392.554L63.5032 393.562L62.3835 393.522L62.7044 394.117L61.9187 394.686L61.8925 395.491L61.2246 394.863L60.4324 396.112L61.0151 397.061L60.7139 398.192L63.4704 401.207L63.4508 402.162L61.9317 402.143L60.5829 403.961L58.5794 403.006L56.5627 403.941L55.9931 402.98L54.8735 403.608L53.5574 402.234L52.6604 402.411L53.0271 401.58L52.405 401.371L51.6913 401.829L52.0449 402.914L50.6372 404.065L49.4586 400.468L49.7467 399.121L48.8366 399.324L47.2194 397.904L46.6694 398.349L45.242 397.041L43.8801 397.937L42.5182 397.067L41.5885 397.708L42.5902 399.742L41.4837 401.502L39.1593 400.514L37.4438 400.795L36.3177 399.33L37.1361 398.14L36.8218 397.355L35.6367 397.505L35.3748 395.36L34.1766 394.778L34.5629 393.431L32.2254 392.057L31.1385 390.808L31.276 389.905L30.2612 389.16L30.1368 388.584L31.1451 388.996L31.6689 387.963L30.929 387.773L31.0403 386.701L29.1219 385.628L29.6391 384.176L24.4862 380.899L23.0065 381.671L21.9196 381.259L21.4678 377.433L22.4434 376.099Z" fill="#CCCCCC" stroke="white" stroke-width="0.5"/>
<path d="M268.815 275.933L268.488 275.278L266.635 274.991L266.085 273.794L266.904 273.715L267.002 273.127L265.182 272.46L265.882 269.745L264.285 269.83L264.271 269.287L264.834 269.301L265.529 267.633L265.352 266.109L264.933 264.762L263.911 264.225L264.186 262.924L263.152 260.556L265.208 259.994L265.142 257.188L264.219 256.351L264.782 256.076L264.311 254.617L264.965 253.846L264.605 253.074L263.577 253.087L263.211 251.125L264.265 250.785L264.415 249.849L265.627 249.208L264.979 247.011L266.864 245.101L266.714 244.375L269.149 244.526L271.297 243.263L271.068 242.871L274.728 243.132L275.455 241.314L276.181 241.831L277.065 241.537L277.268 242.276L278.126 241.36L279.475 241.85L281.184 240.248L281.786 240.719L283.102 240.176L282.408 241.223L284.674 239.954L285.846 237.599L289.185 238.757L292.243 236.245L293.022 236.926L293.146 238.129L294.213 237.482L294.508 238.763L295.772 238.6L296.341 239.365L296.603 238.606L297.487 238.535L297.258 237.612L297.664 237.697L297.913 237.769L297.9 237.292L299.262 237.612L299.746 239.398L300.971 238.816L302.385 241.314L303.851 240.549L305.482 242.348L304.755 244.002L306.49 244.787L307.413 247.004L307.158 249.117L306.457 249.169L306.366 250.294L307.23 251.91L306.065 253.414L306.621 253.695L306.818 252.865L307.708 255.533L309.895 256.292L309.64 255.258L310.681 255.376L310.707 254.526L312.475 253.545L312.252 252.825L314.537 253.591L314.432 252.865L315.414 251.713L316.586 252.989L316.298 253.787L317.359 253.087L318.485 254.009L318.06 254.454L320.43 255.128L320.574 256.449L321.157 256.481L321.419 257.292L322.473 256.259L323.265 256.351L323.605 257.338L326.205 257.292L326.572 256.815L329.669 257.796L330.742 257.227L331.024 257.757L331.436 257.227L332.955 257.292L333.591 256.292L336.57 256.606L338.776 255.487L339.3 255.697L339.261 256.828L340.426 257.05L340.668 255.612L341.637 255.507L341.173 254.944L342.397 254.035L342.05 252.923L343.091 252.269L341.899 250.222L344.178 250.144L343.608 249.104L344.453 248.751L344.905 247.214L346.358 247.057L345.906 246.468L346.247 245.716L349.423 245.977L350.765 246.762L351.773 246.455L354.032 247.528L354.058 247.842L354.412 248.384L354.785 247.371L356.71 245.807L359.172 245.735L359.46 244.774L362.95 244.656L363.218 243.754L364.187 243.244L365.385 243.819L366.178 245.265L368.849 245.068L369.857 243.381L369.583 242.086L370.971 243.132L370.185 244.46L371.219 246.854L373.655 247.384L376.052 249.261L378.841 249.712L380.196 250.634L381.1 252.472L380.504 254.598L380.89 256.619L381.486 256.992L381.309 259.117L384 263.722L381.925 271.158L382.069 273.781L381.42 274.108L381.303 276.77L379.293 281.897L378.716 282.211L378.808 283.565L378.225 283.781L377.819 285.894L374.585 289.595L374.893 290.505L373.721 293.677L372.483 293.775L371.527 293.134L370.61 293.585L370.008 292.323L369.249 292.519L366.348 291.217L367.068 288.621L367.723 288.098L367.618 286.378L364.829 287.568L364.096 287.234L365.471 282.767L364.037 281.211L362.799 281.623L362.655 280.753L361.287 280.393L361.411 278.784L361.031 280.315L359.453 279.471L357.587 280.615L356.553 280.073L356.415 279.301L355.603 278.876L354.621 279.301L353.122 278.215L352.506 279.268H351.917L352.434 280.053L352.225 280.903L351.374 281.302L351.341 282.695L352.349 283.389L354.071 282.865L354.209 283.618L353.155 284.121L353.731 284.507L353.469 284.854L357.07 286.077L356.645 288.588L355.099 288.346L355.067 288.948L353.168 289.524L351.623 288.791L350.234 289.295L349.842 291.087L344.191 293.33L343.707 294.252L341.736 294.775L340.06 293.742L338.586 294.533L337.873 295.671L336.327 295.482L335.771 297.084L336.242 298.68L334.73 298.804L334.501 299.798L331.207 299.262L329.675 299.831L329.099 299.393L328.28 300.472L326.499 299.53L323.913 300.943L322.067 300.642L320.731 301.244L321.419 303.101L320.188 304.651L320.659 305.587L319.467 306.169L318.236 307.941L316.089 307.084L315.054 305.116L314.282 304.887L314.478 306.365L312.331 307.686L312.226 309.485L310.89 309.805L310.373 308.661L309.07 308.674L306.903 314.469L304.519 314.253L304.251 313.481L302.326 314.711L300.087 314.05L299.622 318.059L297.932 319.982L296.322 320.427L296.544 321.029L291.202 317.333L290.822 319.191L290.193 318.02L287.699 319.119L286.494 321.415L285.093 320.139L278.401 321.441L277.34 323.141L277.452 324.534L276.581 324.181L275.455 325.051L275.023 326.281L273.68 326.333L273.674 328.223L272.495 328.746L271.736 330.211L272.037 331.539L270.819 331.559L270.996 333.043L270.505 333.809L271.146 334.77L270.505 335.476L271.068 336.039L269.11 335.777L268.481 334.489L269.267 332.913L267.008 331.284L267.251 330.46L268.115 330.983L267.65 329.662L265.391 329.544L265.345 327.36L264.71 326.307L261.227 326.575L260.847 325.568L258.994 325.672L258.948 326.078L256.905 324.214L256.074 324.449L256.316 321.99L255.537 321.244L254.908 321.532L255.079 320.721L253.828 319.707L254.018 319.125L252.826 318.896L252.649 318.072L254.182 317.189L254.908 317.732L254.47 316.607L255.589 315.567L254.195 314.129L254.175 313.18L252.361 313.573L251.608 312.238L252.224 311.283L254.057 311.009L253.926 309.158L256.473 307.555L256.283 306.777L257.082 305.933L257.848 306.555L257.141 307.202L258.568 308.595L257.802 310.289L258.221 311.414L259.374 311.375L260.212 311.055L260.362 309.714L261.286 309.563L262.215 310.296L263.826 309.681L263.734 309.197L262.693 309.243L263.263 306.228L264.965 307.294L265.358 305.639L268.017 306.195L268.082 305.253L270.243 304.004L270.374 302.637L267.938 301.97L267.604 300.518L268.409 299.766L268.102 299.144L266.439 299.086L266.969 297.248L268.148 297.568L269.077 296.149L268.992 295.632L267.604 295.737L267.467 293.67L268.652 294.357L269.104 293.395L269.549 293.958L269.411 293.055L269.791 293.755L271.493 293.5L271.539 292.558L272.62 291.486L273.824 291.826L274.368 291.204L274.525 292.434L275.402 292.199L275.546 290.779L277.177 288.804L278.303 288.928L278.159 288.307L278.728 287.973L279.442 288.444L282.925 287.823L283.672 288.268L284.307 287.169L283.043 285.848L282.369 282.1L281.027 282.787L278.997 281.917L279.593 281.466L279.508 280.269L278.493 280.105L278.172 280.74L278.008 277.712L277.295 277.502L276.594 277.522L276.064 276.364L274.112 276.94L273.431 276.299L272.102 276.587L271.899 275.573L271.068 275.063L268.815 275.933Z" fill="#CCCCCC" stroke="white" stroke-width="0.5"/>
<path d="M240.261 144.202L241.911 144.045L241.335 145.89L243.45 146.132L244.17 148.264L246.154 147.459L247.987 149.428L250.41 149.997L250.587 150.795L249.493 152.142L249.998 152.953L251.464 152.973L252.394 153.987L256.126 155.301L257.933 154.301L261.652 155.236L262.15 154.039L262.228 156.825L265.109 155.085L265.378 155.779L266.753 156.23L267.761 160.108L267.427 161.155L266.203 161.273L265.725 163.274L266.275 164.268L265.306 166.067L265.81 165.936L265.672 166.531L266.419 167.048L266.203 168.062L266.923 168.611L266.668 171.521L266.589 172.175L265.463 172.888L264.101 172.45L264.527 175.93L263.021 178.971L264.167 178.35L264.946 178.814L263.99 180.096L264.762 181.325L266.131 180.985L267.146 179.586L268.291 181.038L267.866 181.384L268.331 181.999L270.819 181.299L269.915 181.881L270.838 182.607L269.064 185.832L269.391 186.296L268.442 186.911L269.555 187.454L269.241 188.86L269.739 189.416L268.822 190.26L269.856 191.568L268.573 193.615L267.277 197.984L268.39 198.808L267.872 199.148L269.437 199.606L267.349 200.724L267.316 202.582L266.497 202.562L266.137 203.609L267.944 206.094L268.514 207.991L270.092 208.815L272.004 211.823L273.255 212.124L275.18 213.929L275.815 213.877L276.28 212.706L277.032 212.785L277.504 214.106L279.396 214.858L279.56 215.996L282.585 216.232L282.67 215.578L283.927 215.401L284.405 214.165L285.04 214.217L288.556 215.924L289.571 217.54L292.288 217.193L292.596 219.404L294.01 219.476L294.135 219.933L295.405 219.129L297.016 219.404L296.931 220.247L297.723 220.385L297.651 221.817L300.676 221.784L300.414 223.119L299.956 223.112L300.506 223.727L302.175 223.936L303.786 223.007L304.572 223.145L305.135 224.42L303.858 224.721L305.567 228.096L304.945 230.627L305.645 231.772L305.154 232.184L306.523 234.093L305.154 234.479L305.488 235.702L304.958 236.239L300.97 238.816L299.746 239.398L299.261 237.612L297.9 237.292L297.913 237.769L297.664 237.697L297.258 237.612L297.487 238.534L296.603 238.606L296.341 239.365L295.772 238.6L294.508 238.763L294.213 237.481L293.146 238.129L293.022 236.925L292.242 236.245L289.185 238.757L285.846 237.599L284.674 239.954L282.408 241.222L283.102 240.176L281.786 240.719L281.184 240.248L279.475 241.85L278.126 241.36L277.268 242.275L277.065 241.536L276.181 241.831L275.455 241.314L274.728 243.132L271.068 242.871L271.297 243.263L269.149 244.525L266.714 244.375L266.864 245.101L264.978 247.011L265.627 249.208L264.415 249.849L264.265 250.785L263.211 251.125L263.577 253.087L264.605 253.074L264.965 253.845L264.311 254.617L264.782 256.076L264.219 256.35L265.142 257.188L265.208 259.993L263.152 260.556L264.186 262.924L263.911 264.225L264.933 264.761L265.352 266.109L265.528 267.633L264.834 269.3L264.271 269.287L264.284 269.83L265.882 269.745L265.181 272.459L267.002 273.127L266.903 273.715L266.085 273.794L266.635 274.991L268.488 275.278L268.815 275.932L267.427 279.373L268.966 279.268L269.143 280.543L267.25 282.937L266.628 284.343L267.041 284.84L266 285.907L265.967 284.448L265.018 284.526L264.703 283.487L263.944 284.526L260.834 283.369L257.75 284.049L257.318 282.479L255.779 282.322L255.792 280.432L254.692 279.732L253.455 280.053L252.473 278.254L248.616 278.738L247.647 278.359L246.973 279.104L245.873 277.417L244.55 277.201L244.452 275.743L243.214 274.533L241.905 274.474L241.073 275.416L240.635 274.487L239.181 274.036L237.983 275.076L235.554 275.102L234.552 274.317L234.774 273.355L234.139 272.152L234.925 271.975L235.567 270.896L234.964 270.609L234.932 269.124L234.192 269.143L233.832 267.992L231.658 268.352L231.632 267.476L230.61 267.26L231.193 265.631L231.9 266.194L232.712 265.736L234.473 262.577L235.18 262.243L232.66 259.823L233.17 259.196L231.998 258.999L231.867 256.566L229.687 256.272L228.639 254.611L225.641 255.526L225.601 254.905L224.495 254.401L223.225 255.075L221.208 255.082L217.849 253.303L217.351 253.924L214.948 254.107L215.728 253.61L213.868 253.133L213.724 251.105L213.691 250.896L214.137 249.797L212.159 247.259L213.017 246.115L211.563 244.813L210.941 245.003L210.961 244.604L210.738 243.394H210.516L210.856 241.818L212.329 242.524L212.611 241.765L211.675 241.242L211.982 240.738L210.49 241.144L209.278 239.731L207.7 240.398L207.393 239.313L205.454 238.652L205.009 239.162L202.783 239.143L201.506 237.377L201.48 234.564L199.968 232.883L199.765 231.379L198.206 230.614L197.525 227.762L198.062 226.095L197.519 225.859L197.663 225.238L199.974 223.727L200.668 222.406L200.629 221.202L199.188 220.372L199.136 219.201L200.721 217.899L199.483 217.88L198.848 216.572L197.971 216.755L197.015 214.734L198.357 214.034L198.58 214.57L199.614 214.446L200.93 213.282L200.622 212.255L202.777 211.666L208.159 211.882L210.418 210.993L213.855 211.202L214.104 209.233L212.762 208.645L212.919 208.069L214.366 207.912L216.795 205.97H217.155L217.784 203.347L216.081 203.013L215.839 201.62L216.507 200.724L218.425 200.168L218.844 199.56L218.104 198.703H217.725L217.469 196.983L216.448 196.722L215.78 195.531L216.795 194.668L216.782 194.485L214.595 191.908L216.801 191.725L218.15 190.94L218.412 189.645L216.756 188.906L216.382 188.579L215.917 188.697L215.937 187.912L212.539 183.791L213.004 181.541L214.3 181.038L215.243 181.378L215.642 181.424L212.683 176.486L212.768 174.988L214.097 174L214.294 172.64L211.93 173.595L208.682 167.95V167.787L208.139 166.269L206.875 166.44L206.653 164.118L205.121 161.639L205.579 157.59L209.796 156.649L210.346 157.348L211 156.662L212.794 156.864L214.765 154.686L214.948 153.091L215.518 152.829L219.44 152.744L219.42 153.758L221.81 153.287L224.521 153.784L225.274 154.994L227.435 154.34L227.605 155.347L228.358 155.112L232.175 153.28L234.342 151.253L236.248 150.795L235.842 149.402L236.536 146.295L238.494 146.746L238.631 145.85L240.261 144.202Z" fill="#CCCCCC" stroke="white" stroke-width="0.5"/>
<path d="M119.38 71.8849L118.489 72.5259L119.301 72.6305L118.895 73.6704L118.142 72.5847L118.725 71.7018L119.38 71.8849ZM110.207 44.5525L111.058 44.6899L110.868 45.2458L111.745 46.1549L110.475 47.2472L109.401 46.2661L108.727 44.4414L109.552 43.4407L110.207 44.5525ZM218.68 38.9867L222.36 39.6734L224.842 40.903L228.358 48.189L225.594 47.4827L223.486 47.8358L223.408 47.3322H224.855L223.237 46.7632L222.255 47.3911L223.087 47.7443L222.7 48.2086L220.298 48.1629L219.23 47.6462L219.525 46.0176L218.903 44.9254L217.96 44.6114L216.212 45.2524L217.246 46.2988L215.603 45.3178L215.668 42.3811L216.467 40.5433L217.777 38.8297L218.68 38.9867ZM110.567 38.797L109.971 41.5963L109.205 38.1626L110.567 38.797ZM124.127 37.4366L124.952 37.8617L124.356 38.156L122.994 37.5282L124.127 37.4366ZM119.485 37.0572L119.229 39.3333L118.457 39.7127L119.098 39.8958L118.823 40.4844L119.373 41.145L118.777 40.5956L118.024 41.6486L115.844 41.8841L114.679 40.3994L114.639 38.9343L119.485 37.0572ZM113.232 35.5595L114.063 37.018L112.983 37.103L111.32 35.6838L113.232 35.5595ZM120.807 31.1643L120.447 32.0146L119.714 31.7988L119.93 31.184L120.807 31.1643ZM117.75 29.8497L117.082 31.1774L114.463 31.5698L112.944 32.7602L112.184 32.1781L112.675 31.426L116.656 30.4776L117.769 29.4246L117.75 29.8497ZM120.139 27.9072L119.629 28.8883L118.502 28.7575L119.707 27.299L120.139 27.9072ZM106.042 31.2036L105.97 31.7922L106.841 32.0408L106.029 32.3874L106.658 32.976L105.073 33.2704L102.16 29.2153L105.087 25.847L104.189 27.6325L105.152 30.458L106.042 31.2036ZM111.988 22.7992L114.548 23.5579L114.391 24.7482L115.065 25.5134L113.729 28.3323L110.266 28.2996L106.717 26.7496L106.56 25.4677L107.902 23.4597L111.988 22.7992ZM108.341 1.47745L109.5 1.86987L106.599 1.96144L106.789 2.61548L107.909 2.75937L108.439 4.10669L106.016 5.36245L104.798 7.51424L105.525 12.4719L107.869 13.9892L115.117 13.3025L116.551 12.4784V11.5693L118.411 11.517L120.375 12.7858L122.385 12.897L123.904 11.929L125.901 12.5961L127.518 12.0402L129.561 12.2037L133.791 14.4013L137.818 14.3293L141.596 15.9579L142.178 18.8749L143.154 18.7376L144.045 19.5093L144.523 19.0711L146.107 19.6074L147.731 16.9063L148.85 16.5923L149.996 18.8684L149.983 20.4446L151.267 17.9658L152.596 17.9789L153.309 16.8932L155.627 15.5393L156.347 14.1331L157.356 14.0939L156.413 16.1018L157.055 17.4099L164.931 19.8756L167.446 23.0215L168.401 23.0608L169.168 21.6938L169.632 22.2825L169.626 19.8494L171.767 21.1314L173.083 25.5265L175.126 27.8549L174.995 28.8621L174.713 27.4821L173.502 27.796L173.967 29.6012L175.034 29.0256L174.196 29.6797L175.015 29.9151L174.713 37.5412L172.094 40.9684L168.146 43.0548L166.634 43.0483L167.989 44.9254L169.986 44.6114L170.765 43.9574L170.392 43.892L178.838 42.2961L181.948 44.3956L180.698 45.8606L181.549 49.1178L180.325 49.4775L180.056 50.6547L179.552 50.5828L180.154 52.8392L179.146 54.6967L180.501 53.2644L181.287 53.5456L180.639 53.1728L180.999 51.1453L181.726 50.7594L181.628 49.8764L183.048 47.378L185.275 47.0837L185.956 46.1353L187.114 45.8279L190.179 46.6651L193.636 49.1047L198.605 50.9621L202.927 55.1742L206.521 54.6182L212.408 49.6606L216.068 49.8045L214.431 50.1054L216.349 50.6482L218.608 49.9745L218.968 48.9935L219.99 48.5095L219.846 49.1897L220.232 48.8038L220.789 49.2616L220.54 50.3539L218.477 52.2964L218.582 51.7012L217.678 51.7274L217.868 52.3422L218.301 52.1787L219.178 62.8003L213.292 66.8815L209.887 70.8057L207.798 70.4983L207.34 69.2884L206.574 71.5448L204.924 73.3957L206.312 76.9341L209.874 77.3985L210.476 78.301L210.371 79.7138L211.262 79.8838L210.83 82.2645L213.835 83.3241L211.576 83.9977L211.223 83.3698L211.622 82.7878L210.293 82.1141L208.793 84.0501L207.628 84.292L206.98 85.5413L205.755 85.7963L204.799 87.2941L205.821 91.4342L205.376 93.115L205.199 94.3119L207.15 95.2995L207.425 96.5226L209.029 97.8241L212.061 98.0138L211.936 98.6744L212.853 99.0407L213.279 101.598L212.323 102.952L211.543 107.02L209.029 107.491L208.545 106.667L207.864 106.784L208.342 109.054L207.536 110.571L207.975 111.068L206.397 111.284L205.114 113.201L202.842 113.534L202.442 115.104L200.812 114.731L199.954 115.215L199.241 120.205L198.37 121.468L197.728 121.769L194.408 120.794L189.301 117.301L187.337 117.236L186.394 116.634L187.134 115.555L185.726 115.333L183.579 113.214L182.335 110.519L181.339 111.127L180.272 110.401L179.807 106.843L181.817 105.96L181.49 104.096L182.773 102.599L181.503 102.265L181.831 101.604L181.241 100.519L179.519 99.5116L180.2 98.6286L180.095 97.6737L181.143 97.314L181.562 96.2937L181.621 95.8032L180.56 95.2603L178.576 97.0328L176.887 96.5422L176.337 97.2224L176.769 97.6672L176.232 99.5181L173.456 99.2957L172.625 101.735L169.6 101.31L168.932 103.37L166.666 105.921L165.154 105.391L165.023 104.109L164.015 103.789L163.956 102.749L162.247 108.008L159.87 107.425L154.73 103.782L152.871 98.3866L149.538 95.2668L146.971 90.0345L144.87 87.1829L140.502 85.332L131.951 85.6982L131.303 84.4817L129.935 83.9977L127.846 81.447L126.883 78.2618L126.013 77.3134L126.864 76.6202L125.973 77.1499L124.834 75.1813L123.655 75.1159L126.766 73.5919L128.494 73.9386L128.167 74.658L128.717 74.6515L128.736 74.1152L128.998 74.6253L130.039 74.3637L131.152 72.8071L131.113 72.3754L130.059 72.3035L130.884 71.9176L129.627 70.3937L130.131 70.2302L129.561 70.2236L128.776 67.5748L127.446 67.3916L125.954 68.4054L126.111 67.6663L125.855 68.4185L123.813 64.7101L125.155 60.4196L125.083 56.7766L124.546 56.1618L122.765 56.8943L121.148 56.116L119.681 56.3318L118.352 57.9277L116.977 57.2867L115.196 54.6706L115.556 56.0506L114.692 55.2723L115.451 56.5607L114.253 54.9387L115.373 51.6293L115.969 51.4527L115.687 52.2114L116.787 52.6888L117.344 51.6947L118.81 51.4004L118.195 51.6423L118.843 50.3473L118.182 50.7201L117.311 50.3408L117.108 50.8248L115.314 50.4978L115.838 49.1178L124.317 47.293L126.412 47.7966L128.481 46.3839L130.118 44.2255L131.84 43.8462L132.082 42.8717L133.32 43.3949L133.876 42.9305L133.005 43.1987L131.892 42.6755L132.03 41.3674L131.113 39.7977L130.085 40.419L128.887 43.4145L128.304 43.2314L128.651 43.4668L127.486 44.134L125.292 44.0882L123.688 43.3687L124.179 42.2438L123.669 41.3478L126.53 38.8755L126.36 36.6517L126.87 34.6177L127.309 34.5784L126.366 34.2383L126.766 33.3685L126.157 34.2056L124.002 34.2383L123.813 33.7478L125.751 32.7406L125.122 32.8976L124.153 30.2225L121.259 28.28L120.945 26.1021L118.935 25.0818L118.771 24.6043L119.53 24.0942L119 21.8835L115.307 16.7755L115.026 13.6688L111.392 13.7669L107.332 16.298L105.794 15.4412L105.25 14.2247L104.248 13.9565L104.019 15.0684L102.585 16.0495L102.513 23.9764L101.773 23.2505L102.454 11.6674L106.547 1.41859L107.286 1L108.341 1.47745Z" fill="#CCCCCC" stroke="white" stroke-width="0.5"/>
<path d="M202.783 239.143L205.009 239.162L205.454 238.652L207.393 239.313L207.7 240.398L209.278 239.731L210.49 241.144L211.982 240.738L211.675 241.242L212.611 241.765L212.329 242.524L210.856 241.818L210.516 243.394H210.738L210.961 244.604L210.941 245.003L211.563 244.813L213.017 246.115L212.159 247.259L214.137 249.797L213.691 250.896L213.724 251.105L213.868 253.133L215.728 253.61L214.948 254.107L217.351 253.924L217.849 253.303L221.208 255.082L223.225 255.075L224.495 254.401L225.601 254.905L225.641 255.526L228.639 254.611L229.687 256.272L231.867 256.566L231.998 258.999L233.17 259.196L232.66 259.823L235.18 262.243L234.473 262.577L232.712 265.736L231.9 266.194L231.193 265.631L230.61 267.26L231.632 267.476L231.658 268.352L233.832 267.992L234.192 269.143L234.932 269.124L234.964 270.609L235.567 270.896L234.925 271.975L234.139 272.152L234.774 273.356L234.552 274.317L235.554 275.102L237.983 275.076L239.181 274.036L240.635 274.487L241.073 275.416L241.905 274.474L243.214 274.533L244.452 275.743L244.55 277.201L245.873 277.417L246.973 279.105L247.647 278.359L248.616 278.738L252.473 278.254L253.455 280.053L254.692 279.732L255.792 280.432L255.779 282.322L257.318 282.479L257.75 284.049L260.834 283.369L263.944 284.527L264.703 283.487L265.018 284.527L265.967 284.448L266 285.907L267.041 284.84L266.628 284.343L267.25 282.937L269.143 280.543L268.966 279.268L267.427 279.373L268.815 275.932L271.068 275.063L271.899 275.573L272.102 276.586L273.431 276.299L274.112 276.94L276.063 276.364L276.594 277.522L277.294 277.502L278.008 277.711L278.172 280.74L278.493 280.105L279.507 280.269L279.593 281.466L278.997 281.917L281.026 282.787L282.369 282.1L283.043 285.848L284.307 287.169L283.672 288.268L282.925 287.823L279.442 288.444L278.728 287.973L278.159 288.307L278.303 288.928L277.177 288.804L275.546 290.779L275.402 292.198L274.525 292.434L274.368 291.204L273.824 291.826L272.619 291.486L271.539 292.558L271.493 293.5L269.791 293.755L269.411 293.055L269.549 293.958L269.103 293.395L268.652 294.357L267.466 293.67L267.604 295.737L268.992 295.632L269.077 296.149L268.147 297.568L266.969 297.248L266.439 299.085L268.102 299.144L268.409 299.766L267.604 300.518L267.938 301.97L270.374 302.637L270.243 304.004L268.082 305.253L268.016 306.195L265.358 305.639L264.965 307.294L263.263 306.228L262.693 309.243L263.734 309.197L263.826 309.681L262.215 310.296L261.286 309.563L260.362 309.714L260.212 311.054L259.374 311.375L258.221 311.414L257.802 310.289L258.568 308.595L257.141 307.202L257.848 306.555L257.082 305.933L256.283 306.777L256.473 307.555L253.926 309.158L254.057 311.009L252.224 311.283L251.608 312.238L252.361 313.572L254.175 313.18L254.195 314.128L255.589 315.567L254.47 316.607L254.908 317.732L254.181 317.189L252.649 318.072L252.826 318.896L254.018 319.125L253.828 319.707L249.716 321.918V321.061L247.817 319.956L247.529 320.558L246.691 320.276L247.149 320.845L246.128 320.636L245.087 321.486L244.838 321.068L241.361 322.042L240.065 321.035L239.135 321.225L238.664 322.18L237.079 322.866L237.02 321.493L235.285 321.179L235.442 319.25L234.683 319.132L233.773 319.923L234.094 319.145L232.83 318.321L232.817 315.083L233.452 315.24L233.681 314.724L233.269 313.945L229.72 313.324L229.766 313.978L228.698 314.122L228.731 315.279L227.886 315.371L227.422 316.274L227.258 315.652L225.621 316.064L225.641 318.007L226.42 319.217L226.047 321.205L227.153 323.808L226.191 324.377L226.806 325.378L226.184 325.326L226.518 327.333L225.778 328.151L226.158 328.465H225.988L225.772 329.786L223.421 328.19L223.218 329.492L222.616 329.701L222.884 328.995L221.378 328.674L220.848 327.752L221.869 325.757L221.038 324.286L220.206 324.547L220.095 323.403L218.995 323.488L218.844 324.371L217.129 324.881L216.828 323.834L215.02 323.488L215.191 324.528L214.654 324.632L212.611 321.728L211.779 321.957L211.465 322.082L210.758 322.507L210.129 321.46L209.547 322.016L208.29 321.722L207.17 322.572L206.371 322.225L205.055 323.959L203.451 323.547L203.333 324.75L203.968 324.848L203.438 326.385L204.525 326.725L205.729 328.184L207.078 328.288L207.19 329.086H207.419L208.84 329.341L208.885 331.349L207.884 331.781L206.993 330.872L205.664 331.539L204.086 330.898L204.014 333.495L203.471 333.933L202.77 333.455H202.554L201.055 332.285L199.824 332.736L198.907 332.271L198.481 331.271L199.044 331.042L198.527 330.126L198.913 329.583L198.226 329.596L198.763 328.21L198.259 327.235L198.58 325.548L196.988 325.273L196.275 323.573L195.771 323.462L195.037 324.475L194.919 323.847L194.068 324.142L194.081 322.834L193.616 322.951H193.309L192.431 321.114L190.048 321.624L189.603 320.649L190.362 319.55L189.046 319.132L189.491 318.641L188.922 318.72L187.632 316.96L187.344 315.096L186.172 315.116L184.24 313.847L183.245 313.978L183.225 312.676L182.256 312.062L182.06 311.159L181.039 311.316L180.875 311.905L179.853 311.283L179.513 311.905L178.079 310.531L176.508 312.349L176.58 312.951L175.296 313.631L175.165 312.775L176.108 311.035L175.1 307.444L175.604 306.607L176.992 306.666L175.801 303.487L173.568 303.14L171.61 303.736L171.414 304.429L172.199 305.436L171.872 306.214L168.389 305.502L168.5 303.546L170.327 301.983L169.724 301.231L171.047 299.033L170.982 297.941L170.281 297.719L170.451 296.724L171.604 296.751L171.198 295.05L171.577 293.631L172.507 292.924L172.776 293.022L173.437 293.323L173.81 292.578L174.687 292.748L175.146 291.544L174.452 291.832L174.498 290.688L176.076 289.582L176.023 289.072L175.532 289.124L175.663 288.405L174.052 286.992L172.37 287.901L173.044 286.338L172.075 286.273L171.63 286.881L171.479 285.645L174.059 286.155L174.57 285.566L174.773 285.959L176.193 285.481L175.349 285.187L175.257 283.977L174.367 283.055L175.192 280.969L177.837 281.57L178.537 281.145L179.677 282.309L182.086 281.315L181.615 280.602L182.525 280.112L182.125 279.503L179.434 277.895L179.984 277.273L179.605 276.24L180.829 274.14L178.531 272.623L180.462 271.707L181.837 274.369L182.368 273.519L181.968 271.825L183.428 269.536L181.706 269.091L180.449 267.79L179.736 268.09L179.336 267.201L178.249 267.561L176.403 266.822L176.783 265.729L175.506 265.03L175.853 263.368L172.383 262.976L172.245 261.923L171.001 261.472L171.381 260.641L170.405 258.332L170.536 256.939L173.568 254.977L173.948 253.937L175.139 253.911L175.48 252.806L176.396 254.074L176.894 252.963L178.171 253.244H178.433L179.965 253.185L179.448 252.367L180.783 252.223L181.327 251.066L180.993 250.628L181.981 249.542L182.584 250.562L183.284 250.575L183.802 249.732L186.008 249.025L186.368 247.658L187.835 247.364L189.406 244.414V244.015L188.981 242.766L191.358 242.452H191.606L194.186 243.734L195.194 245.009L196.943 244.859L198.822 243.296L200.937 244.702L201.31 243.551L200.19 242.975L200.007 241.458L200.603 241.491L200.19 240.608L202.01 240.032L201.729 239.417L202.783 239.143Z" fill="#CCCCCC" stroke="white" stroke-width="0.5"/>
</svg>
