<svg width="801" height="1061" viewBox="0 0 801 1061" fill="none" xmlns="http://www.w3.org/2000/svg">
<path d="M258.47 487.69L242.39 466.42L229.85 461.75L187.97 464.18L168.98 489.75L163.8 494.79L163.25 494.41L162.53 494.23L162.16 494.41L161.44 495.16L160.53 495.91L159.98 496.09L158.89 495.91H158.35L157.44 495.72H156.17L155.35 495.91L154.53 496.47L152.17 497.96L151.62 498.33L150.44 498.89L149.9 499.08H149.35L145.54 502.44L144.26 503.19L143.45 503.56H142.81L142.27 503.93H140.9H140.18L139.54 504.12L137.9 505.24L131.36 507.67L129.27 514.01L120.01 554.7L115.1 566.64L111.47 573.74L107.83 574.86L106.56 575.79L105.65 577.1L104.38 580.46L103.65 582.32L102.65 583.07L104.38 584.93L108.92 587.55L132.18 614.05L152.62 702.88L208.95 691.31L213.95 689.07L236.94 662.94L319.89 630.1L326.98 625.81L352.32 595.2L322.43 534.73L312.98 523.34L308.08 518.86L258.47 487.69Z" fill="#CCCCCC" stroke="white" stroke-width="0.5"/>
<path d="M800.24 666.3L759.04 613.99L694.08 584.01L656.88 571.86L656.87 571.87L651.51 580.46L612.99 627.48L608.45 631.96L584.73 646.89L559.57 656.97L512.59 719.11L497.15 778.08L530.04 788.34L535.22 793.56L541.21 803.26L546.94 842.63L547.94 845.43L568.56 880.88L573.01 890.95L572.92 892.45L576.28 895.06L582.19 896.92L602.27 904.76L611.26 909.24L628.41 933.09L698.94 884.18L789.23 790.75L800.24 666.3Z" fill="#CCCCCC" stroke="white" stroke-width="0.5"/>
<path d="M300.73 199.3L276.28 146.13V146.11L273.1 148.11L84.39 209.73L19.34 253.42L5.62001 256.4L5.51001 256.43L12.95 382.95L13.07 382.98L35.15 388.76L94.11 360.95L170.34 371.22L172.43 249.31L177.06 239.97L180.42 224.29L182.51 223.54L183.7 222.8L184.69 222.42L185.6 222.8L186.69 223.17L187.78 224.29L189.96 225.41L192.42 226.35L195.33 227.28H197.05L198.87 226.72L200.32 226.35L201.96 226.16L204.68 226.53H205.68L206.86 226.35L207.77 226.16L209.04 226.53L211.04 228.03L216.31 227.47L224.67 224.1L239.66 209.54L247.66 204.87L252.75 203.38L254.47 204.31L256.29 204.87L257.56 205.06L258.74 205.99L260.38 206.18L262.47 205.99L268.28 200.77H269.01L269.37 201.14L274.28 202.26L294.72 201.51L300.73 199.3Z" fill="#CCCCCC" stroke="white" stroke-width="0.5"/>
<path d="M295.45 854.76L236.94 662.94L213.95 689.07L208.95 691.31L152.62 702.88L115.28 731.99L112.19 735.35L105.83 740.2L88.4801 747.85L81.3001 752.14L81.1201 752.89L76.7601 750.27L58.7701 733.29L49.0501 734.04L48.8101 734.06L75.1101 826.89L115.75 906.07L162.96 939.71L190.72 941.62H190.75L299.63 883.68L301.17 883.49L300.72 878.64L295.45 854.76Z" fill="#CCCCCC" stroke="white" stroke-width="0.5"/>
<path d="M146.37 1L82.84 24.82L32.9 76.29L8.01 123.63L1 179.65L5.51 256.43L5.62 256.4L19.34 253.42L84.39 209.73L273.1 148.11L276.28 146.11L259.4 109.52L211.04 36.29L146.37 1Z" fill="#CCCCCC" stroke="white" stroke-width="0.5"/>
<path d="M479.75 459.98L479.74 459.97L414.5 409.85L382.15 365.03L382.03 365.06L373.86 366.92L329.43 388.02L318.8 390.82L314.44 388.76L313.44 387.83L312.26 385.96L311.35 385.22L310.44 384.66L309.17 384.47L307.71 384.66L305.71 385.22L294.72 402.95L258.47 487.69L308.08 518.86L312.98 523.34L322.43 534.73L352.32 595.2L399.48 586.61L401.84 586.43L405.11 529.88L405.93 524.84L407.66 518.12H410.74L412.2 517.93L413.74 517.56L471.44 463.62L479.75 459.98Z" fill="#CCCCCC" stroke="white" stroke-width="0.5"/>
<path d="M656.88 571.86L625.26 561.52L572.03 530.66L479.75 459.98L471.44 463.62L413.74 517.56L412.2 517.93L410.74 518.12H407.66L405.93 524.84L405.11 529.88L401.84 586.43L475.62 654.73L482.61 662.57L512.59 719.11L559.57 656.97L584.73 646.89L608.45 631.96L612.99 627.48L651.51 580.46L656.87 571.87L656.88 571.86Z" fill="#CCCCCC" stroke="white" stroke-width="0.5"/>
<path d="M170.34 371.22L94.1099 360.95L35.15 388.76L13.07 382.98L12.95 382.95L29.61 666.3L48.81 734.06L49.0499 734.04L58.77 733.29L76.7599 750.27L81.1199 752.89L81.2999 752.14L88.4799 747.85L105.83 740.2L112.19 735.35L115.28 731.99L152.62 702.88L132.18 614.05L108.92 587.55L104.38 584.93L102.65 583.07L103.65 582.32L104.38 580.46L105.65 577.1L106.56 575.79L107.83 574.86L111.47 573.74L115.1 566.64L120.01 554.7L129.27 514.01L131.36 507.67L137.9 505.24L139.54 504.12L140.18 503.93H140.9H142.27L142.81 503.56H143.45L144.26 503.19L145.54 502.44L149.35 499.08H149.9L150.44 498.89L151.62 498.33L152.17 497.96L154.53 496.47L155.35 495.91L156.17 495.72H157.44L158.35 495.91H158.89L159.98 496.09L160.53 495.91L161.44 495.16L162.16 494.41L162.53 494.23L163.25 494.41L163.8 494.79L168.98 489.75L187.97 464.18L170.34 371.22Z" fill="#CCCCCC" stroke="white" stroke-width="0.5"/>
<path d="M512.59 719.11L482.61 662.57L475.62 654.73L401.84 586.43L399.48 586.61L352.32 595.2L326.98 625.81L319.89 630.1L236.94 662.94L295.45 854.76L497.15 778.08L512.59 719.11Z" fill="#CCCCCC" stroke="white" stroke-width="0.5"/>
<path d="M382.15 365.03L368.14 345.62L300.75 199.35L300.73 199.3L294.72 201.51L274.28 202.26L269.37 201.14L269.01 200.77H268.28L262.47 205.99L260.38 206.18L258.74 205.99L257.56 205.06L256.29 204.87L254.47 204.31L252.75 203.38L247.66 204.87L239.66 209.54L224.67 224.1L216.31 227.47L211.04 228.03L209.04 226.53L207.77 226.16L206.86 226.35L205.68 226.53H204.68L201.96 226.16L200.32 226.35L198.87 226.72L197.05 227.28H195.33L192.42 226.35L189.96 225.41L187.78 224.29L186.69 223.17L185.6 222.8L184.69 222.42L183.7 222.8L182.51 223.54L180.42 224.29L177.06 239.97L172.43 249.31L170.34 371.22L187.97 464.18L229.85 461.75L242.39 466.42L258.47 487.69L294.72 402.95L305.71 385.22L307.71 384.66L309.17 384.47L310.44 384.66L311.35 385.22L312.26 385.96L313.44 387.83L314.44 388.76L318.8 390.82L329.43 388.02L373.86 366.92L382.03 365.06L382.15 365.03Z" fill="#CCCCCC" stroke="white" stroke-width="0.5"/>
<path d="M416.22 1060.6L440.25 1045.32L462 1041.5L484.46 1041.8L512.08 1038.42L587.05 961.74L628.4 933.1L628.41 933.09L611.26 909.24L602.27 904.76L582.19 896.92L576.28 895.06L572.92 892.45L573.01 890.95L568.56 880.88L547.94 845.43L546.94 842.63L541.21 803.26L535.22 793.56L530.04 788.34L497.15 778.08L295.45 854.76L300.72 878.64L301.17 883.49L299.63 883.68L190.75 941.62L237.65 945L316.63 963.65L381.59 1000.96L416.22 1060.6Z" fill="#CCCCCC" stroke="white" stroke-width="0.5"/>
</svg>
