<svg width="590" height="447" viewBox="0 0 590 447" fill="none" xmlns="http://www.w3.org/2000/svg">
<path d="M280.826 349.506L281.716 349.341L282.823 350.725L284.663 350.471L285.643 348.272L286.48 349.095L292.614 349.304L292.599 350.575L291.439 350.553L291.394 351.346L295.919 349.7L295.411 346.387L295.927 345.422L302.501 346.043L302.868 344.944L304.087 345.236L306.174 344.001L306.563 341.803L304.745 340.86L306.622 336.253L310.669 334.428L314.207 335.101L316.174 338.489L318.163 336.754L324.999 336.784L325.792 333.725L329.21 333.763L331.035 332.11L331.357 332.813L332.486 332.506L331.566 333.157L331.491 335.804L332.583 336.941L333.406 339.641L337.318 340.546L339.726 339.761L341.753 340.516L344.521 339.469L345.829 339.91L345.912 338.519L346.817 338.213L346.308 339.394L347.131 340.688L346.48 340.785L346.592 343.366L347.542 343.47L347.991 346.402L345.306 347.674L346.159 349.319L348.245 348.855L349.539 350.658L348.978 351.6L349.524 352.528L347.617 354.569L347.587 355.938L348.29 356.454L349.225 355.407L350.833 357.568L355.246 357.74L356.233 356.933L359.651 356.678L359.621 358.286L361.372 359.371L361.342 358.428L362.292 358.286L362.778 359.229L363.391 358.974L363.608 355.153L364.341 355.699L365.5 354.741L366.301 354.996L367.206 353.081L369.457 353.866L370.167 352.857L371.611 352.7L374.453 355.512L376.555 356.095L376.502 358.526L375.62 359.588L376.772 363.065L377.333 361.869L378.41 361.831L378.612 360.208L379.36 361.203L385.336 360.38L385.366 361.181L389.584 361.248L389.307 359.76L390.063 359.588L390.003 358.787L391.521 359.124L395.552 358.047L395.979 359.468L397.16 356.813L400.339 355.564L402.576 355.923L403.922 354.794L407.003 354.21L407.617 356.678L406.083 357.239L406.854 361.098L404.595 361.644L404.857 363.716L397.781 365.085L398.028 367.022L396.263 367.538L396.839 370.372L396.383 370.888L397.879 371.554L397.033 373.558L398.372 378.173L393.413 378.51L392.321 380.065L393.795 381.725L391.454 381.965L390.018 385.121L387.325 384.986L387.063 386.25L385.725 385.787L385.956 388.464L383.885 388.262L382.95 389.406L381.925 388.943L380.571 389.833L381.17 392.009L380.347 393.445L386.622 396.205L386.697 398.232L387.475 398.254L386.562 399.241L387.938 400.909L388.701 403.617L387.183 404.162L388.492 406.421L384.76 409.33L382.867 408.889L382.621 409.824L383.406 411.836L385.56 413.347L387.415 416.78L387.647 421.177L389.696 423.114L391.85 422.336L392.673 423.451L392.022 424.251L389.158 424.079L389.502 427.661L388.125 427.392L388.028 429.075L386.914 429.748L384.834 429.142L382.351 430.04L378.911 433.263L379.18 434.565L374.221 435.111L375.882 427.445L375.186 425.777L373.167 425.56L371.125 427.729L367.557 427.153L365.5 430.174L362.426 431.296L357.34 435.701L355.785 438.341L352.815 440.78L351.005 444.34L348.799 445.439L348.739 444.385L347.871 444.355L347.946 445.843L347.086 445.289L347.43 444.489L343.713 445.693L341.14 445.454L340.07 443.562L339.562 444.893L338.522 445.402L336.824 444.96L331.402 438.94L331.447 437.668L330.721 436.958L328.687 438.289L326.54 437.444L326.892 436.075L325.62 434.026L324.76 434.737L321.088 435.193L319.667 436.733L316.854 436.21L315.538 439.239L304.513 441.408L302.531 441.169L302.666 439.104L301.888 437.07L297.079 434.258L296.428 434.886L296.376 437.003L294.521 438.648L293.077 438.581L290.871 436.681L288.881 437.122L285.381 440.256L285.538 441.408L287.221 442.919L287.191 444.407L285.426 445.895L283.234 446L283.713 444.018L282.367 443.053L282.187 441.901L278.777 440.78L277.722 439.68L276.353 439.224L275.777 440.106L272.905 440.024L272.142 440.615L270.22 439.987L266.279 441.445L265.239 439.718L264.05 439.546L263.496 438.648L262.33 438.274L261.462 439.022L260.041 438.192L259.024 438.476L258.231 436.494H256.952L255.089 434.393L253.631 429.277L255.104 427.751L255.703 427.953L257.072 424.408L257.917 423.877L258.261 418.036L257.191 413.855L255.635 410.048L254.73 409.353L254.97 406.78L254.095 403.243L252.92 402.472L253.01 401.455L251.604 400.685L251.387 399.391L247.977 399.017L243.579 390.304L241.649 389.967L240.108 387.223L237.79 386.131L238.979 382.249L236.832 378.442L240.138 376.7L239.502 373.775L240.639 370.477L242.479 369.909L242.307 368.301L245.927 366.663L249.375 367.127L249.682 366.528L251.514 366.386L250.856 365.055L249.637 364.816L249.906 361.682L249.076 361.009L251.312 361.338L254.461 358.511L256.944 358.802L256.922 349.73L262.756 348.1L266.982 345.46L268.066 342.251L269.996 341.167L272.509 343.47L272.703 345.527L273.908 347.606L276.899 346.058L278.208 347.808L280.826 349.506Z" fill="#CCCCCC" stroke="white" stroke-width="0.5"/>
<path d="M173.482 174.213L175.771 172.261L176.997 173.159L181.305 167.879L182.861 169.696L185.546 169.778L187.222 168.829L188.882 169.569L190.101 169.098L189.78 170.623L190.64 171.738L189.727 173.054L190.4 173.443L187.85 174.445L189.742 177.085L190.318 177.257L190.902 175.552H192.457L192.876 176.15L192.382 176.928L193.818 176.203L194.305 176.839L198.329 172.987L202.165 172.598L203.871 171.663L205.045 171.633L205.03 172.546L205.958 171.947L205.763 171.14L206.444 170.818L206.728 171.349L209.518 168.462L210.999 170.1L211.268 168.006L211.896 169.06L213.818 169.726L214.379 168.851L212.719 164.072L212.854 163.474L215.052 163.264L214.836 160.759L215.584 160.549L215.008 158.732L217.723 158.171L218.127 160.676L219.824 160.938L227.027 158.68L227.558 157.109L228.291 156.989L227.857 158.964L228.657 159.742L229.51 164.236L230.984 164.393L231.163 165.485L233.093 163.937L232.876 162.785L233.654 162.471L234.058 163.967L238.53 161.327L239.42 161.499L239.712 162.262L241.477 162.524L243.467 164.147L245.591 166.996L245.598 168.866L247.184 168.761L251.073 170.556L250.363 171.753L252.12 172.284L253.115 171.715L253.362 170.489L253.871 170.623L253.033 167.228L255.95 167.034L256.055 166.345L259.039 165.732L259.6 166.824L262.36 168.425L261.507 170.893L262.188 174.355L267.229 174.026L269.031 174.834L271.432 174.692L271.956 173.039L271.133 172.441L273.923 170.736L275.172 168.268L279.368 167.048L279.248 165.822L287.633 162.344L287.505 161.716L290.475 160.549L291.499 161.005L294.888 158.395L297.281 161.641L295.576 162.314L296.219 164.319L298.844 167.37L301.208 168.933L301.305 167.826L303.676 167.527L309.502 173.548L311.619 173.159L310.168 178.05L310.931 178.805L315.426 179.808L316.585 177.96L318.455 178.102L319.756 180.458L321.133 179.83L322.546 177.945L326.383 178.14L326.929 174.094L330.946 175.762L331.125 178.297L335.942 180.069L337.296 177.28L337.924 178.753L340.646 180.548L341.753 180.002L342.419 180.81L343.145 180.212L345.62 181.76L345.403 184.819L348.41 187.384L350.295 187.504L350.1 191.557L347.939 192.44L347.707 194.855L346.241 195.753L346.45 198.819L345.62 199.118L344.783 205.992L348.029 206.291L348.088 208.25L348.836 208.175L347.281 216.335L348.821 216.492L348.791 217.434L350.115 217.577L350.385 216.754L356.42 218.691L354.057 221.802L355.134 223.515L354.947 225.527L355.904 226.873L355.942 228.548L356.316 229.296L360.183 230.096L359.659 231.39L358.223 232.213L360.123 234.389L359.502 234.883L360.355 235.122L360.123 236.065L361.858 238.136L362.83 237.336L363.997 237.688L364.012 240.477L364.939 241.345L364.476 242.773L365.291 242.953L364.939 244.082L366.076 243.596L366.151 244.149L367.221 244.202L368.739 245.929L368.814 248.136L370.175 248.487L369.337 249.564L368.305 249.549L367.849 250.417L368.739 250.94L368.455 251.673L364.349 252.369L364.85 255.084L362.18 256.056L362.06 257.724L360.878 258.905L363.623 261.86L367.587 261.807L369.45 264.881L373.421 266.616L374.573 269.9L378.574 269.152H380.497L382.172 271.493L385.298 272.779L386.66 274.17L386.547 276.631L385.59 277.356L384.55 277.805L383.601 276.593L383.099 277.341L381.102 277.423L381.402 278.067L380.646 278.313L381.948 287.782L381.073 288.044L381.23 287.213L380.317 287.371L379.539 288.687L378.41 287.662L378.253 288.844L374.094 289.375L369.876 292.142L369.637 295.844L368.627 297.348L369.195 298.769L369.756 298.701L370.018 300.444L368.627 300.698L368.814 303.331L367.954 303.832L368.35 305.051L367.385 305.933L368.335 307.28L367.984 308.454L366.637 309.06L364.745 308.798L363.668 306.816L361.581 306.606L361.432 305.933L360.542 306.038L361.02 308.544L360.213 310.63L356.196 308.716L353.264 309.321L353.257 310.249L352.815 310.062L351.177 312.53L351.32 315.716L352.838 320.143L350.646 321.542L352.569 321.527L353.713 325.416L352.868 325.88L352.187 325.087L351.125 327.174L350.145 326.912L349.158 328.116L347.879 327.136L348.186 332.865L346.817 338.213L345.912 338.519L345.83 339.91L344.521 339.469L341.753 340.516L339.726 339.761L337.318 340.546L333.406 339.641L332.584 336.941L331.492 335.804L331.566 333.157L332.486 332.506L331.357 332.813L331.035 332.11L329.21 333.763L325.792 333.725L325 336.784L318.163 336.754L316.174 338.489L314.207 335.101L310.669 334.428L306.623 336.253L304.745 340.86L306.563 341.803L306.174 344.001L304.087 345.235L302.868 344.944L302.502 346.043L295.927 345.422L295.411 346.387L295.92 349.7L291.395 351.346L291.44 350.553L292.599 350.575L292.614 349.304L286.481 349.095L285.643 348.272L284.663 350.471L282.823 350.725L281.716 349.341L280.826 349.506L283.885 345.445L284.312 343.194L281.081 339.806L280.011 335.154L275.651 336.627L271.903 329.305L275.262 327.622L272.719 323.382L269.832 323.644L270.22 322.297L268.553 322.484L268.276 321.385L272.719 319.717L271.036 318.7L270.983 317.391L272.973 316.008L272.509 313.166L269.315 308.177L272.15 305.814L269.435 301.027L270.46 298.439L268.784 297.557L263.856 298.903L264.05 298.2L266.967 296.899L270.37 292.075L266.159 287.73L267.274 286.368L266.047 285L268.223 281.739L259.48 275.157L256.63 276.406L256.331 277.685L255.389 277.723L255.509 276.683L253.654 276.421L253.22 275.748L253.601 274.275L253.1 274.2L252.801 269.728L244.671 265.629L245.479 264.515L246.616 264.724L249.959 261.082L256.638 259.863L258.141 259.01L258.298 258.21L262.965 256.557L264.035 255.652L263.998 251.479L260.841 249.691L253.811 248.921L248.343 244.845L246.668 244.516L249.525 242.564L250.505 239.587L253.437 235.504L253.474 229.087L256.264 221.503L251.238 220.007L251.006 218.923L247.685 220.404L246.81 219.237L245.127 219.932L243.168 218.796L243.347 215.333L242.427 214.495L237.55 215.213L237.049 214.652L236.204 216.073L234.102 216.193L232.719 215.198L227.58 215.669L227.438 214.966L226.339 215.752L224.544 215.699L224.207 214.301L225.232 213.725L225.202 212.08L224.409 209.477L223.631 210.472L221.634 209.821L220.445 211.309L218.171 211.78L213.654 210.733L212.487 213.044L206.264 212.678L205.86 211.728L208.171 208.602L206.219 206.971L203.302 206.074L204.29 201.414L200.393 202.559L199.525 200.824L198.665 201.227L199.256 202.821L195.658 203.307L195.546 205.199L193.848 205.042L193.228 206.725L192.442 207.076V203.696L190.438 202.432L190.393 200.435L186.975 201.257L184.963 200.33L185.105 197.563L186.952 196.246L186.803 192.963L185.554 190.51L184.185 190.031L181.455 190.914L180.767 189.014L178.949 189.104L178.456 187.174L179.727 185.836L179.563 182.852L178.239 182.747L177.656 183.816L175.292 184.288L173.796 178.611L172.689 177.773L174.828 176.382L175.008 175.223L173.482 174.213Z" fill="#CCCCCC" stroke="white" stroke-width="0.5"/>
<path d="M33.2736 211.137L32.7425 211.362L32.4733 210.539L33.2736 211.137ZM33.67 210.3L32.5406 210.314L32.3013 208.916L34.0813 209.686L33.67 210.3ZM33.4232 209.088L32.4733 208.422L33.0716 208.123L33.4232 209.088ZM34.2534 208.811L34.6797 209.036L33.9692 209.417L33.2511 208.071L34.2534 208.811ZM34.6498 208.669L33.8719 207.884L34.373 207.113L34.6498 208.669ZM15.7793 131.329L19.1076 138.516L18.5093 142.196L19.2796 150.767L18.6514 160.101L17.1256 169.12L17.5743 171.671L16.5646 173.234L14.7247 180.107L16.4823 182.007L16.804 183.712L14.4255 185.507L15.0613 186.651L13.1914 188.775L13.4083 190.48L11.3889 193.113L11.905 195.955L10.9625 198.326L11.6133 199.889L7.44724 202.536L6.71426 203.815L7.03587 204.705L5.20342 205.528L5.96632 207.016L4.2311 207.906L3.89452 208.886L1.46372 208.534L1 208.407L4.50783 201.736L10.237 186.823L12.6679 178.843L14.7247 168.462L15.7868 160.953L16.415 146.608L14.9042 130.409L15.7793 131.329ZM101.68 13.46L102.817 13.7815L102.361 15.5092L102.817 17.5584L101.785 18.2989L98.9352 18.1568L98.5088 24.1624L103.086 24.6111L102.308 33.1671L103.071 33.3316L103.647 36.1512L104.597 36.6523L105.195 39.7037L104.305 40.7658L106.863 43.3834L106.736 46.0384L101.957 45.1784L101.329 49.3741L100.02 49.4489L99.1371 57.3841L97.6861 58.9921L98.0675 59.7998L97.3495 60.9067L95.7489 60.3009V59.4258L90.3488 58.6032L90.4311 57.5262L88.838 57.3093L88.1873 58.6705L89.384 59.9793L89.9973 63.7562L83.393 61.2133L83.191 61.7518L80.7902 61.4826L78.681 67.0095L76.3848 66.5084L74.298 72.6188L73.6099 72.7235L73.9465 73.5462L73.1387 73.6883L70.5135 79.9557L68.9727 79.5967L68.0453 80.3446L66.0034 78.7216L62.9518 78.7964L61.7626 81.6534L65.2929 83.1866L62.7723 88.8332L63.5427 90.4562L63.6549 94.6743L61.8748 94.7267L62.3759 96.5067L63.2061 96.2225L64.8142 97.0751L67.2001 99.603L66.0931 100.687L64.4851 100.366L63.1687 102.071L63.7745 103.193L63.408 104.472L62.0169 104.24L60.2966 105.145L60.2368 106.888L58.539 106.693L58.0977 107.261L58.7035 110.118L57.4545 109.341L55.6519 114.03L60.3565 116.992L61.4858 115.645L62.346 115.683L62.1291 113.319L63.3183 113.252L64.0961 115.915L65.9959 116.745L66.1979 117.882L67.3646 118.502L66.8934 120.365L67.4918 121.023L68.4342 120.754L68.2771 121.501L67.4843 121.412L67.2973 124.553L69.3542 125.099L70.9921 122.975L75.8612 125.435L76.6914 124.269L77.2599 125.548L78.4865 125.069L79.2644 123.192L81.1267 124.343L81.2165 129.093L80.2367 129.833L79.7056 132.174L81.0519 133.61H82.675L83.6174 135.061L85.7565 134.597L86.0182 135.113L84.1858 136.796L84.0287 138.987L82.8395 140.423L83.2808 143.378L82.0317 143.078L82.0916 144.477L83.4005 146.122L84.5523 146.302L84.8141 150.557L88.651 149.301L93.4602 153.287L92.1738 155.105L93.0115 156.092L90.8051 157.52L90.117 157.206L89.4064 158.478L88.6286 158.35L86.4296 161.439L86.8784 161.866L88.651 160.968L89.1297 161.551L87.4393 163.279L87.5814 167.086L88.9726 170.855L90.2815 170.272L91.8372 176.076L92.3159 183.442L93.3032 183.51L97.2897 181.259L101.815 183.944L105.143 183.33L106.033 185.649L106.803 185.529L107.439 187.952L107.08 190.218L104.485 194.182L104.044 196.045L100.992 198.812L100.88 200.053L99.5185 200.809L94.8888 207.375L94.096 209.776L99.2119 211.578L102.278 211.668L104.29 213.77L108.778 215.939L107.866 218.302L109.885 222.797L111.314 228.668L115.883 227.898L120.162 228.421L121.194 227.479L124.014 230.672L127.02 230.081L131.156 231.48L133.916 231.308L136.085 233.26L135.165 233.888L133.654 232.998L132.166 233.312L132.757 234.292L131.755 235.967L132.174 237.224L131.598 238.862L133.266 246.109L127.97 246.543L124.754 247.709L121.358 247.515L119.302 248.996L117.574 252.631L113.438 252.877L111.269 251.905L109.489 250.095L108.913 247.186L109.81 243.985L109.107 242.646L104.949 242.347L102.189 244.336L97.7085 243.379L93.6996 241.098L90.648 240.38L87.4094 236.596L83.9315 236.611L78.1724 234.15L77.23 231.39L70.8874 225.856L65.4574 224.614L62.5928 222.782L60.1919 223.006L57.4021 225.018L55.8539 224.584L54.6123 222.154L50.9623 218.691L49.07 213.605L44.1337 205.924L43.1165 207.166L39.6311 208.931L35.7119 213.149L33.1614 214.286L33.0193 213.635L33.827 213.545L33.109 211.676L35.0013 209.013L34.7395 206.366L35.3005 206.59L35.6969 204.436L35.1359 204.608L33.7971 200.771L31.0073 199.103L30.0799 197.488L30.8428 197.241L31.314 195.783L31.0746 194.115L32.6004 194.063L30.7007 193.135L29.2048 195.678L27.5144 195.469L27.1255 196.433L24.3058 197.682L28.4269 189.859L30.5286 184.101L30.6483 177.19L31.2392 176.203L30.6333 175.971L30.6034 172.082L29.2272 167.011L28.1203 165.321L28.5915 164.476L30.2369 163.945L28.7785 164.124L27.3574 165.343L25.9213 157.378L26.6618 157.027L25.2856 156.496L23.2961 152.809L21.9199 146.698L20.581 145.128L21.0074 143.961L20.3567 143.609L20.2669 141.186L20.9176 143.116L21.7778 144.297L22.0769 143.871L21.3739 142.054L20.7007 141.897L19.4591 136.452L17.4995 132.114L13.7748 129.16L10.6185 95.4671L12.1892 90.0747L13.1316 81.0925L12.9521 74.0996L11.9349 68.8344L19.2273 67.0843L21.3888 65.8877L23.5653 67.8173L25.6745 67.4957L27.8361 62.7016L27.6266 61.8266L29.0253 60.6075L29.302 57.8852L28.4718 56.5763L28.1128 53.3903L28.6438 52.246L33.0043 50.5258L33.9467 48.1774L38.4418 42.2615L43.6325 40.4591L47.2077 38.1631L48.7335 38.3276L50.8651 36.9066L52.1142 33.0998L54.904 29.0387L56.1231 28.8442L57.2899 29.5622L59.0102 28.9714L61.1193 27.2288L61.8972 24.8579L63.4679 25.1421L63.5801 24.2073L65.1059 23.5566L69.0625 23.5192L72.9293 25.6956L77.8134 25.3216L79.8552 22.2627L83.8642 19.6376L86.1903 16.631L87.746 16.3394L89.0324 14.8959L91.2239 15.3821L92.5328 16.9152L97.4692 15.4718L97.6412 14.7837L100.102 14.2079L101.134 13.071L101.68 13.46Z" fill="#CCCCCC" stroke="white" stroke-width="0.5"/>
<path d="M164.642 245.182L169.526 248.368L171.912 248.801L180.049 246.954L183.572 244.082L186.885 244.015L190.61 242.026L198.882 242.916L206.788 239.759L211.021 239.011L218.635 241.42L223.579 241.779L237.985 245.563L240.759 245.548L244.192 244.292L246.668 244.516L248.343 244.845L253.811 248.921L260.842 249.691L263.998 251.479L264.035 255.652L262.966 256.557L258.299 258.21L258.141 259.01L256.638 259.863L249.959 261.082L246.616 264.724L245.479 264.515L244.671 265.629L252.801 269.728L253.1 274.2L253.601 274.275L253.22 275.748L253.654 276.421L255.509 276.683L255.389 277.723L256.331 277.685L256.631 276.406L259.48 275.157L268.224 281.739L266.047 285L267.274 286.368L266.159 287.73L270.37 292.075L266.967 296.899L264.05 298.2L263.856 298.903L268.785 297.557L270.46 298.44L269.435 301.027L272.15 305.814L269.316 308.177L272.509 313.166L272.973 316.008L270.984 317.391L271.036 318.7L272.719 319.717L268.276 321.385L268.553 322.484L270.221 322.298L269.832 323.644L272.719 323.382L275.262 327.623L271.904 329.305L275.651 336.627L280.011 335.154L281.081 339.806L284.312 343.194L283.886 345.445L280.826 349.506L278.209 347.808L276.9 346.058L273.908 347.606L272.704 345.527L272.509 343.471L269.996 341.167L268.067 342.251L266.982 345.46L262.756 348.1L256.922 349.73L256.945 358.802L254.462 358.511L251.313 361.338L249.076 361.009L249.907 361.682L249.637 364.816L250.857 365.055L251.515 366.386L249.682 366.528L249.376 367.127L245.928 366.663L242.308 368.301L242.48 369.909L240.64 370.477L239.503 373.775L240.139 376.7L236.833 378.442L238.979 382.249L237.79 386.131L233.602 384.829L230.288 385.443L228.875 384.725L225.718 379.946L220.872 378.495L221.403 376.311L219.884 375.353L214.963 378.203L210.505 375.742L209.645 375.144L210.027 373.416L211.777 370.874L210.386 369.587L204.903 367.418L206.481 363.783L203.983 363.462L203.811 362.557L194.327 360.874L194.17 359.229L191.051 359.094L189.039 359.827L186.586 365.855L184.993 366.783L178.03 356.132L175.935 351.346L175.666 342.506L173.998 339.791L173.752 337.936L176.489 332.813L175.576 330.749L174.103 329.732L174.118 328.685L177.641 325.244L178.359 322.455L180.079 321.819L180.752 320.091L179.944 318.82L181.283 317.803L178.995 315.08L178.755 314.37L179.705 314.063L179.713 313.39L178.127 311.333L178.651 309.591L180.588 307.833L179.593 304.692L180.049 303.6L180.805 303.78L182.398 302.463L183.086 300.197L183.826 300.549L184.686 299.718L186.205 299.599L187.035 297.647L188.359 297.871L189.062 297.019L190.086 297.467L190.603 296.106L191.582 295.672L190.61 294.356L190.909 293.825L193.52 293.391L192.846 292.576L193.071 290.878L194.29 289.412L192.787 288.253L193.669 287.528L193.288 285.845L191.62 285.172L192.712 282.801L189.78 280.856L190.027 278.725L191.141 276.975L190.431 275.135L189.331 274.806L187.693 272.45L185.12 274.043L184.567 271.306L183.594 270.124L182.495 270.468L181.874 271.635L181.164 271.358L180.715 270.161L182.256 268.352L179.937 267.731L178.329 263.632L176.459 261.807L174.701 262.054L173.602 259.377L171.597 260.506L172.36 262.675L171.912 263.49L170.034 262.107L170.094 260.072L169.301 259.758L168.239 256.4L165.562 253.341L164.642 245.182Z" fill="#CCCCCC" stroke="white" stroke-width="0.5"/>
<path d="M394.82 1.43378L396.128 1.34403L397.392 2.55563L396.181 5.59958L396.652 7.36462L399.838 14.1929L400.609 14.0733L402.606 16.2497L402.254 22.7639L403.137 25.6208L406.906 29.2182L407.594 32.0004L408.851 32.7932L409.689 32.4866L409.846 33.586L411.035 33.9076L411.184 36.241L411.76 36.6523L411.192 37.7443L412.291 38.5744L411.738 40.7658L412.867 42.284L413.144 46.6069L414.438 46.2479L415.021 47.7512L418.006 48.4168L420.758 50.1893H425.545L428.851 47.093L432.643 51.0195L433.548 53.1286L437.145 55.5966L439.255 53.9513L446.001 53.2333L445.971 54.9385L447.587 55.4396L449.023 53.8092L450.997 53.9737L451.102 54.9534L453.293 55.7612L455.994 55.6714L456.839 52.807L459.023 51.7674L461.08 52.6424L462.239 56.352L465.298 57.3692L470.668 57.3168L473.076 54.6692L474.146 55.5667L473.615 58.1021L475.642 60.0018L474.991 62.754L475.702 63.4197L474.348 64.7584L474.595 65.9924L479.299 67.8323L481.857 70.0984L487.676 71.5493L488.94 75.4758L491.162 76.994L491.453 78.7217L490.833 79.9408L491.536 81.2421L495.23 81.0402L495.941 81.9376L499.778 83.3587L500.01 84.4132L501.019 84.0542L503.076 84.8769L505.365 87.689L506.779 87.3001L509.898 89.2072L504.864 90.1122L501.737 93.4777L501.528 95.6691L503.54 98.4662L502.141 100.83L502.298 102.924L495.26 104.33L496.046 109.677L495.672 111.046L494.804 111.704L491.678 111.824L489.479 110.724L489.554 114.628L488.125 114.239L489.239 117.343L488.305 118.854L487.848 122.152L484.557 121.621L482.418 120.2L479.195 121.3L478.634 120.911L478.611 123.394L477.654 124.209L478.424 124.261L478.439 127.148L476.816 127.522L474.378 130.357L473.637 130.476L473.069 126.834L472.186 126.55L470.04 128.532L467.766 127.732L466.689 128.3L465.201 126.512L463.563 130.409L459.636 129.048L458.806 131.149L457.452 131.202L454.797 129.878L455.425 128.105L452.747 127.171L451.73 129.19L443.914 123.214L441.573 123.783L440.287 126.46L438.327 128.322L437.46 127.769L434.685 128.711L434.939 131.845L436.3 132.391L435.455 134.582L433.899 133.722L432.187 131.344L429.831 131.628L429.823 132.129L415.44 137.664L414.027 134.036L415.508 131.86L411.94 132.234L410.452 130.671L405.306 129.751L404.984 128.883L403.339 128.285L398.612 131.561L396.099 130.551L392.613 131.119L392.284 133.842L390.235 133.49L390.055 132.069L388.462 130.536L384.326 132.817L382.269 131.86L380.482 132.69L378.283 130.588L377.243 131.187L377.52 134.358L376.57 137.432L377.699 137.484L377.894 138.232L379.532 138.142L380.751 139.855L379.808 140.087L379.24 141.822L377.939 142.577L375.246 141.164L375.949 139.907L370.743 141.096L370.788 144.38L371.753 144.933L373.541 144.507L374.722 143.25L376.69 144.686L377.811 147.102L377.998 150.55L377.078 150.355L373.077 152.203L371.978 155.314L373.152 158.365L371.581 159.525L372.396 161.148L370.474 164.513L370.639 166.383L369.487 166.824V167.684L367.826 168.073L369.105 170.362L369.143 172.703L370.422 174.625L369.435 177.138L364.85 179.157L361.693 178.648L360.564 177.557L359.883 177.96L359.106 177.332L358.373 177.751L358.799 180.9L356.847 181.849L357.625 184.22L354.341 186.083L354.678 187.855L350.295 187.504L348.41 187.384L345.403 184.819L345.62 181.76L343.144 180.212L342.419 180.81L341.753 180.002L340.646 180.548L337.924 178.753L337.296 177.28L335.942 180.069L331.125 178.297L330.946 175.762L326.929 174.094L326.383 178.14L322.546 177.945L321.133 179.83L319.756 180.458L318.455 178.103L316.585 177.96L315.426 179.808L310.931 178.806L310.168 178.05L311.619 173.159L309.502 173.548L303.676 167.527L301.305 167.826L301.208 168.933L298.844 167.37L296.219 164.319L295.576 162.314L297.281 161.641L294.887 158.395L296.226 154.431L296.937 154.2L297.737 150.37L298.276 150.355L298.006 146.309L303.137 148.089L304.184 146.167L308.38 146.623L308.792 145.741L309.943 145.636L309.061 142.936L308.268 142.757L308.35 139.907L307.625 138.546L308.051 136.654L309.24 137.454L309.943 137.095L310.258 135.786L312.472 135.308L312.898 134.193L309.308 131.486L309.622 129.347L310.489 129.594L310.063 128.457L310.699 125.944L309.779 126.161L309.233 124.403L307.565 124.029L308.911 122.025L307.386 118.727L304.214 119.37L303.661 116.655L302.703 115.817L301.978 110.246L301.125 109.303L307.109 110.104L305.74 107.015L308.575 107.71L308.949 105.519L311.32 104.831L311.402 103.888L314.087 103.44L313.257 99.9396L315.164 96.3123L314.985 91.436L312.157 91.6977L310.878 89.5288L308.799 90.3291L308.53 89.0651L307.251 89.3344L306.742 87.9208L308.223 83.9495L307.662 81.2944L309.704 78.8638L309.151 77.5624L309.54 74.9224L310.893 75.4908L311.641 76.9417L312.397 75.8871L313.19 70.3527L312.808 68.812L315.934 67.9594L315.815 66.314L317.139 64.6163L317.086 61.9538L317.976 61.6621L318.552 59.3735L319.764 60.0167L323.13 59.1043L323.593 58.0722L322.823 57.6234L323.459 55.993L323.025 55.3872L323.586 50.8176L321.065 51.3187L321.432 48.3794L322.486 47.093L319.106 45.5524L318.455 43.361L318.986 43.0394L318.807 41.5361L318.126 41.4464L317.468 39.973L318.036 38.0135L320.624 37.2806L320.796 35.8446L323.025 36.0765L325.822 33.227L334.274 29.9512L334.02 27.6327L339.121 28.0515L341.043 32.3594L344.588 31.4245L347.58 34.4087L350.744 35.0219L351.858 33.2419L357.602 30.5794L363.301 29.6819L363.78 26.5183L363.107 23.6838L364.177 21.8963L366.278 21.0362L368.23 18.8972L368.515 13.9835L374.625 14.1406L376.413 11.9118L376.099 9.54849L381.678 9.13714L383.219 9.87008L385.74 7.49176L385.919 5.90622L387.744 6.57185L388.103 7.88815L391.416 7.14773L392.03 6.37739L391.334 3.3858L393.152 1L394.82 1.43378Z" fill="#CCCCCC" stroke="white" stroke-width="0.5"/>
<path d="M200.385 6.91602L202.166 7.05812L203.265 8.57635L205.531 8.64366L207.132 14.4997L205.778 15.1653L207.962 22.2255L209.847 23.9158L212.614 23.3399L214.716 26.6456L216.676 26.0697L217.124 24.7609L223.639 20.7148L222.644 17.7979L223.347 16.9154L222.539 15.457L233.497 14.8064L236.616 12.6674L244.05 13.4751L247.177 15.0457L249.286 18.3364L253.863 19.1143L256.503 21.1411L259.936 21.8067L268.717 16.6088L281.888 14.38L283.227 15.4047L283.287 16.6088L281.499 21.3804L281.844 23.482L283.384 23.9532L285.067 20.5128L287.012 20.1015L288.141 20.64L296.638 20.4979L298.179 22.2031L306.832 22.1732L307.565 25.6958L310.153 27.9395L310.161 31.1031L315.067 31.5892L315.119 32.8307L317.004 34.4088L316.817 36.5627L320.796 35.8448L320.624 37.2807L318.036 38.0137L317.468 39.9732L318.126 41.4465L318.807 41.5363L318.986 43.0395L318.455 43.3611L319.106 45.5525L322.487 47.0932L321.432 48.3795L321.065 51.3188L323.586 50.8177L323.025 55.3874L323.459 55.9932L322.823 57.6236L323.593 58.0723L323.13 59.1044L319.764 60.0169L318.552 59.3737L317.976 61.6622L317.086 61.9539L317.139 64.6164L315.815 66.3142L315.935 67.9595L312.808 68.8122L313.19 70.3528L312.397 75.8873L311.641 76.9418L310.893 75.4909L309.54 74.9225L309.151 77.5626L309.704 78.8639L307.662 81.2946L308.223 83.9496L306.742 87.921L307.251 89.3345L308.53 89.0653L308.799 90.3292L310.879 89.529L312.157 91.6979L314.985 91.4361L315.164 96.3124L313.257 99.9397L314.087 103.44L311.402 103.889L311.32 104.831L308.949 105.519L308.575 107.71L305.74 107.015L307.109 110.104L301.125 109.303L301.978 110.246L302.704 115.818L303.661 116.655L304.214 119.37L307.386 118.727L308.911 122.025L307.565 124.03L309.233 124.404L309.779 126.161L310.699 125.944L310.063 128.457L310.49 129.594L309.622 129.347L309.308 131.486L312.898 134.194L312.472 135.308L310.258 135.787L309.944 137.095L309.241 137.454L308.051 136.654L307.625 138.546L308.35 139.907L308.268 142.757L309.061 142.936L309.944 145.636L308.792 145.741L308.38 146.624L304.184 146.167L303.137 148.089L298.006 146.309L298.276 150.356L297.737 150.371L296.937 154.2L296.226 154.432L294.888 158.396L291.499 161.006L290.475 160.549L287.505 161.716L287.633 162.344L279.248 165.822L279.368 167.049L275.172 168.268L273.923 170.736L271.133 172.441L271.956 173.039L271.432 174.692L269.031 174.834L267.229 174.027L262.188 174.356L261.507 170.893L262.36 168.425L259.6 166.824L259.039 165.732L256.055 166.346L255.95 167.034L253.033 167.228L253.871 170.624L253.362 170.489L253.115 171.716L252.12 172.284L250.363 171.753L251.073 170.556L247.184 168.761L245.598 168.866L245.591 166.996L243.467 164.147L241.477 162.524L239.712 162.262L239.42 161.499L238.53 161.327L234.058 163.967L233.654 162.472L232.876 162.786L233.093 163.937L231.163 165.486L230.984 164.394L229.51 164.237L228.658 159.742L227.857 158.964L228.291 156.989L227.558 157.109L227.027 158.68L219.824 160.938L218.127 160.677L217.723 158.171L215.008 158.732L215.584 160.549L214.836 160.759L215.053 163.264L212.854 163.474L212.719 164.072L214.379 168.851L213.818 169.726L211.896 169.061L211.268 168.006L210.999 170.1L209.518 168.462L206.728 171.349L206.444 170.818L205.763 171.14L205.958 171.947L205.03 172.546L205.045 171.633L203.871 171.663L202.166 172.598L198.329 172.987L194.305 176.839L193.819 176.203L192.383 176.928L192.876 176.151L192.457 175.552H190.902L190.318 177.258L189.742 177.086L187.85 174.445L190.4 173.443L189.727 173.054L190.64 171.738L189.78 170.624L190.101 169.098L188.882 169.569L187.222 168.829L185.546 169.779L182.861 169.696L181.306 167.879L176.997 173.159L175.771 172.262L173.482 174.214L168.022 173.286L168.119 172.493L170.55 171.087L169.765 169.973L170.019 169.255L168.142 166.824L166.227 165.785L163.707 161.888L164.193 159.196L161.238 159.443L159.122 154.693L156.152 153.938L156.302 151.941L156.437 151.32L156.339 150.109L157.431 148.232L155.644 146.504L154.731 146.661L153.632 145.778L154.23 141.658L153.004 138.973L154.17 136.796L157.289 136.534L158.621 135.42L158.897 133.079L158.516 128.195L157.372 127.679L157.94 126.191L153.684 117.844L163.303 115.503L163.557 108.473L162.158 106.693L163.018 105.609L168.822 106.11L170.221 105.003L170.191 104.031L171.68 103.462L173.968 105.003L174.32 103.814L173.34 102.004L176.077 101.967L176.302 98.0326L175.509 98.2121L174.888 95.8113L177.169 95.2055L176.721 93.4629L174.462 93.3881L174.611 91.9671L173.826 91.8774L172.383 86.2681L170.214 85.5202L171.261 90.045L170.288 90.419L169.361 89.4018L167.514 89.9328L165.861 89.3869L166.167 86.9637L165.285 86.6196L164.155 84.3385L165.546 82.6857L166.773 82.5211L167.371 78.9911L168.374 77.6L167.873 76.867L169.099 75.8873L168.052 74.6757L167.76 72.5292L169.63 74.1895L169.862 73.0153L172.413 71.2129L175.202 72.0879L180.094 70.0312L180.976 70.3528L180.243 67.5482L177.11 65.2746L177.117 61.6323L177.977 60.8246L177.618 59.7177L177.244 60.0767L176.145 59.0147L170.991 61.2509L169.159 60.9891L168.994 63.5619L167.79 63.2403L167.184 64.7436L164.305 64.22L161.605 61.8642L159.645 61.2359L157.072 61.1836L157.192 62.2381L155.576 62.9561L152.951 62.5597L152.802 61.7744L148.426 61.5725L149.526 59.8748L150.296 59.8074L150.446 57.9227L149.743 57.818L148.785 59.1044L147.746 58.7828L149.316 54.7442L148.007 53.3606L147.491 54.2057L145.419 53.2334L145.494 52.0742L146.654 45.2085L147.416 45.1935L147.162 44.1165L147.858 43.8099L148.703 36.8843L152.592 36.8694L154.484 35.6653L155.629 29.7943L153.639 30.0635L153.475 28.3583L152.158 27.1841L154.425 26.8101L158.83 27.6702L159.339 25.6434L165.606 26.8475L167.97 21.3579L166.601 20.9092L166.706 20.0491L165.285 18.6431L164.537 16.6088L169.713 16.7883L169.885 16.0853L171.38 16.3246L173.527 18.3589L175.232 17.9924L178.254 14.7764L191.156 15.6216L192.599 14.2679L195.404 14.1407L198.052 12.7197L197.783 12.1064L198.875 11.5829L198.822 10.7527L197.805 10.6106L197.454 9.80291L199.032 9.01013L199.062 7.61904L200.385 6.91602Z" fill="#CCCCCC" stroke="white" stroke-width="0.5"/>
<path d="M93.4527 153.265L103.43 150.849L104.56 149.944L105.338 151.432H108.217L108.09 150.318L110.438 148.972L110.304 146.908L112.099 145.831L112.174 143.849L113.722 143.108L113.946 142.226L117.192 143.692L117.2 142.315L120.349 140.019L124.171 139.361L130.543 136.145L136.003 140.244L136.803 138.598L137.648 139.167L139.099 138.688L143.348 141.657L147.304 139.346L150.431 140.707L153.004 138.972L154.23 141.657L153.632 145.778L154.731 146.661L155.644 146.504L157.431 148.231L156.339 150.109L156.437 151.32L156.302 151.941L156.152 153.938L159.122 154.693L161.238 159.442L164.193 159.196L163.707 161.888L166.227 165.785L168.142 166.824L170.019 169.255L169.765 169.973L170.55 171.087L168.12 172.493L168.022 173.286L173.482 174.213L175.008 175.223L174.829 176.382L172.689 177.773L173.796 178.611L175.292 184.288L177.656 183.816L178.239 182.747L179.563 182.852L179.728 185.836L178.456 187.174L178.95 189.104L180.767 189.014L181.455 190.914L184.185 190.031L185.554 190.51L186.803 192.963L186.953 196.246L185.105 197.563L184.963 200.33L186.975 201.257L190.393 200.435L190.438 202.432L192.442 203.696V207.076L193.228 206.725L193.849 205.042L195.546 205.199L195.659 203.307L199.256 202.82L198.665 201.227L199.525 200.824L200.393 202.559L204.29 201.414L203.303 206.074L206.22 206.971L208.172 208.602L205.861 211.728L206.264 212.678L212.487 213.044L213.654 210.733L218.172 211.78L220.445 211.309L221.635 209.821L223.632 210.471L224.409 209.477L225.202 212.079L225.232 213.725L224.207 214.301L224.544 215.699L226.339 215.752L227.439 214.966L227.581 215.669L232.719 215.198L234.103 216.193L236.204 216.073L237.05 214.652L237.551 215.213L242.427 214.495L243.347 215.333L243.168 218.796L245.127 219.932L246.81 219.237L247.685 220.404L251.006 218.923L251.238 220.007L256.264 221.503L253.474 229.087L253.437 235.504L250.505 239.587L249.525 242.564L246.668 244.516L244.192 244.291L240.759 245.548L237.985 245.563L223.579 241.779L218.635 241.42L211.021 239.011L206.788 239.759L198.882 242.915L190.61 242.025L186.885 244.015L183.572 244.082L180.049 246.954L171.912 248.801L169.526 248.368L164.642 245.181L160.678 245.72L154.963 248.839L152.39 249.497L148.666 248.031L144.657 247.859L140.461 246.468L133.273 246.064L131.605 238.817L132.181 237.179L131.762 235.922L132.764 234.255L132.174 233.275L133.662 232.961L135.173 233.851L136.093 233.223L133.924 231.271L131.164 231.443L127.028 230.044L124.021 230.642L121.201 227.449L120.169 228.391L115.891 227.868L111.328 228.63L109.9 222.767L107.88 218.272L108.786 215.916L104.298 213.74L102.293 211.646L99.2194 211.556L94.1035 209.753L94.8963 207.353L99.526 200.786L100.88 200.031L100.992 198.789L104.044 196.015L104.477 194.16L107.08 190.188L107.439 187.93L106.796 185.507L106.026 185.626L105.143 183.308L101.815 183.921L97.2822 181.236L93.2957 183.48L92.3084 183.412L91.8297 176.046L90.2665 170.242L88.9576 170.818L87.5665 167.048L87.4318 163.249L89.1222 161.521L88.636 160.938L86.8709 161.836L86.4221 161.417L88.6211 158.328L89.3989 158.455L90.1095 157.184L90.7976 157.498L93.004 156.069L92.1663 155.082L93.4527 153.265Z" fill="#CCCCCC" stroke="white" stroke-width="0.5"/>
<path d="M118.374 4.02905L122.017 6.01846L126.175 5.24065L126.998 7.43947L128.793 7.92561L129.803 9.18956L136.811 8.06771L137.544 9.36905L138.868 9.34662L140.498 10.6106L142.106 9.22695L144.567 9.42141L146.766 7.88821L153.28 8.74082L156.579 10.9172L158.337 10.7751L161.104 11.8745L163.602 11.3659L164.335 12.4878L166.96 12.7346L169.885 16.0852L169.713 16.7882L164.537 16.6087L165.285 18.643L166.706 20.0491L166.601 20.9091L167.97 21.3579L165.606 26.8475L159.339 25.6433L158.83 27.6701L154.425 26.8101L152.159 27.184L153.475 28.3582L153.639 30.0634L155.629 29.7942L154.485 35.6652L152.592 36.8693L148.703 36.8843L147.858 43.8098L147.162 44.1164L147.417 45.1934L146.654 45.2084L145.494 52.0741L145.42 53.2333L147.491 54.2056L148.007 53.3605L149.316 54.7441L147.746 58.7828L148.785 59.1043L149.743 57.818L150.446 57.9227L150.296 59.8074L149.526 59.8747L148.426 61.5724L152.802 61.7743L152.951 62.5596L155.577 62.956L157.192 62.238L157.072 61.1835L159.645 61.2359L161.605 61.8641L164.305 64.22L167.185 64.7435L167.79 63.2402L168.995 63.5618L169.159 60.9891L170.992 61.2508L176.145 59.0146L177.244 60.0766L177.618 59.7176L177.977 60.8245L177.117 61.6322L177.11 65.2745L180.244 67.5481L180.977 70.3528L180.094 70.0312L175.203 72.0879L172.413 71.2128L169.862 73.0153L169.63 74.1895L167.761 72.5291L168.052 74.6756L169.099 75.8872L167.873 76.867L168.374 77.5999L167.372 78.991L166.773 82.5211L165.547 82.6856L164.155 84.3385L165.285 86.6196L166.167 86.9636L165.861 89.3868L167.514 89.9328L169.361 89.4017L170.289 90.4189L171.261 90.0449L170.214 85.5201L172.383 86.268L173.826 91.8773L174.612 91.967L174.462 93.388L176.721 93.4628L177.17 95.2054L174.888 95.8112L175.509 98.212L176.302 98.0325L176.078 101.966L173.34 102.004L174.32 103.814L173.968 105.003L171.68 103.462L170.191 104.031L170.221 105.003L168.823 106.11L163.019 105.609L162.158 106.693L163.557 108.473L163.303 115.503L153.684 117.844L157.94 126.191L157.372 127.679L158.516 128.195L158.897 133.079L158.621 135.42L157.289 136.534L154.17 136.796L153.004 138.973L150.431 140.708L147.304 139.346L143.348 141.657L139.1 138.688L137.649 139.167L136.803 138.599L136.003 140.244L130.543 136.145L124.171 139.361L120.349 140.02L117.2 142.316L117.192 143.692L113.946 142.226L113.722 143.108L112.174 143.849L112.099 145.831L110.304 146.908L110.438 148.972L108.09 150.318L108.217 151.433H105.338L104.56 149.944L103.43 150.849L93.4528 153.265L88.651 149.279L84.8141 150.528L84.5523 146.272L83.4005 146.1L82.0916 144.455L82.0318 143.056L83.2808 143.355L82.8395 140.408L84.0288 138.973L84.1933 136.781L86.0183 135.098L85.764 134.582L83.6249 135.046L82.6825 133.595H81.0669L79.7131 132.159L80.2442 129.826L81.224 129.078L81.1342 124.336L79.2719 123.177L78.494 125.062L77.2674 125.54L76.699 124.261L75.8687 125.428L70.9997 122.967L69.3617 125.091L67.3048 124.546L67.4918 121.404L68.2846 121.494L68.4417 120.754L67.4993 121.015L66.9009 120.365L67.3721 118.503L66.2054 117.882L66.0034 116.745L64.1037 115.907L63.3258 113.245L62.1366 113.32L62.3535 115.675L61.4933 115.646L60.364 116.992L55.6594 114.03L57.4545 109.341L58.7035 110.126L58.0977 107.262L58.539 106.693L60.2368 106.888L60.2966 105.145L62.0169 104.24L63.4006 104.472L63.7746 103.193L63.1613 102.071L64.4851 100.366L66.0932 100.688L67.2001 99.6031L64.8142 97.0752L63.2061 96.2226L62.3759 96.5068L61.8748 94.7268L63.6549 94.6744L63.5427 90.4563L62.7723 88.8333L65.2929 83.1792L61.7626 81.646L62.9518 78.7965L66.0034 78.7217L68.0378 80.3447L68.9727 79.5968L70.5135 79.9558L73.1388 73.6884L73.9465 73.5463L73.61 72.7236L74.2981 72.6189L76.3998 66.4936L78.6959 66.9947L80.8051 61.4677L83.206 61.737L83.4005 61.1985L90.0048 63.7413L89.399 59.9644L88.2023 58.6631L88.8455 57.3019L90.4386 57.5113L90.3563 58.5883L95.7564 59.411V60.286L97.357 60.8993L98.075 59.7849L97.6936 58.9847L99.1446 57.3692L100.02 49.4415L101.329 49.3667L101.964 45.171L106.736 46.0311L106.871 43.3835L104.313 40.7659L105.203 39.7038L104.597 36.6524L103.647 36.1513L103.071 33.3317L102.308 33.1672L103.094 24.6187L98.5163 24.1625L98.9427 18.1569L101.792 18.299L102.824 17.566L102.361 15.5093L102.824 13.7817L104.971 7.11788L106.841 6.90099L107.065 5.31544L109.017 5.25561L110.207 6.51956L110.7 5.81653L112.189 5.90628L112.637 5.07611L113.498 5.50989L114.432 4.53762L115.584 4.89662L118.374 4.02905Z" fill="#CCCCCC" stroke="white" stroke-width="0.5"/>
<path d="M520.676 103.372L522.83 105.287L524.468 105.13L528.424 110.089L529.083 113.245L528.694 114.718L532.493 122.773L536.771 126.849L540.489 127.223L542.044 129.153L543.847 133.79L547.721 132.885L551.91 133.7L554.288 135.487L554.759 136.938L556.921 137.028L557.557 138.195L558.836 138.688L562.747 138.337L563.234 139.077L565.5 139.242L568.544 138.195L568.559 142.547L569.972 142.742L570.653 147.506L568.91 150.46L569.8 151.821L569.89 156.885L567.609 158.769L566.674 158.38L563.697 163.279L559.868 165.044L558.155 168.32L559.726 172.65L561.057 172.935L562.104 174.797L559.778 178.207L561.207 180.234L559.554 180.04L561.311 185.208L560.257 186.098L560.818 189.314L558.529 189.366L555.619 192.597L554.161 192.178L553.017 192.649L552.471 195.035L549.748 196.404L550.773 197.526L553.099 197.421L557.1 199.522L559.875 199.627L561.738 201.452L563.817 200.263L564.026 201.362L564.842 200.876L566.121 201.489L567.22 200.293L566.854 199.276L568.29 198.752L568.028 200.42L568.693 201.033L570.032 198.767L571.431 199.612L572.059 197.929L573.548 199.276L576.218 199.769L577.384 200.958L581.805 200.824L586.779 202.103L586.809 203.254L588.319 203.569L589 205.236L588.536 208.565L585.402 209.387L583.203 211.893L579.718 213.201L579.411 212.641L581.371 211.384L572.216 211.728L572.276 214.009L570.877 214.249L571.536 213.658L571.027 212.259L568.282 212.102L568.544 213.201L566.898 213.359L568.185 214.091L568.2 214.795L567.153 214.667L567.34 216.036L565.335 217.42L565.455 218.1H562.231L562.343 218.676L560.728 219.446L558.649 218.414L557.1 220.299L554.692 219.843L553.809 220.404L551.124 219.147L550.1 221.032L549.21 220.022L545.044 219.618L542.875 218.078L541.79 218.818L535.971 217.382L534.311 218.063L532.949 217.188L532.321 217.943L532.792 218.467L531.394 218.9L528.432 214.48L527.452 216.036L525.395 215.804L525.178 215.198L524.243 218.287L523.219 218.414L520.638 217.868L520.526 217.016L522.897 213.426L523.75 213.239L520.451 211.541L520.496 209.754L519.419 209.14L520.399 208.318L520.22 207.48L516.959 206.007L515.515 207.428L514.954 206.672L511.581 205.655L511.386 203.397L511.147 206.216L511.723 206.373L510.601 206.059L510.324 203.89L509.853 205.969L507.736 207.458L509.995 207.233L508.679 209.073L508.013 208.49L505.365 208.968L504.827 210.173L502.119 208.707L500.541 209.716L499.494 208.669L499.18 206.934L498.245 206.986L498.395 208.789L496.944 208.056L496.33 209.492L494.745 208.303L495.014 206.553L492.306 204.675L488.754 205.461L490.182 206.919L487.437 209.32L486.226 207.48L486.622 206.553L482.808 201.893L479.285 205.079L479.352 203.696L478.163 205.431L479.135 205.76L477.333 207.114L476.383 210.629L476.704 211.594L473.877 209.858L474.102 211.78L474.992 212.027L475.358 213.164L474.767 213.553L475.179 214.271L476.166 214.166L476.435 215.46L475.553 215.647L474.805 214.862L472.673 215.281L471.559 219.671L472.927 219.723L471.768 221.369L470.938 221.226L470.616 223.134L471.379 225.295L473.436 225.804L474.214 227.135L476.637 227.584L476.697 231.794L477.774 232.004L479.883 234.726L481.349 234.285L481.618 235.332L484.887 236.469L485.657 237.792L483.713 237.912L483.219 239.587L482.561 239.677L482.06 238.368L480.414 240.268L482.142 241.106L481.768 242.826H480.639L481.013 241.906L478.664 243.088L479.33 244.987L480.19 243.424L481.17 243.701L480.549 245.758L479.509 246.625L480.369 247.358L479.105 248.345L480.22 250.245L481.581 249.721L481.768 250.544L476.884 251.217L475.964 249.146L474.924 249.931L472.254 250.05L471.678 248.368L472.194 247.62L468.372 245.735L465.942 247.044L464.094 246.872L463.294 245.825L463.025 248.592L461.544 248.278L461.14 247.164L459.016 247.777L458.126 250.783L455.029 250.245L448.993 251.688L445.052 251.15L443.713 252.317L439.337 251.741L437.123 249.587L432.322 249.43L427.505 250.208L427.041 249.25L429.173 247.253L427.595 244.277L427.684 242.115L426.802 242.235L425.493 241.158L422.756 241.367L422.21 240.582L421.245 241.607L420.295 240.403L420.946 238.907L420.347 237.987L421.604 236.364L421.409 234.726L422.823 233.589L422.097 231.024L424.094 230.829L428.38 228.862L429.038 227.688L428.073 226.05L428.948 224.457L432.247 224.323L431.013 223.134L430.362 223.695L429.951 222.954L428.253 223.358L427.984 220.95L426.675 219.843L423.062 221.159L421.073 218.975L423.616 215.49L424.491 210.786L421.125 211.504L419.943 213.411L419.584 212.588L415.65 210.853L416.039 208.46L415.142 206.62L413.533 206.253L413.84 204.399L412.958 203.15L411.125 203.89L410.841 202.768L409.143 203.292L407.872 202.888L405.366 203.748L403.788 202.925L403.414 197.458L402.404 194.773L395.882 197.63L394.641 197.226L395.433 194.788L389.876 195.439L384.656 191.999L384.229 192.313L384.596 186.801L383.436 186.03L384.73 183.166L386.795 184.587L387.924 180.406L383.638 178.506L382 172.755L381.312 172.912L381.492 173.548L379.682 173.668L377.513 168.986L375.097 168.582L373.721 170.025L372.853 169.569L371.544 170.489L370.557 169.763L370.639 166.383L370.475 164.513L372.397 161.148L371.582 159.525L373.152 158.366L371.978 155.314L373.077 152.203L377.079 150.356L377.999 150.55L377.812 147.102L376.69 144.686L374.723 143.25L373.541 144.507L371.754 144.933L370.789 144.38L370.744 141.097L375.95 139.907L375.246 141.164L377.939 142.577L379.24 141.822L379.809 140.087L380.751 139.855L379.532 138.142L377.894 138.232L377.7 137.484L376.57 137.432L377.52 134.358L377.243 131.187L378.283 130.589L380.482 132.69L382.27 131.86L384.326 132.817L388.463 130.536L390.056 132.069L390.235 133.49L392.285 133.842L392.614 131.12L396.099 130.551L398.612 131.561L403.339 128.285L404.985 128.883L405.306 129.751L410.452 130.671L411.94 132.234L415.508 131.86L414.027 134.036L415.441 137.664L429.824 132.129L429.831 131.628L432.187 131.344L433.9 133.722L435.456 134.582L436.301 132.391L434.939 131.845L434.685 128.711L437.46 127.769L438.328 128.322L440.287 126.46L441.574 123.783L443.915 123.214L451.731 129.19L452.748 127.171L455.426 128.106L454.797 129.878L457.452 131.202L458.806 131.149L459.636 129.048L463.563 130.409L465.201 126.512L466.69 128.3L467.767 127.732L470.04 128.532L472.187 126.55L473.069 126.834L473.638 130.476L474.378 130.357L476.817 127.522L478.44 127.148L478.425 124.261L477.654 124.209L478.612 123.394L478.634 120.911L479.195 121.3L482.419 120.2L484.558 121.621L487.849 122.152L488.305 118.854L489.24 117.343L488.125 114.239L489.554 114.628L489.479 110.724L491.678 111.824L494.805 111.704L495.672 111.046L496.046 109.677L495.261 104.33L502.299 102.924L502.142 100.83L503.54 98.4663L501.529 95.6691L501.738 93.4778L504.864 90.1122L509.898 89.2073L510.631 92.0343L514.842 99.2815L517.647 102.767L520.676 103.372Z" fill="#CCCCCC" stroke="white" stroke-width="0.5"/>
<path d="M453.937 381.845L452.516 381.486L452.718 380.566L455.455 380.17L453.937 381.845ZM370.639 166.383L370.557 169.764L371.544 170.482L372.853 169.569L373.72 170.025L375.089 168.582L377.505 168.986L379.674 173.668L381.484 173.548L381.304 172.912L381.993 172.755L383.631 178.507L387.916 180.406L386.787 184.587L384.715 183.166L383.429 186.03L384.588 186.801L384.221 192.313L384.655 191.999L389.868 195.439L395.426 194.788L394.633 197.226L395.874 197.63L402.396 194.773L403.406 197.458L403.78 202.925L405.358 203.748L407.864 202.888L409.135 203.292L410.833 202.768L411.11 203.89L412.95 203.157L413.832 204.399L413.526 206.254L415.134 206.62L416.031 208.46L415.642 210.861L419.584 212.596L419.943 213.418L421.125 211.511L424.491 210.793L423.608 215.498L421.072 218.975L423.062 221.159L426.667 219.85L427.976 220.95L428.245 223.358L429.943 222.954L430.354 223.687L431.005 223.126L432.247 224.315L428.948 224.457L428.066 226.05L429.038 227.688L428.38 228.855L424.094 230.83L422.097 231.024L422.83 233.589L421.409 234.726L421.611 236.364L420.354 237.987L420.953 238.907L420.302 240.403L421.252 241.607L422.209 240.575L422.755 241.36L425.493 241.151L426.802 242.228L427.684 242.108L427.594 244.269L429.173 247.246L427.041 249.25L427.505 250.208L432.321 249.422L437.131 249.579L439.337 251.733L443.713 252.309L445.051 251.142L448.986 251.681L455.021 250.238L458.118 250.776L459.008 247.762L461.14 247.156L461.536 248.271L463.017 248.585L463.286 245.817L464.086 246.864L465.934 247.037L468.365 245.728L472.194 247.605L471.678 248.353L472.254 250.043L474.924 249.923L475.964 249.138L476.884 251.21L481.768 250.529L481.581 249.714L480.219 250.238L479.098 248.338L480.369 247.343L479.509 246.61L480.549 245.743L481.169 243.686L480.19 243.409L479.329 244.98L478.656 243.08L481.005 241.898L480.638 242.826H481.768L482.142 241.098L480.414 240.261L482.067 238.361L482.568 239.67L483.226 239.58L483.72 237.905L485.672 237.785L484.902 236.461L481.633 235.324L481.364 234.277L479.898 234.711L477.789 231.989L476.712 231.779L476.652 227.576L474.236 227.12L473.458 225.789L471.401 225.28L470.638 223.111L470.96 221.204L471.79 221.346L472.949 219.701L471.581 219.648L472.703 215.258L474.834 214.839L475.582 215.625L476.465 215.43L476.196 214.136L475.208 214.241L474.797 213.523L475.388 213.142L475.029 212.005L474.139 211.758L473.907 209.836L476.734 211.571L476.412 210.606L477.362 207.091L479.165 205.745L478.193 205.416L479.382 203.681L479.314 205.064L482.845 201.878L486.652 206.538L486.263 207.465L487.474 209.305L490.219 206.904L488.791 205.453L492.336 204.668L495.044 206.545L494.774 208.295L496.367 209.484L496.973 208.049L498.424 208.781L498.275 206.979L499.217 206.927L499.524 208.662L500.571 209.709L502.149 208.692L504.857 210.165L505.395 208.961L508.043 208.49L508.701 209.066L510.017 207.226L507.759 207.45L509.875 205.962L510.346 203.875L510.623 206.044L511.745 206.358L511.169 206.201L511.408 203.382L511.61 205.64L514.976 206.657L515.537 207.413L516.988 205.992L520.249 207.465L520.429 208.303L519.449 209.125L520.526 209.739L520.474 211.526L523.772 213.224L522.919 213.418L520.548 217.001L520.66 217.861L523.241 218.399L524.273 218.28L525.2 215.183L525.417 215.797L527.474 216.021L528.454 214.466L531.416 218.893L532.814 218.459L532.343 217.936L532.972 217.18L534.333 218.055L535.993 217.375L541.812 218.811L542.904 218.078L545.073 219.619L549.239 220.022L550.129 221.04L551.146 219.155L553.832 220.411L554.714 219.85L557.123 220.307L558.671 218.422L560.75 219.454L562.373 218.684L562.261 218.108H565.477L565.357 217.427L567.369 216.044L567.182 214.682L568.229 214.802L568.207 214.099L566.928 213.366L568.566 213.209L568.304 212.11L571.049 212.267L571.558 213.665L570.9 214.256L572.298 214.009L572.238 211.736L581.393 211.384L579.434 212.641L579.733 213.202L578.185 215.46L578.424 219.536L575.926 222.214L574.879 221.324L573.121 222.55L574.22 226.2L575.851 227.075L574.953 228.317L573.353 227.703L572.792 229.782L570.81 229.05L567.579 231.473L563.854 230.358L559.613 232.138L556.995 229.259L553.42 231.338L553.211 233.26L551.633 234.606L548.282 232.894L547.123 233.402L546.853 232.632L545.313 233.903L544.684 232.318L541.154 231.024L539.853 231.914L537.893 231.877L538.162 233.5L535.627 233.851L536.554 234.636L535.597 235.407L531.812 236.087L528.461 238.316L528.252 239.101L532.388 243.843L531.476 244.247L531.737 245.204L530.212 244.905L529.673 245.563L529.18 250.14L527.848 253.618L526.412 254.815L526.091 257.544L523.824 259.093L521.483 258.569L519.082 260.08L517.534 259.474L516.397 262.324L513.316 262.72L512.867 263.782L513.592 265.24L510.907 266.198L511.835 267.312L505.298 266.168L503.727 264.537L503.256 265.3L500.137 266.183L498.394 268.217L497.691 267.978L496.113 269.07L494.124 268.269L493.286 269.503L491.394 269.608L490.593 275.143L487.078 278.127L487.25 279.114L485.822 280.864L483.48 282.322L483.914 284.835L482.905 287.73L480.668 287.715L479.913 289.061L479.03 291.843L480.332 297.759L480.175 305.186L479.068 308.738L479.636 311.79L478.903 311.685L478.731 312.373L480.003 319.441L479.419 320.682L480.87 322.971L481.618 330.352L480.601 332.536L473.668 337.472L471.252 342.252L469.285 348.691L467.654 348.983L465.994 350.508L466.173 351.039L468.23 350.987L467.407 352.378L468.454 356.851L465.979 361.114L464.887 361.024L464.677 360.239L463.967 361.936L464.558 364.816L461.783 366.715L460.99 370.38L459.083 370.604L458.926 372.16L460.414 372.414L460.676 375.339L464.303 374.007L464.445 375.099L465.373 375.511L467.355 376.109L468.671 374.845L469.711 375.922L471.723 374.112L473.862 374.075L476.412 378.143L475.739 379.033L476.218 380.35L475.65 381.509L476.667 382.571L477.609 381.89L480.474 382.795L482 387.656L483.959 388.935L484.879 388.285L480.04 391.643L480.773 391.456L482.852 394.425L483.473 396.048L482.546 397.619L483.293 400.326L484.191 400.977L484.961 400.655L484.999 401.964L483.989 402.353L483.652 401.366L482.044 401.38L481.027 399.743L480.96 401.582L479.801 401.597L479.21 402.45L479.068 401.478L475.986 400.236L475.814 402.211L474.587 402.719L474.079 402.226L473.929 405.015H471.843L470.392 406.975L469.569 407.027L467.849 405.322L468.155 404.439L465.769 404.866L465.32 404.028L462.089 403.123L460.803 403.774L458.881 402.345L458.567 400.947L456.487 399.092L456.929 397.319L461.603 395.375L461.641 392.443L459.958 391.456L459.778 389.736L460.145 389.414L460.848 390.334L461.835 389.481L463.084 390.439L464.386 390.147L462.336 386.819L462.665 385.316L461.042 383.506L461.723 382.294L457.295 380.537L457.033 376.625L455.395 375.922L455.081 377.388L453.496 377.44L453.653 378.57L452.194 379.392L450.706 379.377L450.923 378.218L448.372 378.577L447.684 378.098L446.368 380.798L444.737 382.077L443.72 381.733L441.738 382.571L440.781 383.917L438.993 383.423L437.647 384.328L436.248 383.304L435.777 384.328L432.269 382.346L430.616 385.981L428.776 384.037L427.624 384.74L425.635 388.509L425.762 391.374L417.221 400.102L412.86 405.995L410.482 405.165L407.123 405.741L404.857 404.581L403.047 401.837L403.436 400.834L401.304 399.645L392.471 403.886L388.687 403.647L387.916 400.939L386.548 399.271L387.46 398.284L386.682 398.269L386.615 396.242L380.34 393.483L381.162 392.047L380.564 389.863L381.925 388.973L382.942 389.436L383.885 388.292L385.957 388.494L385.725 385.817L387.064 386.28L387.325 385.016L390.01 385.151L391.447 381.995L393.788 381.756L392.322 380.103L393.414 378.547L398.372 378.203L397.034 373.589L397.886 371.584L396.39 370.919L396.847 370.402L396.271 367.56L398.036 367.044L397.789 365.107L404.865 363.739L404.603 361.667L406.862 361.121L406.091 357.269L407.617 356.701L407.011 354.233L403.93 354.816L402.583 355.946L400.347 355.587L397.168 356.836L395.987 359.491L395.56 358.07L391.536 359.147L390.018 358.803L390.078 359.61L389.315 359.782L389.592 361.271L385.373 361.203L385.343 360.396L379.367 361.218L378.619 360.224L378.417 361.854L377.34 361.891L376.779 363.088L375.628 359.61L376.51 358.548L376.563 356.118L374.461 355.534L371.626 352.722L370.175 352.879L369.465 353.889L367.213 353.104L366.301 355.026L365.501 354.771L364.341 355.729L363.608 355.183L363.391 359.005L362.778 359.259L362.292 358.316L361.342 358.451L361.372 359.393L359.622 358.316L359.652 356.708L356.234 356.963L355.246 357.77L350.841 357.598L349.233 355.437L348.29 356.484L347.587 355.968L347.617 354.599L349.525 352.558L348.971 351.63L349.532 350.688L348.246 348.885L346.159 349.349L345.306 347.704L347.984 346.432L347.535 343.501L346.585 343.396L346.473 340.823L347.124 340.718L346.301 339.432L346.81 338.243L348.178 332.895L347.872 327.166L349.151 328.146L350.138 326.942L351.118 327.204L352.18 325.117L352.86 325.91L353.713 325.446L352.561 321.557L350.639 321.572L352.83 320.174L351.312 315.746L351.17 312.56L352.808 310.092L353.249 310.279L353.257 309.344L356.189 308.738L360.205 310.653L361.013 308.566L360.534 306.061L361.424 305.956L361.574 306.629L363.661 306.839L364.738 308.82L366.63 309.082L367.976 308.476L368.328 307.302L367.378 305.956L368.335 305.073L367.946 303.847L368.806 303.346L368.619 300.721L370.011 300.459L369.749 298.716L369.188 298.784L368.619 297.363L369.629 295.859L369.868 292.157L374.087 289.39L378.245 288.852L378.402 287.677L379.532 288.702L380.31 287.386L381.222 287.229L381.065 288.059L381.948 287.797L380.646 278.321L381.394 278.082L381.095 277.439L383.092 277.349L383.593 276.601L384.543 277.813L385.583 277.364L386.54 276.638L386.652 274.178L385.291 272.787L382.165 271.5L380.497 269.159H378.567L374.566 269.907L373.414 266.624L369.435 264.889L367.572 261.815L363.608 261.867L360.871 258.913L362.053 257.731L362.172 256.064L364.842 255.091L364.341 252.377L368.447 251.681L368.724 250.948L367.834 250.424L368.29 249.557L369.323 249.572L370.16 248.495L368.799 248.143L368.717 245.93L367.198 244.209L366.129 244.157L366.061 243.596L364.925 244.082L365.276 242.953L364.468 242.781L364.925 241.352L363.997 240.477L363.99 237.688L362.823 237.336L361.851 238.137L360.108 236.065L360.34 235.122L359.487 234.876L360.108 234.39L358.208 232.206L359.644 231.383L360.168 230.089L356.301 229.289L355.934 228.541L355.897 226.866L354.94 225.519L355.127 223.508L354.05 221.795L356.421 218.684L350.385 216.739L350.115 217.562L348.784 217.42L348.814 216.477L347.273 216.32L348.829 208.168L348.081 208.235L348.021 206.276L344.775 205.977L345.613 199.111L346.443 198.812L346.234 195.746L347.7 194.848L347.931 192.425L350.093 191.55L350.295 187.496L354.67 187.848L354.341 186.075L357.617 184.213L356.839 181.842L358.799 180.892L358.365 177.744L359.098 177.325L359.876 177.961L360.557 177.557L361.686 178.649L364.842 179.157L369.427 177.138L370.414 174.625L369.136 172.71L369.098 170.369L367.819 168.081L369.48 167.692V166.832L370.639 166.383Z" fill="#CCCCCC" stroke="white" stroke-width="0.5"/>
</svg>
