<svg width="483" height="640" viewBox="0 0 483 640" fill="none" xmlns="http://www.w3.org/2000/svg">
<path d="M156.307 293.665L146.67 280.918L139.154 278.12L114.055 279.576L102.674 294.899L99.5692 297.92L99.2396 297.692L98.8081 297.584L98.5863 297.692L98.1548 298.142L97.6094 298.591L97.2798 298.699L96.6265 298.591H96.3029L95.7575 298.477H94.9964L94.5049 298.591L94.0135 298.927L92.5991 299.82L92.2695 300.041L91.5623 300.377L91.2387 300.491H90.909L88.6256 302.504L87.8585 302.954L87.373 303.176H86.9895L86.6658 303.397H85.8448H85.4133L85.0297 303.511L84.0468 304.182L80.1273 305.639L78.8747 309.438L73.325 333.823L70.3823 340.978L68.2068 345.233L66.0253 345.904L65.2642 346.462L64.7188 347.247L63.9576 349.26L63.5201 350.375L62.9208 350.825L63.9576 351.939L66.6785 353.509L80.6187 369.39L92.8688 422.625L126.628 415.691L129.625 414.348L143.403 398.689L193.117 379.009L197.366 376.438L212.553 358.094L194.639 321.855L188.976 315.029L186.039 312.345L156.307 293.665Z" fill="#496915" stroke="white" stroke-width="3"/>
<path d="M481 400.703L456.308 369.354L417.376 351.388L395.082 344.107L395.076 344.113L391.863 349.26L368.777 377.439L366.057 380.123L351.841 389.071L336.762 395.111L308.606 432.351L299.352 467.691L319.064 473.839L322.168 476.968L325.758 482.781L329.192 506.374L329.792 508.052L342.15 529.297L344.817 535.332L344.763 536.231L346.776 537.795L350.318 538.909L362.353 543.608L367.741 546.293L378.019 560.585L420.289 531.275L474.401 475.284L481 400.703Z" fill="#496915" stroke="white" stroke-width="3"/>
<path d="M181.634 120.838L166.981 88.9739V88.9619L165.075 90.1605L51.9772 127.088L12.9915 153.271L4.76886 155.057L4.70293 155.075L9.16187 230.896L9.23378 230.914L22.4668 234.378L57.8026 217.712L103.489 223.866L104.741 150.808L107.516 145.211L109.53 135.814L110.782 135.364L111.496 134.921L112.089 134.693L112.634 134.921L113.288 135.143L113.941 135.814L115.247 136.485L116.722 137.048L118.466 137.606H119.497L120.587 137.27L121.456 137.048L122.439 136.934L124.069 137.156H124.669L125.376 137.048L125.921 136.934L126.682 137.156L127.881 138.055L131.039 137.72L136.05 135.7L145.034 126.974L149.828 124.176L152.879 123.283L153.909 123.84L155 124.176L155.761 124.29L156.469 124.847L157.451 124.961L158.704 124.847L162.186 121.719H162.624L162.839 121.94L165.782 122.612L178.032 122.162L181.634 120.838Z" fill="#496915" stroke="white" stroke-width="3"/>
<path d="M178.47 513.644L143.403 398.689L129.625 414.349L126.628 415.691L92.8688 422.625L70.4902 440.07L68.6383 442.083L64.8267 444.99L54.4285 449.574L50.1253 452.145L50.0175 452.595L47.4044 451.025L36.6227 440.849L30.7973 441.298L30.6535 441.31L46.4156 496.942L70.7719 544.393L99.0658 564.553L115.703 565.697H115.721L180.975 530.975L181.898 530.861L181.628 527.955L178.47 513.644Z" fill="#496915" stroke="white" stroke-width="3"/>
<path d="M89.1231 2L51.0483 16.2749L21.1183 47.12L6.20123 75.49L2 109.062L4.70293 155.075L4.76886 155.057L12.9915 153.271L51.9772 127.088L165.075 90.1605L166.981 88.9619L156.864 67.0342L127.881 23.1487L89.1231 2Z" fill="#496915" stroke="white" stroke-width="3"/>
<path d="M288.924 277.059L288.918 277.053L249.819 247.017L230.431 220.157L230.359 220.175L225.462 221.29L198.834 233.934L192.464 235.612L189.851 234.378L189.251 233.821L188.544 232.7L187.999 232.256L187.453 231.921L186.692 231.807L185.817 231.921L184.619 232.256L178.032 242.882L156.307 293.665L186.039 312.345L188.976 315.029L194.639 321.855L212.553 358.094L240.817 352.946L242.231 352.838L244.191 318.949L244.682 315.928L245.719 311.901H247.565L248.44 311.787L249.363 311.566L283.944 279.24L288.924 277.059Z" fill="#496915" stroke="white" stroke-width="3"/>
<path d="M395.082 344.107L376.131 337.91L344.229 319.416L288.924 277.059L283.944 279.24L249.363 311.566L248.44 311.787L247.565 311.901H245.719L244.682 315.928L244.191 318.949L242.231 352.838L286.449 393.769L290.638 398.468L308.606 432.351L336.762 395.112L351.841 389.071L366.057 380.123L368.777 377.439L391.863 349.26L395.076 344.113L395.082 344.107Z" fill="#496915" stroke="white" stroke-width="3"/>
<path d="M103.489 223.866L57.8026 217.712L22.4668 234.378L9.23378 230.914L9.16187 230.896L19.1465 400.703L30.6535 441.31L30.7973 441.298L36.6227 440.849L47.4044 451.025L50.0175 452.595L50.1253 452.145L54.4285 449.574L64.8266 444.99L68.6383 442.083L70.4902 440.07L92.8688 422.625L80.6187 369.39L66.6785 353.509L63.9576 351.939L62.9208 350.825L63.5201 350.375L63.9576 349.26L64.7188 347.247L65.2641 346.462L66.0253 345.904L68.2068 345.233L70.3823 340.978L73.325 333.823L78.8747 309.438L80.1273 305.639L84.0468 304.182L85.0297 303.511L85.4133 303.397H85.8448H86.6658L86.9895 303.176H87.373L87.8585 302.954L88.6256 302.504L90.909 300.491H91.2386L91.5623 300.377L92.2695 300.041L92.5991 299.82L94.0135 298.927L94.5049 298.591L94.9964 298.477H95.7575L96.3029 298.591H96.6265L97.2798 298.699L97.6094 298.591L98.1548 298.142L98.5863 297.692L98.8081 297.584L99.2396 297.692L99.5692 297.92L102.674 294.899L114.055 279.576L103.489 223.866Z" fill="#496915" stroke="white" stroke-width="3"/>
<path d="M308.606 432.351L290.638 398.468L286.449 393.769L242.231 352.838L240.817 352.946L212.553 358.094L197.366 376.438L193.117 379.009L143.403 398.689L178.47 513.644L299.352 467.691L308.606 432.351Z" fill="#496915" stroke="white" stroke-width="3"/>
<path d="M230.431 220.157L222.034 208.525L181.646 120.868L181.634 120.838L178.032 122.162L165.782 122.612L162.839 121.94L162.624 121.719H162.186L158.704 124.847L157.451 124.961L156.469 124.847L155.761 124.29L155 124.176L153.909 123.84L152.879 123.283L149.828 124.176L145.034 126.974L136.05 135.7L131.039 137.72L127.881 138.055L126.682 137.156L125.921 136.935L125.376 137.048L124.669 137.156H124.069L122.439 136.935L121.456 137.048L120.587 137.27L119.497 137.606H118.466L116.722 137.048L115.247 136.485L113.941 135.814L113.288 135.143L112.634 134.921L112.089 134.693L111.496 134.921L110.782 135.364L109.53 135.814L107.516 145.211L104.741 150.808L103.489 223.866L114.055 279.576L139.154 278.12L146.67 280.918L156.307 293.665L178.032 242.882L184.619 232.256L185.817 231.921L186.692 231.807L187.453 231.921L187.999 232.256L188.544 232.7L189.251 233.821L189.851 234.378L192.464 235.612L198.834 233.934L225.462 221.29L230.359 220.175L230.431 220.157Z" fill="#496915" stroke="white" stroke-width="3"/>
<path d="M250.849 637L265.251 627.843L278.286 625.554L291.747 625.734L308.3 623.708L353.231 577.755L378.013 560.591L378.019 560.585L367.741 546.293L362.353 543.608L350.318 538.909L346.776 537.795L344.763 536.231L344.817 535.332L342.15 529.297L329.792 508.052L329.192 506.374L325.758 482.781L322.168 476.968L319.064 473.839L299.352 467.691L178.47 513.644L181.628 527.955L181.898 530.861L180.975 530.975L115.721 565.697L143.829 567.723L191.163 578.9L230.095 601.259L250.849 637Z" fill="#496915" stroke="white" stroke-width="3"/>
</svg>
