<svg width="95" height="95" viewBox="0 0 95 95" fill="none" xmlns="http://www.w3.org/2000/svg">
<path d="M60.6687 40.7711H55.7485V36.4297H49.9602V40.7711H45.0415V36.4297H39.2519V40.7711H34.3318V36.4297H28.5449V46.5594H30.2811H34.3318H39.2519H40.9894H45.0415H49.9602H55.7485H60.6687H66.4568V40.7711V36.4297H60.6687V40.7711Z" fill="#D4D4D4"/>
<path d="M28.5449 72.2454H43.5V63.4839C43.5 61.1759 45.372 59.3039 47.6815 59.3039C49.9908 59.3039 51.863 61.1761 51.863 63.4839V72.2454H66.4566V49.1634H28.5449V72.2454Z" fill="#D4D4D4"/>
<path d="M21.4166 27.0974H16.4964V22.7545H10.7096V27.0974H5.78943V22.7545H0V32.8856H1.73728H5.78943H10.7096H16.4964H21.4166H27.2062V27.0974V22.7545H21.4166V27.0974Z" fill="#D4D4D4"/>
<path d="M1.2666 72.2454H25.9393V35.4897H1.2666V72.2454ZM11.4322 41.8673H15.7736V50.1154H11.4322V41.8673Z" fill="#D4D4D4"/>
<path d="M89.2115 22.7545V27.0974H84.2915V22.7545H78.5034V27.0974H73.5832V22.7545H67.7949V32.8856H69.5324H73.5832H78.5034H84.2915H89.2115H94.9998V27.0974V22.7545H89.2115Z" fill="#D4D4D4"/>
<path d="M69.0605 72.2454H93.7331V35.4897H69.0605V72.2454ZM79.2261 41.8673H83.5675V50.1154H79.2261V41.8673Z" fill="#D4D4D4"/>
</svg>
