<svg width="118" height="118" viewBox="0 0 118 118" fill="none" xmlns="http://www.w3.org/2000/svg">
<path fill-rule="evenodd" clip-rule="evenodd" d="M84.8125 14.75H95.875C97.831 14.75 99.7068 15.527 101.09 16.9101C102.473 18.2932 103.25 20.169 103.25 22.125V33.1875C103.25 34.1655 102.861 35.1034 102.17 35.795C101.478 36.4865 100.54 36.875 99.5625 36.875C98.5845 36.875 97.6466 36.4865 96.955 35.795C96.2635 35.1034 95.875 34.1655 95.875 33.1875V22.125H84.8125C83.8345 22.125 82.8966 21.7365 82.205 21.045C81.5135 20.3534 81.125 19.4155 81.125 18.4375C81.125 17.4595 81.5135 16.5216 82.205 15.83C82.8966 15.1385 83.8345 14.75 84.8125 14.75ZM96.955 82.205C97.6466 81.5135 98.5845 81.125 99.5625 81.125C100.54 81.125 101.478 81.5135 102.17 82.205C102.861 82.8966 103.25 83.8345 103.25 84.8125V95.875C103.25 97.831 102.473 99.7068 101.09 101.09C99.7068 102.473 97.831 103.25 95.875 103.25H84.8125C83.8345 103.25 82.8966 102.861 82.205 102.17C81.5135 101.478 81.125 100.54 81.125 99.5625C81.125 98.5845 81.5135 97.6466 82.205 96.955C82.8966 96.2635 83.8345 95.875 84.8125 95.875H95.875V84.8125C95.875 83.8345 96.2635 82.8966 96.955 82.205ZM22.125 95.875H33.1875C34.1655 95.875 35.1034 96.2635 35.795 96.955C36.4865 97.6466 36.875 98.5845 36.875 99.5625C36.875 100.54 36.4865 101.478 35.795 102.17C35.1034 102.861 34.1655 103.25 33.1875 103.25H22.125C20.169 103.25 18.2932 102.473 16.9101 101.09C15.527 99.7068 14.75 97.831 14.75 95.875V84.8125C14.75 83.8345 15.1385 82.8966 15.83 82.205C16.5216 81.5135 17.4595 81.125 18.4375 81.125C19.4155 81.125 20.3534 81.5135 21.045 82.205C21.7365 82.8966 22.125 83.8345 22.125 84.8125V95.875ZM22.125 14.75H33.1875C34.1655 14.75 35.1034 15.1385 35.795 15.83C36.4865 16.5216 36.875 17.4595 36.875 18.4375C36.875 19.4155 36.4865 20.3534 35.795 21.045C35.1034 21.7365 34.1655 22.125 33.1875 22.125H22.125V33.1875C22.125 34.1655 21.7365 35.1034 21.045 35.795C20.3534 36.4865 19.4155 36.875 18.4375 36.875C17.4595 36.875 16.5216 36.4865 15.83 35.795C15.1385 35.1034 14.75 34.1655 14.75 33.1875V22.125C14.75 20.169 15.527 18.2932 16.9101 16.9101C18.2932 15.527 20.169 14.75 22.125 14.75Z" fill="#D4D4D4" fill-opacity="0.666667"/>
</svg>
