<svg width="81" height="81" viewBox="0 0 81 81" fill="none" xmlns="http://www.w3.org/2000/svg">
<path fill-rule="evenodd" clip-rule="evenodd" d="M67.5001 3.37495H77.6251C79.4914 3.37495 81 4.88705 81 6.75005C81 8.61305 79.4914 10.125 77.6251 10.125H70.875V67.5001V77.6251C70.875 79.4881 69.3661 80.9998 67.4997 80.9998C65.6334 80.9998 64.1248 79.4879 64.1248 77.6249V69.1874L57.3747 64.1249V70.875C57.3747 72.738 55.8661 74.2499 53.9998 74.2499C52.1335 74.2499 50.6248 72.738 50.6248 70.875V59.0624L43.8748 53.9999V77.6249C43.8748 79.4879 42.3662 80.9998 40.4998 80.9998C38.6335 80.9998 37.1249 79.4879 37.1249 77.6249V53.9999L30.3748 59.0624V70.875C30.3748 72.738 28.8662 74.2499 26.9999 74.2499C25.1336 74.2499 23.6249 72.738 23.6249 70.875V64.1251L16.8749 69.1876V77.6251C16.8749 79.4881 15.3663 81 13.4999 81C11.6336 81 10.125 79.4881 10.125 77.6251V67.5001V10.125H3.37495C1.50863 10.125 0 8.61305 0 6.75005C0 4.88705 1.50863 3.37495 3.37495 3.37495H13.4999H37.1251C37.1251 1.51195 38.6337 0 40.5 0C42.3663 0 43.8749 1.51195 43.8749 3.37495H67.5001Z" fill="#D5D5D5"/>
</svg>
