<svg width="16" height="16" viewBox="0 0 16 16" fill="none" xmlns="http://www.w3.org/2000/svg">
<path d="M13.0041 3.47654L13.2566 4.44704L12.0916 4.67654C11.4796 2.90404 10.2216 1.44054 8.49111 1.05554C9.69061 2.07604 10.5301 3.34504 11.0376 4.72054L6.77311 5.38254C6.96961 5.05504 7.06811 4.61304 7.02011 4.13854C6.92661 3.21504 6.31561 2.52054 5.65511 2.58704C4.99461 2.65354 4.53461 3.45654 4.62811 4.38004C4.65961 4.69054 4.74961 4.97504 4.88011 5.21354C3.48961 5.25054 2.49411 5.57504 1.98511 6.40654C2.64311 7.02454 3.94461 7.13304 4.96211 6.97154L5.59511 8.69104L3.94761 15.3275H5.01411L6.92011 10.0575L10.3576 15.3275H11.4056L7.82261 8.47754L7.67511 6.26904L11.3006 5.55054C11.7856 7.36954 11.7271 9.31804 11.1806 11.0915C12.5661 9.47704 12.8106 7.03704 12.1821 4.95504L14.1676 4.56354L14.1116 4.27854H14.1121L14.1681 4.56354L13.3301 4.72854L13.5806 5.69054L15.3096 4.23454L13.0046 3.47604L13.0041 3.47654ZM5.68111 5.90654C5.66461 5.90204 5.64761 5.89754 5.63111 5.89254C5.64761 5.89804 5.66411 5.90254 5.68111 5.90654ZM5.12011 5.55104C5.12461 5.55604 5.12961 5.56154 5.13461 5.56654C5.12961 5.56154 5.12511 5.55604 5.12011 5.55104ZM5.15811 5.59154C5.16361 5.59754 5.16961 5.60304 5.17511 5.60854C5.16911 5.60304 5.16361 5.59704 5.15811 5.59154ZM5.25611 5.68154C5.26361 5.68804 5.27161 5.69404 5.27911 5.70004C5.27161 5.69404 5.26361 5.68754 5.25611 5.68154ZM5.46761 5.82354C5.47961 5.83004 5.49161 5.83604 5.50361 5.84154C5.49161 5.83554 5.47961 5.82954 5.46761 5.82354ZM5.51861 5.84854C5.53361 5.85504 5.54811 5.86154 5.56311 5.86754C5.54811 5.86154 5.53311 5.85504 5.51861 5.84854ZM5.86961 5.93504C5.88761 5.93554 5.90561 5.93554 5.92361 5.93554C5.90561 5.93604 5.88761 5.93604 5.86961 5.93504ZM5.81561 5.93054C5.83311 5.93254 5.85011 5.93354 5.86761 5.93454C5.85011 5.93404 5.83261 5.93254 5.81561 5.93054ZM5.93761 5.93454C5.95611 5.93404 5.97411 5.93254 5.99261 5.93104C5.97411 5.93304 5.95611 5.93404 5.93761 5.93454ZM6.28111 5.85054C6.27411 5.85404 6.26711 5.85654 6.26011 5.86004C6.26711 5.85704 6.27411 5.85404 6.28111 5.85054ZM6.22611 5.87404C6.21761 5.87754 6.20911 5.88004 6.20111 5.88304C6.20961 5.88004 6.21811 5.87704 6.22611 5.87404ZM6.57161 5.64304C6.57311 5.64154 6.57461 5.64004 6.57561 5.63904C6.57411 5.64054 6.57261 5.64204 6.57161 5.64304ZM6.73761 5.43854C6.73761 5.43854 6.73761 5.43904 6.73711 5.43904C6.73661 5.43904 6.73711 5.43854 6.73761 5.43854ZM6.66011 5.54454C6.65961 5.54504 6.65911 5.54554 6.65861 5.54654C6.65911 5.54604 6.65961 5.54554 6.66011 5.54454ZM6.61861 5.59304C6.61761 5.59404 6.61661 5.59504 6.61611 5.59604C6.61711 5.59504 6.61811 5.59404 6.61861 5.59304Z" fill="#005731"/>
</svg>
