<svg width="16" height="16" viewBox="0 0 16 16" fill="none" xmlns="http://www.w3.org/2000/svg">
<g clip-path="url(#clip0_943_68)">
<path d="M4.04686 0.664062L4.03417 3.15531L1.64061 2.96578L3.5498 4.96672L0.646484 5.88278C0.646484 5.88278 2.69623 6.41175 4.05467 6.832L5.62405 6.29781L4.99414 5.05762L4.77733 4.63088L5.25586 4.63281L6.53417 4.63869C6.21714 4.22181 5.94555 3.82263 5.74605 3.4795C5.17242 2.49263 4.04686 0.664062 4.04686 0.664062ZM5.73142 5.21875L6.29783 6.334L6.4502 6.63378L6.13083 6.74222L4.98052 7.13378C6.00302 7.48206 6.99311 7.88222 7.87302 8.45119L7.5977 7.45806L7.49708 7.09475L7.87405 7.08794L8.81542 7.07037C8.19261 6.55475 7.55505 5.89038 7.00095 5.22569L5.73145 5.21881L5.73142 5.21875ZM12.4775 6.61031C12.4536 6.61075 12.4293 6.61125 12.4053 6.61231L11.0684 7.96094C10.6913 8.13969 10.1728 7.988 9.60158 7.63969L8.26077 7.665L8.63483 9.01366C9.00836 9.32881 9.35389 9.68678 9.66311 10.1006C9.66333 10.1009 9.66373 10.1012 9.66405 10.1015L9.6728 10.1142C10.653 11.5451 10.8573 13.9307 8.5117 14.4248C10.7324 15.4634 11.9978 13.0054 11.499 11.3506C12.5443 12.4647 12.772 14.1626 10.9951 15.331C14.0196 15.6736 14.0513 11.9413 12.4853 10.3457C13.9068 10.6211 14.95 12.011 14.0098 13.9951C16.8532 12.8995 14.9724 9.70556 12.6211 8.90913C12.4974 9.152 12.3587 9.37116 12.1933 9.5585C12.0223 9.666 11.8491 9.71766 11.6562 9.73334C11.4205 9.75247 11.1499 9.71053 10.8428 9.61319C11.1665 9.59631 11.3962 9.4985 11.6025 9.32319C11.7665 9.18372 11.9147 8.98694 12.0517 8.73725C12.3462 7.88581 13.5479 7.54194 15.1514 8.78116C15.2692 7.82509 13.9835 6.58531 12.4775 6.61022V6.61031Z" fill="#790505"/>
</g>
<defs>
<clipPath id="clip0_943_68">
<rect width="16" height="16" fill="white"/>
</clipPath>
</defs>
</svg>
