<svg width="16" height="16" viewBox="0 0 16 16" fill="none" xmlns="http://www.w3.org/2000/svg">
<path d="M8.69379 13.5021C8.69379 13.9027 9.13517 14.2592 9.59983 14.2592C10.0544 14.2592 10.5241 13.905 10.5241 13.483C10.5241 12.6426 9.73037 12.257 9.59983 10.8059C9.49576 12.2543 8.69379 12.6954 8.69379 13.5021ZM14.8731 7.23891C15.1894 6.69913 14.8758 5.75417 14.3573 5.51816L10.5045 6.81418C10.4716 6.74688 10.4374 6.68048 10.4018 6.615L13.6083 4.32628C13.6663 4.0457 13.5503 3.69464 13.3422 3.41634C13.1341 3.13804 12.8365 2.91703 12.527 2.88702L9.25521 5.25032C9.21002 5.21667 9.16392 5.18438 9.11737 5.15391L11.2129 1.87795C11.0942 1.38273 10.3698 0.980284 9.79929 1.00075C9.71759 1.0062 9.63954 1.01303 9.56651 1.03394L6.70416 5.50679C6.30523 3.79969 5.97841 1.96162 4.1458 2.74605C4.76747 4.40813 4.94047 6.22301 5.30242 7.55723C4.42149 8.60859 3.05536 9.83412 1 10.7141V15H5.42429C6.74661 12.478 8.03514 10.699 9.10048 10.6809L9.26662 10.6745L8.36561 8.08973L8.96857 7.88964L8.00958 5.64685L9.97457 8.28118L9.1799 8.49445L10.1946 10.6395L14.4564 10.4817C14.8987 10.0638 14.9648 9.04469 14.5394 8.64497L11.0057 8.74592C11.0034 8.69135 10.9997 8.63679 10.9952 8.58267L14.8722 7.23845L14.8731 7.23891Z" fill="#8E0000"/>
</svg>
