<svg width="54" height="54" viewBox="0 0 54 54" fill="none" xmlns="http://www.w3.org/2000/svg">
<path d="M25.5681 6.75016C20.719 6.78123 16.0836 9.23049 12.6012 12.9261C8.03117 17.776 5.59166 24.6992 7.38092 30.8617C8.77774 30.1107 10.1829 29.4969 11.5668 29.037C11.0256 18.5229 19.2007 11.0307 28.6767 11.08C29.0406 9.93905 29.555 8.74874 30.2272 7.50525C28.831 7.04169 27.4271 6.79156 26.0385 6.75554C25.8817 6.75152 25.7246 6.74913 25.5681 6.75016ZM28.2357 12.6728C19.891 12.8217 12.8465 19.2548 13.1493 28.578C14.089 28.3449 15.0129 28.1868 15.9104 28.1139C17.1584 28.0126 18.3645 28.0744 19.4844 28.3219L28.8372 18.9875C28.3795 17.9398 28.109 16.8202 28.0379 15.6795C27.9767 14.7186 28.0499 13.7174 28.2596 12.6728H28.2357ZM33.4402 17.8562L31.9967 19.2968L34.6056 21.8952L36.0437 20.4599L33.4402 17.8562ZM30.2646 19.8197L20.0536 30.0107L23.8707 33.815L34.0764 23.6293L30.2646 19.8197ZM46.5059 23.7547C45.2685 24.4212 44.0837 24.9334 42.9481 25.2968C43.0122 34.7739 35.4856 42.9512 24.9267 42.3946C24.4656 43.7694 23.853 45.1659 23.1036 46.5538C29.2785 48.3399 36.2175 45.905 41.0771 41.3437C45.9566 36.7636 48.6483 30.1841 46.5059 23.7547ZM34.8729 25.0913L25.6188 34.3272C25.8951 35.485 25.9683 36.7384 25.8621 38.0382C25.7884 38.9414 25.6267 39.8716 25.3891 40.8178C34.7626 41.1352 41.2243 34.0729 41.3497 25.7155C40.2941 25.9295 39.2832 26.006 38.3132 25.945C37.0911 25.8682 35.944 25.5739 34.8729 25.0913ZM19.5297 31.7395L6.75 44.4943V47.25H9.20114L22.1333 34.3431L19.5297 31.7395Z" fill="#878787"/>
</svg>
