<svg width="16" height="16" viewBox="0 0 16 16" fill="none" xmlns="http://www.w3.org/2000/svg">
<path d="M7.57574 2.00005C6.13897 2.00925 4.76551 2.73496 3.7337 3.82997C2.37961 5.26696 1.65679 7.31828 2.18694 9.1442C2.60081 8.92169 3.01714 8.73982 3.42719 8.60355C3.26683 5.48826 5.68908 3.26835 8.4968 3.28297C8.60464 2.9449 8.75703 2.59222 8.95621 2.22378C8.54252 2.08643 8.12654 2.01231 7.7151 2.00164C7.66865 2.00045 7.62212 1.99974 7.57574 2.00005ZM8.36612 3.75489C5.89364 3.79903 3.80636 5.70511 3.89608 8.46755C4.17451 8.39849 4.44828 8.35164 4.71419 8.33004C5.08396 8.30002 5.44132 8.31833 5.77315 8.39169L8.54434 5.62594C8.40874 5.3155 8.32859 4.98378 8.30753 4.64577C8.28938 4.36105 8.31107 4.06442 8.37322 3.75489H8.36612ZM9.90819 5.29073L9.48051 5.71758L10.2535 6.48748L10.6796 6.0622L9.90819 5.29073ZM8.96729 5.87251L5.94182 8.89207L7.0728 10.0192L10.0967 7.00126L8.96729 5.87251ZM13.7795 7.03842C13.4129 7.23592 13.0618 7.38766 12.7254 7.49534C12.7444 10.3034 10.5143 12.7263 7.38568 12.5614C7.24907 12.9687 7.06756 13.3825 6.84552 13.7937C8.67512 14.3229 10.7311 13.6015 12.171 12.25C13.6168 10.8929 14.4143 8.94344 13.7795 7.03842ZM10.3327 7.43446L7.59076 10.171C7.67263 10.5141 7.69432 10.8855 7.66284 11.2706C7.641 11.5382 7.5931 11.8138 7.52269 12.0942C10.3 12.1882 12.2146 10.0957 12.2518 7.61941C11.939 7.6828 11.6395 7.70549 11.3521 7.68741C10.99 7.66464 10.6501 7.57745 10.3327 7.43446ZM5.78658 9.40428L2 13.1835V14H2.72626L6.55801 10.1757L5.78658 9.40428Z" fill="#797979"/>
</svg>
