<svg width="16" height="16" viewBox="0 0 16 16" fill="none" xmlns="http://www.w3.org/2000/svg">
<path d="M7.45097 2.5241C6.35237 2.53179 5.19972 2.79476 4.06084 3.39722C-0.93594 6.28747 1.0759 10.4666 1.44168 11.569C2.092 12.3329 2.96668 12.5923 3.76884 13.0146L3.73822 12.3833L4.32322 12.5993L4.27903 12.1307L4.9505 12.1294L3.91143 10.9626C4.21818 10.544 4.31018 9.6681 4.38675 9.21119L6.24078 9.6136L7.9929 9.41235C8.09109 10.3646 8.23953 11.3169 8.62447 12.2691L10.8045 13.4761L10.6881 12.876L11.4296 13.0058L11.356 12.4783L12.0881 12.5105L10.6618 11.2029L10.6764 9.8975C11.1273 9.40041 12.0819 9.36626 12.3063 9.51532C12.2452 10.0401 12.4235 10.267 12.5974 10.7402C12.82 11.3458 13.3192 11.7585 13.779 12.1886L13.8439 11.602L14.5459 11.7322L14.5021 11.2199L15.2663 11.3035L14.5125 10.1366C14.5277 9.48607 14.5296 8.83554 14.442 8.18501C14.3353 8.36282 14.1783 8.51626 14.0072 8.64204C13.6803 8.88235 13.2754 9.04266 12.8744 9.02722C12.598 9.01657 11.5393 9.14222 10.9726 8.31916L11.4359 8.0001C11.8037 8.53422 12.4715 8.44879 12.896 8.46516C13.1162 8.47363 13.4388 8.36182 13.6741 8.18885C13.9093 8.01588 14.0286 7.8016 14.0198 7.68188L14.0095 7.54201L14.115 7.4496C14.115 7.4496 14.2383 7.34119 14.3616 7.19316C14.4848 7.04516 14.5784 6.84922 14.5793 6.80279C14.5797 6.78441 14.5422 6.69163 14.472 6.5506C14.4019 6.40957 14.3051 6.17282 14.4136 5.92716C14.4872 5.76051 14.5735 5.66866 14.6191 5.58869C14.6633 5.51129 14.6946 5.43232 14.6983 5.24944C14.6853 5.11966 14.6625 5.08557 14.611 5.04247C14.5572 4.99744 14.4355 4.94313 14.2441 4.88238C14.1444 4.85072 14.1348 4.86482 14.0548 4.92944C13.9749 4.99407 13.8802 5.12266 13.7412 5.24779L13.6405 5.33851L13.5068 5.31622C12.8591 5.20838 12.2226 5.25526 11.6254 5.49144L11.5135 5.53569L11.4042 5.48538C11.0187 5.30772 10.7245 5.14732 10.5541 5.11097C10.4688 5.09279 10.4265 5.09754 10.3822 5.11694C10.338 5.13632 10.2759 5.18226 10.1955 5.30219C10.0982 5.44747 10.0452 5.68038 10.0788 5.87932C10.1123 6.07829 10.2059 6.23432 10.416 6.3261L10.1908 6.84154C9.8024 6.67188 9.58284 6.32135 9.52409 5.97285C9.46534 5.62435 9.54087 5.26888 9.72818 4.98919C9.8474 4.81119 9.98712 4.67591 10.1566 4.60169C10.3261 4.52744 10.5094 4.52626 10.6714 4.56079C10.9627 4.62288 11.2296 4.77569 11.5396 4.9256C11.9172 4.79097 12.3065 4.72013 12.6989 4.70479C11.4887 3.45654 9.62347 2.54057 7.55712 2.52416C7.52181 2.52387 7.48642 2.52385 7.45097 2.5241ZM13.341 5.71076C13.552 5.71076 13.723 5.91791 13.723 6.17347C13.723 6.42901 13.552 6.63619 13.341 6.63616C13.13 6.63616 12.959 6.42897 12.959 6.17347C12.959 5.91794 13.13 5.71079 13.341 5.71076ZM11.8181 5.87163C12.029 5.87166 12.2001 6.07882 12.2001 6.33435C12.2001 6.58988 12.0291 6.79704 11.8181 6.79707C11.6071 6.79707 11.4361 6.58988 11.4361 6.33435C11.4361 6.07879 11.6071 5.87163 11.8181 5.87163ZM12.7898 7.15241C13.0702 7.14719 13.3026 7.26982 13.3088 7.42632C13.3126 7.52188 13.2297 7.6126 13.0886 7.6676L13.1041 8.16363L12.5419 8.18129L12.5261 7.67579C12.3844 7.62569 12.2972 7.53932 12.2934 7.44525C12.2872 7.28875 12.5094 7.15763 12.7898 7.15241ZM4.67022 9.84185L4.90037 11.0195L6.1049 11.8176L6.02922 11.3519L6.56603 11.4335L6.3955 11.0595L6.9785 11.0898L6.33912 10.4846L6.29553 10.2682L4.67022 9.84185Z" fill="#A4A4A4"/>
</svg>
