<svg width="16" height="16" viewBox="0 0 16 16" fill="none" xmlns="http://www.w3.org/2000/svg">
<path d="M11.25 12.6667C11.25 13.2855 11.0327 13.879 10.6459 14.3166C10.2591 14.7542 9.73451 15 9.1875 15H5.0625C4.51549 15 3.99089 14.7542 3.60409 14.3166C3.2173 13.879 3 13.2855 3 12.6667V5.66686H11.9375C12.4845 5.66686 13.0091 5.91269 13.3959 6.35026C13.7827 6.78784 14 7.38132 14 8.00014V10.3334C14 10.9523 13.7827 11.5457 13.3959 11.9833C13.0091 12.4209 12.4845 12.6667 11.9375 12.6667H11.25ZM4.15975 4.11133C3.55723 4.11133 3.08018 3.56388 3.37557 3.03874C3.5101 2.79957 3.67792 2.58368 3.87446 2.40027C4.33617 1.96941 4.92324 1.74868 5.52106 1.78116C5.95237 1.3856 6.46982 1.12865 7.01915 1.03725C7.56847 0.945853 8.12941 1.02338 8.64312 1.2617C9.15684 1.50002 9.60439 1.89034 9.93884 2.39173C10.0744 2.595 10.1894 2.81348 10.2823 3.04303C10.504 3.59099 10.0314 4.11133 9.44032 4.11133H4.15975ZM5.75 7.22238C5.56766 7.22238 5.3928 7.30432 5.26386 7.45018C5.13493 7.59604 5.0625 7.79387 5.0625 8.00014V11.1112C5.0625 11.3175 5.13493 11.5153 5.26386 11.6612C5.3928 11.807 5.56766 11.889 5.75 11.889C5.93234 11.889 6.1072 11.807 6.23614 11.6612C6.36507 11.5153 6.4375 11.3175 6.4375 11.1112V8.00014C6.4375 7.79387 6.36507 7.59604 6.23614 7.45018C6.1072 7.30432 5.93234 7.22238 5.75 7.22238ZM8.5 7.22238C8.31766 7.22238 8.1428 7.30432 8.01386 7.45018C7.88493 7.59604 7.8125 7.79387 7.8125 8.00014V11.1112C7.8125 11.3175 7.88493 11.5153 8.01386 11.6612C8.1428 11.807 8.31766 11.889 8.5 11.889C8.68234 11.889 8.8572 11.807 8.98614 11.6612C9.11507 11.5153 9.1875 11.3175 9.1875 11.1112V8.00014C9.1875 7.79387 9.11507 7.59604 8.98614 7.45018C8.8572 7.30432 8.68234 7.22238 8.5 7.22238ZM11.25 7.22238V11.1112H11.9375C12.1198 11.1112 12.2947 11.0292 12.4236 10.8834C12.5526 10.7375 12.625 10.5397 12.625 10.3334V8.00014C12.625 7.79387 12.5526 7.59604 12.4236 7.45018C12.2947 7.30432 12.1198 7.22238 11.9375 7.22238H11.25Z" fill="#9A6504"/>
</svg>
