<svg width="54" height="54" viewBox="0 0 54 54" fill="none" xmlns="http://www.w3.org/2000/svg">
<path d="M13.6584 2.24121L13.6156 10.6492L5.5373 10.0095L11.9808 16.7627L2.18213 19.8544C2.18213 19.8544 9.10004 21.6397 13.6848 23.058L18.9814 21.2551L16.8555 17.0695L16.1237 15.6292L17.7388 15.6357L22.0531 15.6556C20.9831 14.2486 20.0665 12.9014 19.3932 11.7433C17.4572 8.41261 13.6584 2.24121 13.6584 2.24121ZM19.3438 17.6133L21.2554 21.3773L21.7697 22.389L20.6918 22.755L16.8095 24.0765C20.2604 25.252 23.602 26.6025 26.5717 28.5228L25.6425 25.171L25.3029 23.9448L26.5752 23.9218L29.7523 23.8625C27.6503 22.1223 25.4985 19.88 23.6285 17.6367L19.3439 17.6135L19.3438 17.6133ZM42.1119 22.3098C42.0313 22.3113 41.9491 22.313 41.8682 22.3166L37.356 26.8682C36.0833 27.4714 34.3335 26.9595 32.4056 25.7839L27.8803 25.8694L29.1428 30.4211C30.4035 31.4847 31.5696 32.6929 32.6132 34.0895C32.614 34.0906 32.6154 34.0914 32.6164 34.0927L32.6459 34.1355C35.9542 38.9647 36.6435 47.0161 28.7272 48.6836C36.2222 52.189 40.4929 43.8932 38.8094 38.3081C42.3374 42.0684 43.1058 47.7988 37.1086 51.7421C47.3163 52.8983 47.4235 40.3019 42.1381 34.9167C46.9356 35.8461 50.4564 40.5371 47.2832 47.2333C56.8798 43.5359 50.532 32.7563 42.5964 30.0683C42.1789 30.888 41.7109 31.6277 41.1527 32.2599C40.5755 32.6228 39.9911 32.7971 39.34 32.85C38.5445 32.9146 37.6312 32.773 36.5947 32.4445C37.687 32.3876 38.4625 32.0574 39.1586 31.4658C39.7123 30.9951 40.2123 30.3309 40.6749 29.4882C41.6688 26.6146 45.7245 25.454 51.1361 29.6364C51.5337 26.4097 47.1944 22.2254 42.1119 22.3095V22.3098Z" fill="#790505"/>
</svg>
