<svg width="16" height="16" viewBox="0 0 16 16" fill="none" xmlns="http://www.w3.org/2000/svg">
<path d="M15.3333 7.66667L13.2999 6.91333C13.1266 6.14667 12.6933 5.70667 12.6933 5.70667C12.4338 5.44684 12.1257 5.24071 11.7865 5.10007C11.4473 4.95943 11.0838 4.88704 10.7166 4.88704C10.3494 4.88704 9.98583 4.95943 9.64666 5.10007C9.30748 5.24071 8.99936 5.44684 8.73992 5.70667L7.75325 6.69333L3.33325 2C2.66659 4.66667 3.33325 7.33333 4.96659 9.48L1.33325 13C1.33325 13 7.25992 14.3333 10.7133 11.6333C12.5533 10.1933 12.9666 9.35333 13.2266 8.46667L15.3333 7.66667ZM11.8066 7.81333C11.5466 8.07333 11.1199 8.07333 10.8599 7.81333C10.7981 7.75166 10.7491 7.6784 10.7156 7.59775C10.6822 7.5171 10.665 7.43065 10.665 7.34333C10.665 7.25602 10.6822 7.16957 10.7156 7.08892C10.7491 7.00827 10.7981 6.93501 10.8599 6.87333C11.1199 6.61333 11.5466 6.61333 11.8066 6.87333C12.0666 7.13333 12.0666 7.55333 11.8066 7.81333Z" fill="#528D33"/>
</svg>
