<svg width="16" height="16" viewBox="0 0 16 16" fill="none" xmlns="http://www.w3.org/2000/svg">
<path d="M6.25011 3.24H6.26011C6.67011 3.24 7.00011 2.91 7.00011 2.5H6.05011V2.506C5.22415 2.55644 4.44859 2.92024 3.88176 3.52312C3.31494 4.126 2.99959 4.9225 3.00011 5.75H3.12111C3.07451 5.86064 3.07015 5.98454 3.10887 6.09819C3.14758 6.21183 3.22666 6.30731 3.33111 6.3665C3.2707 6.40599 3.22106 6.45989 3.18667 6.52335C3.15227 6.58681 3.13421 6.65782 3.13411 6.73C3.13411 7.245 3.34711 7.7085 3.68861 8.04C3.60061 8.25667 3.54311 8.50567 3.51611 8.787L1.86261 7.13C1.63761 6.91 1.26261 7.08 1.27761 7.395C1.30261 8.02 1.55761 8.635 2.03261 9.11C2.44302 9.52233 2.98119 9.78322 3.55911 9.85C3.57911 9.967 3.60344 10.082 3.63211 10.195H1.34261C1.02761 10.195 0.882611 10.58 1.11261 10.795C1.50009 11.1506 1.98698 11.3793 2.50806 11.4504C3.02913 11.5215 3.5595 11.4317 4.02811 11.193C4.08611 11.2977 4.14811 11.3997 4.21411 11.499C3.83183 11.7032 3.50716 12.0005 3.27008 12.3633C3.03299 12.7262 2.89114 13.1429 2.85761 13.575C2.83261 13.89 3.20261 14.07 3.43261 13.86L5.00461 12.3945C5.12161 12.4958 5.24394 12.5908 5.37161 12.6795C5.34672 12.8083 5.33201 12.9389 5.32761 13.07C5.30261 13.75 5.53761 14.375 5.94761 14.855C6.15261 15.095 6.54761 14.965 6.55761 14.645L6.60861 13.288C7.059 13.4289 7.52821 13.5004 8.00011 13.5C8.47115 13.5003 8.9395 13.4289 9.38911 13.2885L9.43761 14.585C9.44761 14.905 9.84261 15.035 10.0476 14.795C10.4576 14.315 10.6926 13.69 10.6676 13.01C10.6639 12.898 10.6527 12.7865 10.6341 12.676C10.7544 12.5917 10.8703 12.502 10.9816 12.407L12.5426 13.86C12.7726 14.075 13.1476 13.89 13.1226 13.575C13.0726 12.95 12.7926 12.34 12.2976 11.875C12.1429 11.7296 11.971 11.6036 11.7856 11.5C11.8539 11.397 11.9181 11.291 11.9781 11.182C12.3358 11.3584 12.7293 11.45 13.1281 11.45C13.8081 11.45 14.4281 11.19 14.8881 10.765C15.1231 10.55 14.9731 10.16 14.6581 10.16H12.3771C12.4056 10.0451 12.4289 9.92898 12.4471 9.812C13.0193 9.74007 13.551 9.47889 13.9576 9.07C14.4376 8.59 14.6926 7.97 14.7176 7.34C14.7326 7.025 14.3526 6.85 14.1276 7.075L12.4776 8.725C12.4524 8.46939 12.3886 8.21907 12.2886 7.9825C12.6092 7.6444 12.7875 7.19595 12.7866 6.73C12.7865 6.65826 12.7686 6.58767 12.7346 6.52451C12.7006 6.46135 12.6514 6.40758 12.5916 6.368C12.6969 6.30926 12.7769 6.21373 12.8162 6.09971C12.8555 5.98568 12.8514 5.86117 12.8046 5.75H13.0001C13.0006 4.93117 12.6918 4.14236 12.1355 3.54148C11.5793 2.94061 10.8166 2.57202 10.0001 2.5095V2.5H9.00011C9.00011 2.91 9.33011 3.24 9.74011 3.24H9.75011V3.405H9.74011C9.33011 3.405 9.00011 3.735 9.00011 4.145H9.80661C9.91658 4.60213 10.1771 5.00899 10.5463 5.30011C10.9155 5.59123 11.3719 5.74969 11.8421 5.75H11.9011C11.8543 5.86117 11.8502 5.98568 11.8895 6.09971C11.9288 6.21373 12.0088 6.30926 12.1141 6.368C12.0543 6.40758 12.0052 6.46135 11.9711 6.52451C11.9371 6.58767 11.9192 6.65826 11.9191 6.73C11.9191 6.929 11.8581 7.1135 11.7541 7.2665C11.3156 6.8995 10.7066 6.705 9.98911 6.604C10.004 6.53465 10.0039 6.46293 9.98898 6.3936C9.97401 6.32427 9.94446 6.25892 9.9023 6.20189C9.86014 6.14485 9.80632 6.09744 9.74443 6.0628C9.68254 6.02816 9.61399 6.00709 9.54332 6.00098C9.47266 5.99487 9.40151 6.00386 9.33459 6.02735C9.26766 6.05085 9.20651 6.08832 9.15518 6.13727C9.10385 6.18621 9.06352 6.24552 9.03687 6.31125C9.01022 6.37698 8.99786 6.44763 9.00061 6.5185C8.66728 6.50508 8.33371 6.49891 8.00011 6.5C7.65544 6.49933 7.32211 6.5055 7.00011 6.5185V6.5C7.00001 6.42995 6.9852 6.36069 6.95662 6.29673C6.92804 6.23277 6.88634 6.17553 6.83422 6.12872C6.7821 6.08191 6.72073 6.04657 6.65408 6.025C6.58743 6.00342 6.51699 5.9961 6.44732 6.00349C6.37766 6.01089 6.31033 6.03284 6.24969 6.06793C6.18906 6.10301 6.13647 6.15045 6.09535 6.20716C6.05422 6.26387 6.02547 6.3286 6.01096 6.39713C5.99645 6.46567 5.9965 6.53649 6.01111 6.605C5.26711 6.71 4.63961 6.916 4.19761 7.31C4.07007 7.14359 4.00115 6.93966 4.00161 6.73C4.00161 6.58 3.92511 6.447 3.80911 6.3695C3.91516 6.31105 3.99581 6.21541 4.03551 6.10102C4.07521 5.98662 4.07115 5.86158 4.02411 5.75H4.15811C4.62829 5.74969 5.08469 5.59123 5.45389 5.30011C5.8231 5.00899 6.08364 4.60213 6.19361 4.145H7.00011C7.00011 3.735 6.67011 3.405 6.26011 3.405H6.25011V3.24Z" fill="#D63200"/>
</svg>
