<svg width="16" height="16" viewBox="0 0 16 16" fill="none" xmlns="http://www.w3.org/2000/svg">
<g clip-path="url(#clip0_947_166)">
<path d="M10.4309 3.47054C11.2374 2.66054 11.4114 1.52154 10.8194 0.927043C10.2274 0.332543 9.09344 0.507043 8.28694 1.31704C7.48044 2.12704 7.30644 3.26604 7.89844 3.86054C8.49044 4.45504 9.62444 4.28054 10.4309 3.47054ZM12.3664 1.94454C17.4639 6.56104 4.80994 5.84904 0.814941 1.03954C1.78294 2.43454 3.16794 3.52954 4.70244 4.34804L3.71794 4.12054C4.66044 4.71704 5.73144 5.21604 6.85594 5.60154C5.05044 6.44704 5.02494 9.17904 4.98244 11.174H6.26044L6.59944 15.702H9.84694L10.1469 11.174H11.3599C11.4554 9.41004 11.3764 7.55304 10.4659 6.41904C11.5744 6.54404 12.6589 6.54854 13.6529 6.41654L12.8279 6.22604C15.7149 6.00804 16.7539 4.47454 12.3664 1.94504V1.94454Z" fill="#9B6000"/>
</g>
<defs>
<clipPath id="clip0_947_166">
<rect width="16" height="16" fill="white"/>
</clipPath>
</defs>
</svg>
