<svg width="16" height="16" viewBox="0 0 16 16" fill="none" xmlns="http://www.w3.org/2000/svg">
<path d="M4.35314 0.632812L3.85002 0.773438C4.14377 1.82031 4.54689 2.37031 5.00627 2.65781C5.47189 2.95156 6.00939 2.97656 6.59689 2.92344C7.37814 2.85156 8.25939 2.62344 9.15939 2.95781C9.40314 3.06719 9.65939 3.20625 9.93127 3.39062C10.075 3.34688 10.2 3.29062 10.325 3.25C10.325 3.25 10.425 2.92969 10.2625 2.52031C10.1219 2.16094 9.77189 1.70781 8.88752 1.38906L8.71252 1.87656C9.25627 2.07656 9.55002 2.32344 9.70002 2.55781C9.72189 2.59219 9.73752 2.62344 9.75314 2.65469C9.63439 2.59219 9.51252 2.53594 9.39377 2.49219C8.51564 2.08594 7.81252 2.06094 7.25002 1.99844C6.95002 1.96719 6.69689 1.92969 6.48752 1.77969C6.27814 1.62656 6.12189 1.36094 5.98752 0.898438L5.48752 1.04531C5.66564 1.65781 5.90314 1.99531 6.18127 2.19844C6.30627 2.28906 6.44064 2.35469 6.58439 2.40156C6.09064 2.42812 5.62502 2.4225 5.28127 2.21719C4.90002 1.97656 4.59689 1.50156 4.35314 0.632812ZM7.15002 0.745313C7.12189 1.09531 7.18439 1.37969 7.28752 1.61094C7.52814 1.64094 7.73752 1.64531 7.95627 1.68281C7.78752 1.49531 7.63752 1.20781 7.66877 0.782812L7.15002 0.745313ZM10.9094 1.16719L10.5688 1.55781C10.825 1.78281 10.8969 2.05156 10.8969 2.27969C10.7594 2.15719 10.6344 2.07563 10.4875 2.00156C10.7125 2.26469 10.7438 2.73156 10.7594 2.98281L11.2438 3.03594C11.2438 3.03594 11.7938 1.93594 10.9094 1.16719ZM8.38752 3.33437C7.84064 3.39687 7.55002 3.25313 7.37502 3.76562C7.37502 3.76562 7.96252 4.6375 9.52814 4.61562C9.44064 4.97187 9.48127 5.23438 9.48127 5.55C9.48127 6.6 8.63752 7.51562 6.77814 7.51562C5.83439 7.51562 4.68752 7.68437 3.81252 8.15625C3.19064 8.49062 2.70408 8.975 2.48877 9.64688L2.73283 9.9875L3.20002 9.99375V11.9219L2.63002 12.8062L2.79377 15.3687H3.33439L3.38127 13.3062C3.65002 13.15 4.26564 12.7437 4.79064 12.1187C5.50314 11.2781 6.05002 10.0562 5.40627 8.54375L5.88752 8.34062C6.41564 9.58125 6.23127 10.6563 5.76877 11.5219C6.65314 11.4938 7.41252 11.4375 8.05627 11.3313L7.90939 9.57187L8.42814 9.52812L8.92189 15.3687H9.45939L9.55002 11.5656C9.97814 11.3844 10.9531 10.7188 11.4094 8.40625C11.4656 8.125 11.4969 7.8875 11.5125 7.68437C11.5844 7.16875 11.625 6.5875 11.6375 5.925L10.8719 5.68437H13.225L13.4531 5.16875C13.2313 5.17812 12.9656 5.0625 12.9656 5.0625L13.0188 4.8125H13.5125L10.8406 3.42812C10.5438 3.54062 10.2313 3.6875 10.0125 3.86562C9.83752 3.74062 9.23127 3.35 8.38752 3.33437ZM11.3719 10.4156C11.0688 10.9812 10.7438 11.4031 10.4625 11.7031L11.9344 12.3531L11.2813 13.8375L11.75 14.0562L12.7938 12.0312L11.4094 10.8625C11.3969 10.7906 11.3813 10.65 11.3719 10.4156ZM6.56564 12.0031C6.21252 12.025 5.83752 12.0406 5.43752 12.0469C5.16564 12.4062 4.85314 12.7531 4.52814 13.0219L4.80002 15.3656H5.33439V13.3344C5.56252 13.1469 6.11252 12.6688 6.56564 12.0031Z" fill="#857500"/>
</svg>
