<svg width="54" height="54" viewBox="0 0 54 54" fill="none" xmlns="http://www.w3.org/2000/svg">
<path d="M14.6917 2.13574L12.9936 2.61035C13.985 6.14355 15.3456 7.99981 16.896 8.97012C18.4675 9.96152 20.2815 10.0459 22.2643 9.8666C24.9011 9.62402 27.8753 8.8541 30.9128 9.98262C31.7354 10.3518 32.6003 10.8211 33.5179 11.4434C34.003 11.2957 34.4249 11.1059 34.8468 10.9688C34.8468 10.9688 35.1843 9.8877 34.6358 8.50605C34.1612 7.29316 32.98 5.76387 29.9952 4.68809L29.4046 6.3334C31.2397 7.0084 32.2311 7.8416 32.7374 8.63262C32.8112 8.74863 32.8639 8.8541 32.9167 8.95957C32.5159 8.74863 32.1046 8.55879 31.7038 8.41113C28.7401 7.04004 26.3671 6.95566 24.4686 6.74473C23.4561 6.63926 22.6018 6.5127 21.8952 6.00645C21.1886 5.48965 20.6612 4.59316 20.2077 3.03223L18.5202 3.52793C19.1214 5.59512 19.9229 6.73418 20.8616 7.41973C21.2835 7.72559 21.737 7.94707 22.2221 8.10527C20.5557 8.19492 18.9843 8.17594 17.8241 7.48301C16.5374 6.6709 15.5143 5.06777 14.6917 2.13574ZM24.1311 2.51543C24.0362 3.69668 24.2471 4.65645 24.5952 5.43691C25.4073 5.53816 26.1139 5.55293 26.8522 5.67949C26.2827 5.04668 25.7764 4.07637 25.8819 2.64199L24.1311 2.51543ZM36.819 3.93926L35.6694 5.25762C36.5343 6.01699 36.7768 6.92402 36.7768 7.69394C36.3128 7.28051 35.8909 7.00523 35.3952 6.75527C36.1546 7.64332 36.26 9.21902 36.3128 10.067L37.9475 10.2463C37.9475 10.2463 39.8038 6.53379 36.819 3.93926ZM28.3077 11.2535C26.462 11.4645 25.4811 10.9793 24.8905 12.709C24.8905 12.709 26.8733 15.6516 32.1573 15.5777C31.862 16.7801 31.9991 17.666 31.9991 18.7313C31.9991 22.275 29.1514 25.3652 22.8761 25.3652C19.6909 25.3652 15.8202 25.9348 12.8671 27.5273C10.7682 28.6559 9.12609 30.2906 8.39941 32.5582L9.22312 33.7078L10.7999 33.7289V40.2363L8.87613 43.2211L9.42879 51.8695H11.2534L11.4116 44.9086C12.3186 44.3812 14.3964 43.0102 16.1682 40.9008C18.5729 38.0637 20.4186 33.9398 18.246 28.8352L19.8702 28.1496C21.6526 32.3367 21.0304 35.9648 19.4694 38.8863C22.4542 38.7914 25.0171 38.6016 27.1897 38.243L26.694 32.3051L28.4448 32.1574L30.1112 51.8695H31.9253L32.2311 39.034C33.6761 38.4223 36.9667 36.1758 38.5065 28.3711C38.6964 27.4219 38.8018 26.6203 38.8546 25.9348C39.0971 24.1945 39.2343 22.2328 39.2764 19.9969L36.6925 19.1848H44.6343L45.4042 17.4445C44.6554 17.4762 43.7589 17.0859 43.7589 17.0859L43.9382 16.2422H45.6046L36.587 11.5699C35.585 11.9496 34.5304 12.4453 33.7921 13.0465C33.2014 12.6246 31.1554 11.3062 28.3077 11.2535ZM38.38 35.1527C37.3569 37.0617 36.26 38.4855 35.3108 39.498L40.2784 41.6918L38.0741 46.7016L39.6561 47.4398L43.1788 40.6055L38.5065 36.6609C38.4643 36.4184 38.4116 35.9437 38.38 35.1527ZM22.1589 40.5105C20.9671 40.5844 19.7014 40.6371 18.3514 40.6582C17.4339 41.8711 16.3792 43.0418 15.2823 43.9488L16.1999 51.859H18.0034V45.0035C18.7733 44.3707 20.6296 42.757 22.1589 40.5105Z" fill="#857500"/>
</svg>
