<svg width="16" height="16" viewBox="0 0 16 16" fill="none" xmlns="http://www.w3.org/2000/svg">
<path d="M9.1692 14.0616H6.27689C6.40182 13.9772 6.6092 13.7883 6.6092 13.5034C6.6092 13.2296 6.53351 12.84 6.32982 12.2948C6.59074 12.0129 6.78274 11.6819 6.88982 11.3317C7.01166 11.3705 7.13597 11.4111 7.26397 11.4536C7.60859 11.5656 7.98274 11.688 8.39566 11.7988C8.17289 12.1212 7.87135 12.416 7.46459 12.6905C7.31689 12.7902 7.26643 12.8566 7.26643 13.0049C7.26643 13.2277 7.55012 13.4129 7.83566 13.4997C8.06705 13.5692 8.31689 13.5994 8.55997 13.5994C8.86151 13.5994 9.07997 13.8172 9.1692 14.0616ZM13.4184 6.24802L13.1421 5.9834C12.9507 5.75755 12.9274 5.4234 12.7784 5.08555C12.5618 4.59509 12.2652 4.30771 12.2652 4.30771C12.2652 4.66525 12.1452 4.90402 12.1452 4.90402C12.1452 4.90402 11.7198 4.67731 11.1649 4.74438C10.6558 4.74752 10.1813 4.44143 9.98477 3.95466L9.98452 3.95392C9.98452 3.95392 9.98452 3.95398 9.98452 3.95405C9.98452 3.95398 9.98458 3.95398 9.98452 3.95392C9.98452 3.95405 9.98446 3.95411 9.98446 3.95423C9.98311 3.96014 9.83603 4.61798 10.4054 5.03257C10.3968 5.03842 10.3881 5.04432 10.3794 5.05042C10.0237 5.16691 9.62286 5.05688 9.37905 4.75805C9.37905 4.75817 9.37911 4.75823 9.37917 4.75835L9.37899 4.75811C9.37899 4.75811 9.32243 5.19048 9.59818 5.44968C9.6828 5.52918 9.77566 5.5634 9.86379 5.573C9.69948 5.81368 9.58465 6.09694 9.57843 6.39577C9.56058 7.22777 10.0781 7.68315 10.6381 8.29362C10.7323 8.37608 10.792 8.49854 10.792 8.63448C10.792 8.89928 10.5482 9.11472 10.2855 9.08826C10.0323 9.06278 9.76988 8.81251 9.59222 8.64672C9.1412 8.22574 8.82582 7.6714 8.65308 7.0818C8.54477 6.71226 8.49185 6.32709 8.49185 5.94217C8.49185 5.17208 8.70292 4.46168 9.0588 3.89023C7.97166 2.67958 6.37055 1.93848 4.61535 1.93848C4.42742 1.93848 4.18329 1.98278 3.99997 2.00002C4.80175 2.50795 5.41591 3.34752 5.41591 4.36666C5.41591 5.25005 5.01609 6.04008 4.38791 6.56592C5.44655 6.74678 6.29135 7.55485 6.52557 8.59435C5.98292 8.67762 5.47585 8.83072 5.00563 9.03595C3.72182 9.59558 2.76748 10.6185 2.02366 11.1717C1.90625 11.259 1.72803 11.3255 1.57031 11.3255C1.05462 11.3255 0.81997 10.77 1.03892 10.352C1.34139 9.77768 2.22157 9.09762 2.22157 8.53571C2.22157 8.07325 1.87117 7.7762 1.64803 7.6338C1.85031 7.45343 2.0964 7.3474 2.35012 7.3178L0.616524 6.77478L1.22225 8.48746C1.24169 8.24445 1.33111 8.00586 1.48951 7.80309C1.70717 8.00525 2.01979 8.41915 1.57597 8.86303C1.28428 9.15417 1.07677 9.29891 0.683908 9.65109C0.682247 9.65257 0.68077 9.65417 0.679108 9.65565C0.347724 9.93423 0.123047 10.3332 0.123047 10.8C0.123047 11.6391 0.817201 12.3377 1.65628 12.3377C2.14385 12.3377 2.57406 12.0697 2.93179 11.7614C3.21382 11.5182 3.51326 11.2848 3.84132 11.1058C4.26655 10.8739 4.7356 10.7627 5.21609 10.7443C5.142 11.4778 4.52274 12.0503 3.76963 12.0503C3.56059 12.0503 3.36262 12.0061 3.18243 11.9271C3.14932 12.0537 3.11394 12.2291 3.1204 12.4208C3.14009 13.0062 3.32859 13.1806 3.32859 13.5034C3.32859 13.7883 3.14059 13.9772 3.01535 14.0616H5.90766C5.81843 13.8171 5.58046 13.5995 5.2788 13.5995C5.03622 13.5995 4.78637 13.5695 4.55474 13.4995C4.26895 13.4132 3.98883 13.2613 3.98883 13.0387C3.98883 12.8902 4.08815 12.799 4.24465 12.8016C4.39277 12.8127 4.57511 12.8212 4.72391 12.8127C5.68908 12.7268 6.53745 11.9177 6.68286 10.9712C7.48908 11.2094 8.37935 11.5707 9.52637 11.7536C9.75714 12.2593 10.0663 13.055 9.96477 13.5033C9.90428 13.7705 9.7868 13.9771 9.66151 14.0615H12.5538C12.4646 13.817 12.2166 13.5994 11.9149 13.5994C11.6723 13.5994 11.4225 13.5694 11.1909 13.4995C10.9051 13.4131 10.7505 13.2276 10.7081 12.9415C10.6904 12.8222 10.6222 12.1605 10.6763 11.863C10.6736 11.8787 11.1176 11.8353 11.1493 11.8313C11.3629 11.8041 11.566 11.7796 11.7655 11.6942C12.8749 11.2195 13.3504 9.87515 12.8699 8.78992C12.662 8.32032 12.3179 7.93128 11.9397 7.59078C11.6467 7.32709 11.3037 7.101 11.045 6.80186C10.8277 6.5514 10.8813 6.28494 11.0173 6.14278C11.1822 5.96986 11.5188 5.96002 11.6751 6.1514C11.8259 6.33602 12.1914 6.76248 12.3779 6.97909C12.4462 7.05848 12.5563 7.08678 12.6548 7.05048L12.9225 6.95017L12.7083 6.85848C12.7083 6.85848 12.4966 6.39325 12.4203 6.20309L13.1108 6.54832L13.0757 6.84125L13.421 6.50155C13.4917 6.4314 13.4904 6.31694 13.4184 6.24802ZM12.9846 14.0616H15.8769C15.7883 13.8172 15.5797 13.5994 15.2781 13.5994C15.0357 13.5994 14.7834 13.576 14.5538 13.4997C14.003 13.3157 13.3304 12.1225 12.7901 11.2708C12.5403 11.5711 12.2197 11.8105 11.8541 11.9631C12.5015 12.4794 13.275 13.1606 13.328 13.5034C13.3698 13.7742 13.1095 13.9772 12.9846 14.0616ZM14.2873 8.40623C14.7603 8.52752 15.5473 8.49762 15.8769 7.78463C15.0912 8.31048 14.4814 7.91054 14.4814 7.91054C14.4814 7.91054 14.8546 7.67448 14.8094 7.34069C13.7789 7.72728 13.087 7.11583 13.087 7.11583C13.2415 7.83183 13.8622 8.29725 14.2873 8.40623Z" fill="#B70B0B"/>
</svg>
