<svg width="54" height="54" viewBox="0 0 54 54" fill="none" xmlns="http://www.w3.org/2000/svg">
<path d="M24.0415 3.375C24.6913 5.35612 25.9521 7.52683 24.4295 8.43463C20.6858 10.6455 16.5349 12.5975 14.1297 17.5327C10.5024 24.9657 9.37643 42.6504 3.375 46.5624C8.08847 46.9436 12.0736 44.9274 13.9357 42.1287C14.6243 45.5694 17.0974 48.8495 20.0457 50.625C19.5414 47.716 19.8712 44.6666 21.8884 41.3463C23.4887 43.6434 24.9047 47.2947 29.0459 48.8997C27.4554 46.1411 27.7172 43.6033 28.0082 40.4536C28.8617 43.1519 31.7421 45.4691 35.0784 46.3618C33.449 44.4961 32.7605 41.7977 33.0417 39.7414C34.4577 42.2391 37.2509 43.5933 39.5494 43.7237C24.6816 25.708 34.8262 14.4733 47.25 24.2234C47.2015 19.238 44.2047 17.5327 40.7326 14.6238C40.6453 13.079 39.8016 11.6847 39.0354 10.2743C33.8273 9.27222 27.2517 6.0603 24.0415 3.375ZM31.9167 10.8862C34.448 11.9756 36.3974 13.1492 37.3866 14.4432C35.7767 14.0821 33.5266 14.0921 30.5977 14.3329C32.0525 13.3599 32.1979 12.1561 31.9167 10.8862Z" fill="#005589"/>
</svg>
