<svg width="16" height="16" viewBox="0 0 16 16" fill="none" xmlns="http://www.w3.org/2000/svg">
<path d="M7.12341 1C7.31594 1.587 7.68952 2.23017 7.23836 2.49915C6.12914 3.15421 4.89922 3.73259 4.18656 5.19489C3.11183 7.39725 2.7782 12.6371 1 13.7963C2.39658 13.9092 3.57736 13.3118 4.12909 12.4826C4.33312 13.502 5.06589 14.4739 5.93948 15C5.79005 14.1381 5.88775 13.2345 6.48547 12.2508C6.95961 12.9314 7.37916 14.0132 8.6062 14.4888C8.13493 13.6715 8.21252 12.9195 8.29872 11.9862C8.5516 12.7858 9.40507 13.4723 10.3936 13.7368C9.91083 13.184 9.7068 12.3845 9.79014 11.7752C10.2097 12.5153 11.0373 12.9165 11.7183 12.9552C7.31307 7.61719 10.3189 4.28838 14 7.17731C13.9856 5.70015 13.0977 5.19489 12.0689 4.33297C12.0431 3.87525 11.7931 3.46213 11.566 3.04424C10.0229 2.74733 8.07458 1.79564 7.12341 1ZM9.4568 3.22554C10.2068 3.54832 10.7844 3.89606 11.0775 4.27947C10.6005 4.17247 9.93382 4.17544 9.06598 4.24677C9.49703 3.95847 9.54013 3.60182 9.4568 3.22554Z" fill="#005589"/>
</svg>
