<svg width="16" height="16" viewBox="0 0 16 16" fill="none" xmlns="http://www.w3.org/2000/svg">
<path d="M7.7275 3.11694L7.5 3L7.2725 3.11694C6.70017 3.41038 6.17853 3.79421 5.7275 4.25376C6.38408 4.59661 6.98235 5.04181 7.5 5.57278C8.0175 5.04185 8.61559 4.59666 9.272 4.25376C8.82113 3.79426 8.29965 3.41043 7.7275 3.11694ZM6.8495 6.3417C5.97749 5.41902 4.83648 4.79766 3.5905 4.56695L3 4.45754V8.48283C2.9998 9.38944 3.27137 10.2751 3.77938 11.0247C4.2874 11.7743 5.00836 12.3531 5.8485 12.6858C5.61702 11.9772 5.49938 11.2362 5.5 10.4905C5.5 8.93857 6.0005 7.50412 6.8495 6.3417ZM12 4.45804L11.41 4.56695C8.616 5.08191 6.5 7.53774 6.5 10.4905C6.5 11.2614 6.645 11.9997 6.9085 12.6788L7.0285 12.9875C7.1855 12.9925 7.343 13 7.5 13C8.69347 13 9.83807 12.5241 10.682 11.677C11.5259 10.8298 12 9.68086 12 8.48283V4.45804Z" fill="#1C3DBD"/>
</svg>
