<svg width="16" height="16" viewBox="0 0 16 16" fill="none" xmlns="http://www.w3.org/2000/svg">
<g clip-path="url(#clip0_945_91)">
<path d="M15.2694 8.96673C15.2694 8.96673 4.42938 8.96673 4.34075 8.96673C3.10513 8.96673 2.1095 7.97973 2.1095 6.74411C2.1095 6.13242 2.35562 5.57861 2.75319 5.17436L4.19925 6.62042C5.03675 7.45792 6.39481 7.45792 7.23231 6.62042L5.02506 4.41311C4.502 3.89067 3.68606 3.84267 3.10763 4.26604C3.531 3.68761 3.483 2.87167 2.96056 2.34861L0.75325 0.141357C-0.08425 0.978857 -0.08425 2.33692 0.75325 3.17442L2.04363 4.46479C0.848063 5.51892 0.125 6.88867 0.125 8.38704C0.125 11.6921 3.64356 14.375 8.0015 14.4107V15.8587C8.0015 15.8587 8.69375 15.874 9.27525 15.3906C9.715 15.025 9.97069 14.4615 9.97069 13.8895V12.1063C10.7658 11.918 12.0469 11.4928 13.0573 10.4436H13.5465C12.9041 11.2922 11.6192 12.0614 10.3399 12.393V13.0927C12.1626 12.6398 13.6056 11.6657 14.3778 10.4436H14.8067C14.0049 11.8577 12.3945 12.9832 10.3398 13.4724V13.8895C10.3398 13.9843 10.3337 14.0772 10.3226 14.1689C13.0682 13.5628 15.2011 11.8706 15.8484 9.74698C15.9666 9.35873 15.6749 8.96673 15.2694 8.96673ZM11.1472 10.6947H10.8426C10.7066 10.6947 10.5964 10.5845 10.5964 10.4485C10.5964 10.3125 10.7066 10.2024 10.8426 10.2024H11.1472C11.2832 10.2024 11.3933 10.3125 11.3933 10.4485C11.3933 10.5845 11.2832 10.6947 11.1472 10.6947Z" fill="#0043BF"/>
</g>
<defs>
<clipPath id="clip0_945_91">
<rect width="16" height="16" fill="white"/>
</clipPath>
</defs>
</svg>
