<svg width="54" height="54" viewBox="0 0 54 54" fill="none" xmlns="http://www.w3.org/2000/svg">
<path d="M23.6594 3.37616C21.0764 3.40564 18.6423 3.95445 16.4127 4.96855L21.1782 15.5248C22.0988 14.957 23.0929 14.4534 24.1617 14.0231L25.7941 3.46978C25.0846 3.39994 24.3721 3.36876 23.6594 3.37616ZM27.5639 3.71656L26.0749 13.3548C27.6915 12.8725 29.4603 12.5389 31.3873 12.3747L31.6147 12.3557L38.1229 8.1751C34.4994 5.79741 30.9402 4.33351 27.5638 3.71666L27.5639 3.71656ZM14.8102 5.79901C13.0204 6.84448 11.3856 8.21227 9.94622 9.87679C9.11564 10.8372 8.34993 11.9027 7.65625 13.0645L15.8657 20.4859C16.9405 18.9875 18.2231 17.6648 19.6713 16.5614L14.8103 5.79891L14.8102 5.79901ZM31.0735 14.2885C21.6589 15.2378 16.841 20.1922 14.577 27.0489C12.3425 33.8161 12.7706 42.4932 14.4035 50.625L36.6192 50.6248C35.3612 45.4981 33.0974 43.0773 31.3066 40.9804C30.3461 39.8557 29.474 38.7953 29.1302 37.3866C28.8458 36.2219 28.9953 34.915 29.6235 33.3901C28.4847 33.0094 27.1297 32.9932 25.4978 33.4089L25.0763 31.5949C27.8755 30.8818 30.3634 31.2479 32.2393 32.7219C33.9842 34.0932 35.1282 36.3337 35.7251 39.2349C38.2214 39.6755 41.0157 40.0126 44.2963 40.1841C44.7303 37.1268 45.7779 34.1018 47.25 31.1046C40.8557 26.1059 35.7086 20.3265 31.0734 14.2884L31.0735 14.2885ZM6.75029 14.7161C5.57312 17.07 4.67098 19.7644 4.09555 22.7652L13.0193 26.0591C13.5113 24.6454 14.1179 23.2984 14.8552 22.0407L6.75029 14.7161ZM27.8866 18.9467C29.2161 18.9467 30.2932 20.0717 30.2932 21.4601C30.2932 22.8487 29.216 23.9735 27.8866 23.9735C26.5572 23.9735 25.4801 22.8487 25.4801 21.4601C25.4801 20.0715 26.5573 18.9467 27.8866 18.9467ZM3.78473 24.6292C3.48367 26.7708 3.34275 29.0536 3.38121 31.4669L11.4889 33.103C11.6873 31.2876 12.0046 29.5234 12.4665 27.8356L3.78473 24.6292ZM3.4499 33.3808C3.5425 35.1069 3.72312 36.8951 3.99998 38.7416L11.2408 38.8884C11.2172 37.5696 11.2456 36.2601 11.3275 34.9729L3.4499 33.3809V33.3808ZM4.31089 40.6149C4.6087 42.2588 4.98199 43.9475 5.4321 45.676L11.6743 44.9924C11.5055 43.5785 11.3822 42.1634 11.3095 40.7555L4.31089 40.6151V40.6149ZM11.9192 46.8438L5.93129 47.4992C6.22662 48.5281 6.54258 49.5504 6.87896 50.5655H12.5562C12.3143 49.3306 12.102 48.0897 11.9194 46.8438H11.9192Z" fill="#733000"/>
</svg>
