<svg width="16" height="16" viewBox="0 0 16 16" fill="none" xmlns="http://www.w3.org/2000/svg">
<path d="M7.0102 1.00034C6.24487 1.00908 5.52364 1.17169 4.86302 1.47216L6.27503 4.59993C6.5478 4.4317 6.84234 4.2825 7.15902 4.15499L7.6427 1.02808C7.43247 1.00739 7.22135 0.99815 7.0102 1.00034ZM8.16707 1.1012L7.7259 3.95698C8.20488 3.81408 8.72896 3.71524 9.29993 3.66657L9.36731 3.66094L11.2957 2.42225C10.222 1.71775 9.16747 1.284 8.16704 1.10123L8.16707 1.1012ZM4.3882 1.71823C3.85789 2.02799 3.37352 2.43326 2.94703 2.92646C2.70093 3.21103 2.47405 3.52672 2.26852 3.87095L4.70094 6.06989C5.0194 5.62593 5.39944 5.23402 5.82853 4.90707L4.38823 1.7182L4.3882 1.71823ZM9.20696 4.23362C6.41747 4.51491 4.98992 5.98288 4.31913 8.0145C3.65703 10.0196 3.78388 12.5906 4.26771 15L10.8501 14.9999C10.4774 13.4809 9.80664 12.7636 9.27604 12.1423C8.99145 11.8091 8.73305 11.4949 8.63117 11.0775C8.5469 10.7324 8.5912 10.3452 8.77732 9.89337C8.43992 9.78058 8.03844 9.77575 7.55492 9.89893L7.43003 9.36145C8.25942 9.15017 8.99658 9.25864 9.55238 9.69538C10.0694 10.1017 10.4084 10.7655 10.5852 11.6252C11.3249 11.7557 12.1528 11.8556 13.1248 11.9064C13.2534 11.0005 13.5638 10.1042 14 9.21619C12.1054 7.73507 10.5803 6.02267 9.20693 4.23359L9.20696 4.23362ZM2.00009 4.36032C1.65129 5.05778 1.38399 5.85612 1.2135 6.74526L3.85757 7.72122C4.00336 7.30233 4.1831 6.90322 4.40153 6.53057L2.00009 4.36032ZM8.26271 5.61385C8.65663 5.61385 8.97577 5.94718 8.97577 6.35855C8.97577 6.76998 8.6566 7.10325 8.26271 7.10325C7.86879 7.10325 7.54965 6.76998 7.54965 6.35855C7.54965 5.94712 7.86882 5.61385 8.26271 5.61385ZM1.1214 7.29754C1.0322 7.93208 0.990444 8.60846 1.00184 9.32353L3.40413 9.80828C3.46289 9.27039 3.55691 8.74769 3.69376 8.2476L1.1214 7.29754ZM1.02219 9.89061C1.04963 10.402 1.10315 10.9319 1.18518 11.479L3.3306 11.5225C3.32363 11.1317 3.33202 10.7437 3.35628 10.3623L1.02219 9.89064V9.89061ZM1.2773 12.034C1.36554 12.5211 1.47615 13.0215 1.60951 13.5336L3.45906 13.3311C3.40903 12.9121 3.3725 12.4929 3.35095 12.0757L1.2773 12.0341V12.034ZM3.53163 13.8796L1.75742 14.0738C1.84493 14.3787 1.93854 14.6816 2.03821 14.9824H3.72035C3.64868 14.6165 3.58577 14.2488 3.53168 13.8796H3.53163Z" fill="#733000"/>
</svg>
