<svg width="16" height="16" viewBox="0 0 16 16" fill="none" xmlns="http://www.w3.org/2000/svg">
<g clip-path="url(#clip0_947_172)">
<path d="M12.2007 13.4962L12.2076 13.5041L12.2012 13.4967L12.2007 13.4962Z" fill="#878787"/>
<path d="M12.1047 9.93416L12.1052 9.93359L12.103 9.93497L12.1047 9.93416Z" fill="#878787"/>
<path d="M12.1054 9.93384C12.1054 9.93384 12.1062 9.93311 12.1068 9.93311L12.1047 9.93384H12.1054Z" fill="#878787"/>
<path d="M12.5526 9.42002C12.5526 9.42002 12.5526 9.4213 12.552 9.42164L12.5533 9.41907C12.5533 9.4194 12.5533 9.41969 12.5526 9.42002Z" fill="#878787"/>
<path d="M12.3652 7.71516L12.3731 7.72332L12.3643 7.71399C12.3647 7.71447 12.3652 7.71468 12.3652 7.71516Z" fill="#878787"/>
<path d="M11.9865 8.2569C11.9624 8.22268 11.934 8.19624 11.8926 8.17302C11.8381 8.1424 11.7557 8.11809 11.6327 8.11237V8.11215C11.3901 8.11046 11.1598 8.04115 10.9384 7.93615C10.7152 7.82943 10.4988 7.68637 10.2803 7.53105C9.8442 7.2198 9.39789 6.85909 8.90005 6.62493C8.5683 6.46855 8.21624 6.36755 7.82405 6.36755C7.23745 6.36755 6.73536 6.59537 6.26624 6.8948C5.79714 7.19337 5.36986 7.56127 4.93161 7.81821C4.64127 7.98727 4.34077 8.10984 4.01577 8.11215V8.11237C3.92408 8.1168 3.85433 8.13137 3.80236 8.15146C3.75036 8.17174 3.71614 8.19602 3.68827 8.22521C3.63333 8.28205 3.59824 8.37484 3.58133 8.51237C3.57033 8.60324 3.56739 8.70974 3.56739 8.82662C3.56695 8.99777 3.58133 9.13324 3.61724 9.22874C3.65442 9.32449 3.70261 9.38596 3.8083 9.44555C3.85392 9.47071 3.91308 9.4933 3.98411 9.51318L4.05596 9.48802C4.06146 9.50368 4.0678 9.5189 4.0733 9.5343L4.11302 9.54277C4.48155 9.60974 5.20717 9.67505 5.93749 9.72218C6.66864 9.76949 7.41117 9.79974 7.82408 9.79974C8.23742 9.79974 8.97995 9.76952 9.71111 9.72218C10.4418 9.67505 11.167 9.60974 11.536 9.54277C11.5504 9.54021 11.5618 9.53662 11.5757 9.53387C11.5812 9.51846 11.5875 9.50343 11.5926 9.48802L11.6653 9.51359C11.7913 9.47852 11.8745 9.43327 11.9286 9.38405C11.9992 9.31959 12.0368 9.24268 12.0605 9.11993C12.0753 9.03899 12.0812 8.94052 12.0812 8.82662C12.0812 8.69518 12.0779 8.57662 12.0626 8.47921C12.0482 8.38137 12.022 8.3078 11.9865 8.2569ZM4.11758 9.06452C3.97177 9.06452 3.85345 8.94618 3.85345 8.80015C3.85345 8.65393 3.9718 8.53559 4.11758 8.53559C4.26383 8.53559 4.38214 8.6539 4.38214 8.80015C4.38214 8.94621 4.26383 9.06452 4.11758 9.06452ZM5.3918 9.26105C5.18555 9.25471 4.98905 9.24521 4.80942 9.23252V8.3078C5.01102 8.21887 5.20289 8.10455 5.3918 7.97774V9.26105ZM6.75308 9.28809C6.56883 9.28662 6.37358 9.28471 6.17239 9.28005V7.41774C6.36089 7.2844 6.55321 7.15762 6.75308 7.04965V9.28809ZM8.11564 9.29127H7.53327V6.77199C7.62877 6.75612 7.72558 6.7483 7.82361 6.7483C7.92377 6.7483 8.02055 6.75612 8.11564 6.77199V9.29127ZM9.47689 9.28009C9.27533 9.28474 9.0788 9.28665 8.89452 9.28812V7.04968C9.09442 7.15596 9.28799 7.28443 9.47689 7.41777V9.28009ZM10.8382 9.23252C10.6586 9.24521 10.462 9.25471 10.2575 9.26105V7.97774C10.446 8.10455 10.6383 8.21887 10.8382 8.3078V9.23252ZM11.5309 9.06452C11.3851 9.06452 11.2667 8.94618 11.2667 8.80015C11.2667 8.65393 11.3851 8.53559 11.5309 8.53559C11.6767 8.53559 11.795 8.6539 11.795 8.80015C11.795 8.94621 11.6767 9.06452 11.5309 9.06452Z" fill="#878787"/>
<path d="M4.2063 15.3176L4.22236 15.3269C4.22152 15.3265 4.22111 15.3263 4.22067 15.3259L4.2063 15.3176Z" fill="#878787"/>
<path d="M5.91675 10.1688C5.26844 10.1265 4.63069 10.0718 4.21484 10.0105C4.38178 10.3742 4.58803 10.7127 4.79638 11.0383C5.07741 11.4787 5.36309 11.8952 5.55159 12.3307L5.26041 12.4565C5.18263 12.2758 5.08206 12.0924 4.96922 11.9043C4.96034 12.0898 4.94131 12.288 4.90625 12.4843C4.85469 12.769 4.77269 13.0468 4.63366 13.2692C4.61209 13.3034 4.58844 13.3357 4.56391 13.3674C4.62753 13.4427 4.76128 13.5603 4.94806 13.6852C5.13531 13.8109 5.37663 13.9466 5.66191 14.0713C6.23244 14.3204 6.97797 14.5248 7.82363 14.5248H7.85025C9.11856 14.5254 10.1633 14.0635 10.7258 13.6852C10.9025 13.5675 11.0293 13.4572 11.0965 13.3816C11.0673 13.3461 11.0398 13.3084 11.0149 13.2691C10.9219 13.121 10.8552 12.9479 10.8053 12.7651C10.7292 12.4847 10.6924 12.18 10.6789 11.9047C10.5665 12.0925 10.4659 12.276 10.3882 12.4564L10.097 12.3307C10.2854 11.8952 10.5712 11.4787 10.8522 11.0383C11.0605 10.7127 11.2668 10.3742 11.4337 10.0105C11.0183 10.0718 10.3801 10.1267 9.73138 10.1687C9.07841 10.211 8.42125 10.2393 7.98297 10.2452V13.7947H7.66556V10.2453C7.22731 10.2394 6.57012 10.2111 5.91675 10.1688Z" fill="#878787"/>
<path d="M11.3923 13.741C11.3741 13.7334 11.3585 13.7226 11.3416 13.7137C11.2461 13.8222 11.1007 13.9456 10.9025 14.0787C10.6988 14.2154 10.4414 14.3597 10.1392 14.492C9.53401 14.756 8.74751 14.9717 7.85026 14.9719H7.82363C6.47713 14.9711 5.38213 14.488 4.77141 14.0787C4.56813 13.942 4.41895 13.8152 4.32385 13.7045C4.30185 13.7173 4.28032 13.7308 4.25663 13.741C4.07323 13.8186 3.94007 13.9094 3.85854 13.9999C3.77654 14.0914 3.74401 14.1761 3.74316 14.2676C3.74316 14.369 3.78838 14.4946 3.91051 14.6406C4.03182 14.786 4.22751 14.9463 4.50345 15.1078C4.9417 15.3656 5.58579 15.5924 6.21257 15.7504C6.83848 15.9091 7.45341 16.0004 7.82404 16C8.1951 16.0004 8.8096 15.9091 9.43595 15.7504C10.0627 15.5923 10.7068 15.3656 11.145 15.1078C11.421 14.9464 11.6167 14.7857 11.7384 14.6406C11.8601 14.4943 11.9054 14.369 11.9054 14.2676C11.9045 14.1761 11.872 14.0914 11.7904 13.9999C11.7084 13.9094 11.5753 13.8186 11.3923 13.741Z" fill="#878787"/>
<path d="M6.13433 3.01672C6.08361 2.96876 6.02614 2.9096 5.96824 2.84472C5.93568 2.9136 5.9078 3.01207 5.90821 3.11813C5.90821 3.2126 5.92852 3.31213 5.98346 3.41251C6.02149 3.48138 6.07811 3.55157 6.15843 3.62022C6.61486 3.4066 7.12118 3.27747 7.66549 3.25657V0.634569H7.98289V3.25654C8.52724 3.27747 9.03355 3.40657 9.48999 3.62019C9.56986 3.55154 9.62693 3.48135 9.66496 3.41247C9.71989 3.3121 9.74018 3.21257 9.74018 3.1181C9.74102 3.0131 9.71271 2.91441 9.68102 2.84572C9.62268 2.91122 9.5648 2.96829 9.51408 3.01669C9.44943 3.07819 9.39533 3.12888 9.37377 3.1551L9.1299 2.95222C9.1768 2.89688 9.23258 2.84701 9.29515 2.78719C9.35727 2.72826 9.42405 2.66169 9.48533 2.58751C9.60789 2.43726 9.70255 2.26376 9.70255 2.04991C9.70211 1.91297 9.66239 1.74985 9.55127 1.55607C9.50477 1.64397 9.44477 1.72976 9.36911 1.81197L9.13455 1.59854C9.29089 1.42526 9.34627 1.26594 9.34711 1.11294C9.34711 0.980662 9.30274 0.846694 9.21821 0.715881C9.13368 0.585069 9.00943 0.459975 8.86068 0.352631C8.56355 0.137569 8.16799 -0.00105644 7.82396 6.06472e-06C7.56658 -0.000431435 7.27921 0.0765061 7.02646 0.206881C6.77371 0.336444 6.55649 0.519819 6.43011 0.715944C6.34561 0.846756 6.30121 0.980694 6.30121 1.11301C6.30165 1.26601 6.35743 1.42532 6.5138 1.5986L6.2788 1.81204C6.20399 1.72985 6.14314 1.64404 6.09708 1.55613C5.98593 1.74991 5.94577 1.91304 5.94577 2.04997C5.94577 2.21119 5.99902 2.34729 6.07761 2.47051C6.1558 2.59326 6.26018 2.69872 6.35318 2.78726C6.4153 2.84707 6.47149 2.89694 6.5184 2.95229L6.27455 3.15516C6.25308 3.12891 6.19896 3.07822 6.13433 3.01672Z" fill="#878787"/>
<path d="M4.00524 7.66516H4.00862C4.19246 7.66516 4.37803 7.61275 4.57368 7.51956C4.76893 7.42678 4.97178 7.29387 5.18393 7.14256C5.60953 6.84016 6.06974 6.46469 6.61284 6.20791C6.97503 6.03719 7.37653 5.92009 7.82409 5.92009C8.49649 5.92009 9.06071 6.18297 9.55306 6.49719C10.0454 6.81206 10.4748 7.18037 10.8771 7.41406C11.1451 7.57087 11.3957 7.66553 11.6404 7.66512H11.6438L11.6476 7.66534C11.6717 7.66641 11.6924 7.67084 11.7152 7.67316C11.6501 6.68231 11.2529 5.71744 10.6117 4.98928C9.92456 4.20909 8.96562 3.69962 7.82409 3.69922C6.68299 3.69962 5.72365 4.20909 5.03646 4.98928C4.39621 5.71684 3.99934 6.68125 3.93384 7.67147C3.95624 7.66934 3.97781 7.66641 4.00106 7.66534L4.00524 7.66516Z" fill="#878787"/>
<path d="M3.44727 13.3672L3.4494 13.3662H3.44829C3.44829 13.3662 3.44829 13.3668 3.44727 13.3672Z" fill="#878787"/>
</g>
<defs>
<clipPath id="clip0_947_172">
<rect width="16" height="16" fill="white"/>
</clipPath>
</defs>
</svg>
