<svg width="16" height="16" viewBox="0 0 16 16" fill="none" xmlns="http://www.w3.org/2000/svg">
<path d="M3.87151 0.63894C3.54813 0.653534 3.20472 0.737253 2.86544 0.806628L4.81832 2.8575L4.14191 2.86338C3.22391 2.86922 1.77644 3.05569 0.905818 3.56035L1.89819 5.1721L0.628662 5.83141V7.59944L2.08304 8.42194L0.628662 9.67432V10.6827C1.51044 10.6442 2.52335 10.7026 3.41413 10.4043L4.41107 10.0713L3.72894 10.8708C3.14269 11.5583 2.79826 12.5938 2.14344 13.6119C3.14063 13.5371 4.12319 13.3728 5.16844 12.8053L5.66926 12.534L5.36469 14.9441C6.1876 14.5632 6.99291 14.0403 7.58901 13.4111C8.29785 12.663 8.70504 11.8333 8.63151 11.1389L8.62919 11.1155C8.05144 10.719 7.62107 10.1413 7.40307 9.42238C7.14013 8.5551 7.21972 7.47457 7.61066 6.2616C6.78547 6.13535 6.15641 5.80419 5.81982 5.32066C5.43451 4.76703 5.37538 4.09378 5.57801 3.53885C5.78063 2.98391 6.27457 2.53369 6.93541 2.4951C7.57785 2.45775 8.32541 2.80863 9.12204 3.62328C9.47729 3.75172 9.8011 3.87435 10.0952 3.99641C10.1712 3.32782 10.0495 2.80788 9.76991 2.34328C9.5071 1.90657 9.04438 1.51735 8.48554 1.1376L8.61897 2.47785L8.10569 2.13457C6.94916 1.36153 5.28051 0.577784 3.87151 0.643628L3.87157 0.636597L3.87151 0.63894ZM7.0086 3.07635C6.99497 3.0766 6.98154 3.07635 6.96829 3.07635H6.96822C6.5451 3.10088 6.26369 3.36088 6.12644 3.73682C5.98916 4.11275 6.0251 4.5916 6.29863 4.98463C6.57222 5.37763 7.08388 5.70832 7.97201 5.75913L8.3656 5.78069L8.22985 6.15028C7.76619 7.41466 7.72229 8.46053 7.96182 9.25066C8.20119 10.0403 8.71307 10.588 9.4401 10.8932H9.44126L12.8347 12.0955C13.0113 11.7236 13.1994 11.3513 13.3968 10.9795C13.236 11.05 13.0624 11.0862 12.8868 11.0861C12.1831 11.0861 11.6124 10.5154 11.6124 9.81166C11.6124 9.10797 12.1831 8.53728 12.8868 8.53728C13.5324 8.53728 14.0648 9.01769 14.1485 9.64041C14.4818 9.07597 14.8324 8.51541 15.1947 7.96282L11.969 6.32603L11.8207 6.14691C11.6978 5.72328 11.4608 5.41816 10.996 5.10553C10.5311 4.79297 9.83866 4.49397 8.87772 4.14857L8.81272 4.1246L8.76491 4.07438C8.03732 3.30775 7.43054 3.06569 7.0086 3.07363V3.07635ZM10.7286 5.88666C10.9871 5.88666 11.1866 6.08625 11.1866 6.34469C11.1866 6.60325 10.987 6.80369 10.7286 6.80369C10.4701 6.80369 10.2696 6.60325 10.2696 6.34472C10.2696 6.08628 10.4701 5.88675 10.7286 5.88675L10.7286 5.88666Z" fill="#FFD900"/>
</svg>
