<svg width="54" height="54" viewBox="0 0 54 54" fill="none" xmlns="http://www.w3.org/2000/svg">
<path d="M40.5457 43.9476C39.9851 43.7316 39.7047 43.0464 39.9125 42.4858C40.1513 41.7133 40.9404 40.7145 41.1294 40.453C44.2274 36.188 44.0199 32.5251 42.8964 30.4632C42.1406 29.0824 40.9902 27.8302 37.1197 26.1919C34.5117 25.0851 33.4424 24.1051 33.137 23.2204C34.8895 23.1789 36.2973 21.7504 36.2973 19.9874C36.2973 18.8454 35.7035 17.8445 34.8106 17.2673C35.6554 14.8424 36.1475 12.9463 36.1475 10.6083C36.1475 4.85283 32.2728 0.421875 27.6524 0.421875C22.5264 0.421875 18.9426 5.2361 18.9426 10.6085C18.9426 12.8412 19.2063 14.8506 20.3255 17.2863C19.4471 17.8656 18.8679 18.8582 18.8679 19.9878C18.8679 21.6468 20.1158 23.0112 21.7229 23.2C21.5943 24.7115 20.7429 26.8502 17.3852 27.4234C12.6427 28.2331 10.5496 30.8433 10.5496 34.1883C10.5496 37.1763 12.6073 38.0422 12.5927 40.5401C12.5864 41.6675 11.7393 42.7722 10.3481 42.6705C10.3481 42.6705 10.5869 43.2998 11.3615 43.4554C13.3196 43.8459 14.5509 42.2449 14.5114 40.4135C14.4386 36.952 12.0715 35.1021 14.1959 32.3445C15.9899 30.0126 19.2851 30.8703 22.4933 28.8603C21.2017 30.2784 19.5634 32.6725 19.5634 35.7126C19.5634 37.9578 20.8016 39.9486 21.9518 41.7882C23.1453 43.697 24.8031 45.9833 24.5831 48.3602C24.4293 50.0213 23.0322 51.3356 21.3532 51.3356C19.6089 51.3356 18.1908 49.9673 18.1016 48.2458C16.9762 48.6612 17.7839 53.5781 22.0282 53.5781C25.446 53.5781 27.3168 50.6421 27.3168 48.0402C27.3168 41.9458 22.838 39.4251 23.5066 34.6389C23.8161 32.4359 26.3286 29.5557 27.699 26.9998C28.0998 28.3951 28.8514 29.5329 29.5968 30.5878C30.3444 31.6427 31.0835 32.6185 31.4636 33.688C32.8777 37.6871 28.1599 41.3832 29.3747 45.9949C30.8759 51.7031 36.3951 50.1 36.5447 50.0544C34.6344 49.6496 33.0376 48.2252 32.4126 46.379C31.7129 44.3068 32.5082 42.0768 33.4966 40.2349C34.2649 38.8083 34.9918 37.3589 34.9918 35.6999C34.9918 32.9569 33.8974 31.1027 32.5769 28.7584C32.3631 28.3785 32.1949 27.9922 32.0578 27.6081C34.6264 29.1281 38.4906 28.8436 40.1933 31.9999C41.4142 34.2672 39.5995 37.654 38.858 39.093C38.3866 40.0087 37.4502 41.317 37.4606 43.0466C37.4648 43.9581 38.2518 45.2062 39.78 45.2062C40.4029 45.2062 41.0134 44.9944 41.4266 44.5148C41.6114 44.2988 41.8626 43.9334 41.8668 43.6407C41.6046 43.8583 41.0585 44.1429 40.5457 43.9476ZM22.1028 21.7401C21.1353 21.7401 20.3504 20.9552 20.3504 19.9876C20.3504 19.4436 20.5974 18.9576 20.9857 18.638L22.815 21.5886C22.5971 21.6861 22.3562 21.7401 22.1028 21.7401ZM32.3002 21.5658L34.1254 18.5965C34.5448 18.9141 34.8148 19.4187 34.8148 19.9876C34.8148 20.9552 34.0299 21.7401 33.0623 21.7401C32.7902 21.7401 32.5308 21.6778 32.3002 21.5658Z" fill="#084E8F"/>
</svg>
