<svg width="16" height="16" viewBox="0 0 16 16" fill="none" xmlns="http://www.w3.org/2000/svg">
<path d="M12.0136 13.0215C11.8475 12.9575 11.7644 12.7545 11.826 12.5884C11.8967 12.3595 12.1305 12.0636 12.1865 11.9861C13.1045 10.7224 13.043 9.63706 12.7101 9.02612C12.4862 8.617 12.1453 8.246 10.9985 7.76056C10.2257 7.43262 9.90891 7.14225 9.81841 6.88013C10.3377 6.86781 10.7548 6.44456 10.7548 5.92219C10.7548 5.58381 10.5788 5.28725 10.3143 5.11625C10.5646 4.39775 10.7104 3.83594 10.7104 3.14319C10.7104 1.43788 9.56235 0.125 8.19335 0.125C6.67454 0.125 5.61266 1.55144 5.61266 3.14325C5.61266 3.80481 5.69079 4.40019 6.02241 5.12187C5.76216 5.2935 5.59054 5.58763 5.59054 5.92231C5.59054 6.41388 5.96029 6.81813 6.43647 6.87406C6.39835 7.32194 6.1461 7.95563 5.15122 8.12544C3.74604 8.36538 3.12585 9.13875 3.12585 10.1299C3.12585 11.0152 3.73554 11.2718 3.73122 12.0119C3.72935 12.3459 3.47835 12.6732 3.06616 12.6431C3.06616 12.6431 3.13691 12.8296 3.36641 12.8757C3.9466 12.9914 4.31141 12.517 4.29972 11.9744C4.27816 10.9487 3.57679 10.4006 4.20622 9.58356C4.73779 8.89263 5.71416 9.14675 6.66472 8.55119C6.28204 8.97138 5.7966 9.68075 5.7966 10.5815C5.7966 11.2468 6.16347 11.8366 6.50429 12.3817C6.85791 12.9472 7.3491 13.6247 7.28391 14.3289C7.23835 14.8211 6.82441 15.2106 6.32691 15.2106C5.8101 15.2106 5.38991 14.8051 5.36347 14.2951C5.03004 14.4181 5.26935 15.875 6.52691 15.875C7.5396 15.875 8.09391 15.0051 8.09391 14.2341C8.09391 12.4284 6.76685 11.6815 6.96497 10.2634C7.05666 9.61063 7.8011 8.75725 8.20716 7.99994C8.32591 8.41338 8.5486 8.7505 8.76947 9.06306C8.99097 9.37563 9.20997 9.66475 9.3226 9.98162C9.7416 11.1666 8.34372 12.2617 8.70366 13.6281C9.14847 15.3194 10.7838 14.8444 10.8281 14.8309C10.2621 14.711 9.78897 14.2889 9.60379 13.7419C9.39647 13.1279 9.6321 12.4672 9.92497 11.9214C10.1526 11.4987 10.368 11.0693 10.368 10.5778C10.368 9.765 10.0437 9.21562 9.65247 8.521C9.5891 8.40844 9.53929 8.294 9.49866 8.18019C10.2597 8.63056 11.4047 8.54625 11.9092 9.48144C12.2709 10.1533 11.7332 11.1568 11.5135 11.5831C11.3738 11.8544 11.0964 12.2421 11.0995 12.7546C11.1007 13.0246 11.3339 13.3944 11.7867 13.3944C11.9713 13.3944 12.1522 13.3317 12.2746 13.1896C12.3294 13.1256 12.4038 13.0173 12.405 12.9306C12.3273 12.9951 12.1655 13.0794 12.0136 13.0215ZM6.54904 6.4415C6.26235 6.4415 6.02979 6.20894 6.02979 5.92225C6.02979 5.76106 6.10297 5.61706 6.21804 5.52238L6.76004 6.39663C6.69547 6.4255 6.6241 6.4415 6.54904 6.4415ZM9.57047 6.38987L10.1113 5.51006C10.2355 5.60419 10.3155 5.75369 10.3155 5.92225C10.3155 6.20894 10.083 6.4415 9.79629 6.4415C9.71566 6.4415 9.63879 6.42306 9.57047 6.38987Z" fill="#084E8F"/>
</svg>
