<svg width="16" height="16" viewBox="0 0 16 16" fill="none" xmlns="http://www.w3.org/2000/svg">
<g clip-path="url(#clip0_947_191)">
<path d="M10.8313 11.3437C11.2251 11.2 11.6188 11.0187 12.0688 10.8062C14.0626 9.7812 15.3001 8.19995 15.3001 8.19995C15.3001 8.19995 13.2688 8.23745 11.2751 9.26245C11.0251 9.3687 10.8063 9.51245 10.5938 9.6187C10.9501 9.14995 11.3501 8.5937 11.7626 8.0562C13.3251 5.73745 13.7188 3.22495 13.7188 3.22495C13.7188 3.22495 11.5438 4.53745 10.0188 6.88745C9.6938 7.3562 9.4063 7.8187 9.1563 8.3062C9.22505 7.66245 9.22505 6.92495 9.22505 6.2062C9.22505 3.0812 7.98755 0.512451 7.98755 0.512451C7.98755 0.512451 6.75005 3.0437 6.75005 6.2062C6.75005 6.96245 6.78755 7.66245 6.8188 8.3062C6.5688 7.83745 6.2813 7.37495 5.9563 6.88745C4.3938 4.5687 2.2563 3.22495 2.2563 3.22495C2.2563 3.22495 2.65005 5.72495 4.21255 8.0562C4.6063 8.6312 4.9688 9.14995 5.3813 9.6187C5.1688 9.47495 4.91255 9.3687 4.70005 9.26245C2.7063 8.23745 0.675049 8.19995 0.675049 8.19995C0.675049 8.19995 1.91255 9.79995 3.9063 10.8062C4.33755 11.0187 4.7313 11.2 5.1438 11.3437C4.8938 11.3812 4.6438 11.4124 4.38755 11.4874C2.4813 11.8874 1.06255 12.9812 1.06255 12.9812C1.06255 12.9812 2.7688 13.4499 4.72505 13.0499C5.33755 12.9062 5.96255 12.7624 6.4313 12.5812C6.36255 12.6499 7.4188 12.0437 7.7813 11.6812V15.4562H8.3188V11.5937C8.71255 11.9875 9.73755 12.6187 9.70005 12.525C10.2001 12.7062 10.7938 12.85 11.4063 12.9937C13.3313 13.3875 15.0688 12.9249 15.0688 12.9249C15.0688 12.9249 13.6876 11.8312 11.7313 11.4375C11.3376 11.4187 11.0813 11.3812 10.8313 11.3437Z" fill="#53A006"/>
</g>
<defs>
<clipPath id="clip0_947_191">
<rect width="16" height="16" fill="white"/>
</clipPath>
</defs>
</svg>
