<svg width="16" height="16" viewBox="0 0 16 16" fill="none" xmlns="http://www.w3.org/2000/svg">
<g clip-path="url(#clip0_947_187)">
<path d="M15.1851 3.99303C13.5286 -0.190965 8.0196 0.474035 2.8261 1.81703C2.7176 2.88003 2.8956 3.96703 3.2636 5.07003C5.6521 2.36953 12.2811 1.39803 15.1846 3.99303H15.1851ZM2.0481 1.91653L0.870596 2.21503C1.0466 4.64953 1.7606 6.34554 2.7561 7.65854C2.2401 7.98103 1.4866 8.27203 0.610596 8.49553C0.787096 8.70153 1.0546 9.00004 1.5626 9.07304C2.3376 8.93804 2.8076 8.60553 3.2391 8.24353C5.6176 10.9005 9.17459 11.955 11.1371 15.2395L12.6786 15.2355C9.07809 8.58954 2.5271 11.381 2.0476 1.91653H2.0481Z" fill="#ABABAB"/>
</g>
<defs>
<clipPath id="clip0_947_187">
<rect width="16" height="16" fill="white"/>
</clipPath>
</defs>
</svg>
