<svg width="16" height="16" viewBox="0 0 16 16" fill="none" xmlns="http://www.w3.org/2000/svg">
<g clip-path="url(#clip0_945_87)">
<path d="M2.38376 0.677734C1.55945 0.968547 1.02782 1.48773 0.77832 2.22555C1.83395 2.93898 3.33379 4.41267 3.93066 5.81345C4.16879 6.3722 4.36566 7.00364 4.49223 7.66114C4.6581 7.56833 5.54554 8.93539 5.2891 8.69727C5.22957 8.64208 4.58279 8.30186 4.5977 8.52445C4.64113 9.17352 4.66501 9.6582 4.55957 10.2832C4.28476 11.9126 2.77932 14.1016 2.77932 14.1016C3.47832 14.761 3.90063 14.9712 5.11919 15.2197L7.52544 12.082C8.43116 12.7967 7.69495 14.082 8.40726 14.0342C9.07795 13.9892 8.47444 12.7456 8.98351 12.1016C9.51319 12.8078 10.1196 13.391 10.7247 13.8867C10.79 13.9531 10.7708 11.9656 10.9044 12.3994C11.0344 12.8219 11.3332 14.0263 11.4815 14.4385C11.8874 14.8539 12.1845 15.2015 12.6827 15.3008C13.8364 15.5307 13.7312 15.2325 14.8477 14.6104C14.8477 14.6104 12.9096 12.2968 12.4581 10.8956C11.9948 9.45777 11.7905 7.81708 12.2237 6.3702C12.717 4.72208 15.2793 2.21102 15.2793 2.21102C15.1305 2.0358 15.0154 1.89877 14.9141 1.78327C14.8048 1.65848 13.8119 2.26602 13.7081 2.17195C13.6051 2.07858 14.3909 1.28267 14.2423 1.17977C14.0724 1.06227 13.8562 0.925578 13.5557 0.740297C12.5529 1.96061 11.7028 2.71264 10.0362 3.75205C9.91001 3.01705 9.98166 2.58955 9.43169 2.06648C8.88169 1.54336 7.69332 1.1497 6.6446 2.04792C6.18141 2.44467 6.27716 3.08442 6.03616 3.6583C5.26148 2.32048 3.21398 0.925672 2.38385 0.677859L2.38376 0.677734ZM8.53616 4.40717C8.64966 4.70036 8.59591 5.00961 8.48929 5.30173C8.38266 5.59386 8.21516 5.88255 8.03226 6.1572C7.91901 6.32739 7.80001 6.4897 7.68366 6.64455C8.02085 6.52698 8.37823 6.41842 8.73054 6.56348L9.06454 6.7012L8.8497 6.99127C8.72876 7.15417 8.62704 7.29761 8.53813 7.42877C8.65063 7.3727 8.76988 7.32267 8.89851 7.28614C9.00648 7.25552 9.19476 7.31873 9.26179 7.41114C9.32879 7.50355 9.33416 7.5742 9.34085 7.63864C9.35435 7.76764 9.34135 7.89289 9.32429 8.0352C9.29013 8.3197 9.22898 8.65608 9.21491 8.84964L8.65335 8.80861C8.67201 8.55164 8.73523 8.22255 8.7657 7.96877C8.76651 7.96195 8.76591 7.96083 8.76663 7.95408C8.49051 8.11017 8.18798 8.35095 7.81163 8.50877L7.01366 8.84373L7.46188 8.10348C7.62326 7.83723 7.78038 7.54573 8.06251 7.12792C7.96798 7.14898 7.86991 7.17498 7.77051 7.20995C7.60532 7.26802 7.44098 7.33514 7.29882 7.39255C7.1567 7.44992 7.0527 7.49661 6.9307 7.52242L6.27345 7.66205L6.63576 7.09564C6.81888 6.80955 7.22657 6.35308 7.56451 5.84564C7.73341 5.59189 7.87941 5.33173 7.96095 5.10833C8.04251 4.88489 8.05104 4.71177 8.01173 4.6102L8.5361 4.40708L8.53616 4.40717Z" fill="#860000"/>
</g>
<defs>
<clipPath id="clip0_945_87">
<rect width="16" height="16" fill="white"/>
</clipPath>
</defs>
</svg>
