<svg width="16" height="16" viewBox="0 0 16 16" fill="none" xmlns="http://www.w3.org/2000/svg">
<path d="M7.95792 2C7.53338 2.24125 7.0832 3.08041 6.90003 3.52824C6.52933 3.46639 6.16742 3.43409 5.81996 3.43188C5.5295 3.42997 5.24925 3.44935 4.98178 3.48887C4.56713 3.27599 4.09954 2.74197 3.90008 2.20399C3.66347 2.60754 3.65754 3.29133 3.75336 3.86388C3.25996 4.11366 2.86247 4.47119 2.59797 4.93516C2.41369 5.25836 2.30614 5.61204 2.26884 5.98556C2.60619 5.31988 3.15701 4.77887 3.93495 4.58902C3.04703 5.40577 2.41617 6.8295 2.62807 7.91445C2.59761 8.50216 2.3875 8.88189 2 9.06044C2.41452 9.17839 2.90079 9.14635 3.25456 9.02755C3.88745 9.92234 4.7979 10.772 5.92068 11.4519C5.74426 11.9045 5.49748 12.7165 5.50273 13.1488C5.77796 12.8101 6.45265 12.1058 7.06896 12.0494C7.66927 12.3133 8.27054 12.5042 8.85323 12.6228C9.16848 13.066 9.18046 13.6216 9.04038 14C9.4566 13.7636 9.89861 13.1472 10.0539 12.7665C11.2491 12.8031 12.2882 12.4958 12.965 11.8526C13.41 11.9945 13.7452 12.2563 13.9753 12.6364C13.9815 12.1333 13.771 11.4966 13.5185 11.0866C13.8591 10.3602 13.843 9.4982 13.5312 8.61554L13.5415 8.62762C13.7947 8.32428 14.006 7.77471 13.9999 7.26803C13.7833 7.53459 13.4739 7.65709 13.0673 7.63263C12.7232 7.05194 12.2601 6.48106 11.6961 5.95264C11.9641 5.45744 12.4676 5.01647 12.8167 4.71992C12.3349 4.58277 11.0963 4.85355 10.7668 5.17688L10.9166 5.39531C11.0597 5.70342 11.1578 6.02292 11.1981 6.34774C10.5302 5.38986 9.40352 4.42761 8.28226 3.8904C7.87893 3.23706 7.79194 2.4483 7.95795 2H7.95792ZM5.85485 4.4943C5.88353 4.49391 5.91215 4.49409 5.94126 4.4943C6.74214 4.49943 7.68939 4.72151 8.65654 5.1536C8.43322 5.66999 8.28249 6.29668 8.40277 6.72999C8.74104 6.25107 9.34964 5.85062 9.80878 5.76633C11.2274 6.64815 12.2504 7.7892 12.6423 8.81711L12.6446 8.82276C13.0529 9.79619 12.9836 11.0118 11.9706 11.8374C12.0922 11.5442 12.1733 11.2251 12.2117 10.901C11.8544 11.1583 11.361 11.2943 10.7826 11.3114C10.7331 10.8684 10.5513 9.95269 10.2173 9.62258C10.257 10.0369 10.0115 10.8117 9.55189 11.1918C8.74198 11.0248 7.8569 10.6863 6.98811 10.1783C6.75094 10.0397 6.51969 9.89103 6.29498 9.73259C6.20759 9.12576 6.49398 8.35617 6.8168 8.08717C6.33548 8.08115 5.63147 8.65653 5.31165 8.92877C4.27187 7.94018 3.684 6.84443 3.75734 5.97353C4.17034 5.92964 4.67455 5.99735 5.06981 6.17911C4.97033 5.78383 4.599 5.36365 4.19668 5.03957C4.57116 4.68428 5.15337 4.50373 5.85488 4.49427L5.85485 4.4943Z" fill="#B96D16"/>
</svg>
