<svg width="54" height="54" viewBox="0 0 54 54" fill="none" xmlns="http://www.w3.org/2000/svg">
<path d="M10.5813 6.75026V14.0447L14.6264 19.0213V20.4191L23.2448 24.2345L25.6221 21.2685L31.363 21.6152V19.0214L35.4081 14.0446V6.75H31.1467V10.1908H28.553V6.75026H24.2451V10.1908H21.6979V6.75026H17.39V10.1908H14.8425V6.75026H10.5813ZM14.6264 22.1883V39.0627H12.0234L10.125 47.25H35.8644L33.9661 39.0627H31.363V36.8279L27.9898 34.7469L25.9242 37.2794L28.401 39.5047L27.3083 40.7025L23.6893 37.4513L26.5964 33.8873L18.6122 28.9614L21.5121 25.2365L14.6264 22.1883ZM28.1305 23.8405L29.7891 26.8661L32.4901 26.3988L30.9842 23.8406L28.1305 23.8405ZM33.9395 24.7127L35.446 31.1563L40.2855 31.3351L39.1145 26.3233L33.9395 24.7127ZM22.138 27.0755L21.0025 28.5337L24.26 30.5433L25.8426 28.7614L22.138 27.0754V27.0755ZM28.5074 28.2043L25.6622 31.4082L31.363 34.9254V30.6184L28.5074 28.2043ZM35.9256 32.6782L35.4761 35.236L38.3936 36.806L38.3855 34.1034L35.9256 32.6782ZM42.887 33.2772L40.877 35.2828L41.6347 38.1452L43.875 36.582L42.8871 33.2772H42.887ZM37.1505 39.2423L36.1948 42.4393L38.3622 43.9515L39.0952 41.1826L37.1505 39.2423Z" fill="#7D1AD3"/>
</svg>
