<svg width="16" height="16" viewBox="0 0 16 16" fill="none" xmlns="http://www.w3.org/2000/svg">
<path d="M3.1352 2.00008V4.1614L4.33376 5.63595V6.05009L6.88734 7.1806L7.59175 6.30179L9.29275 6.40451V5.63598L10.4913 4.16137V2H9.22866V3.01948H8.46014V2.00008H7.18374V3.01951H6.42899V2.00008H5.15259V3.01951H4.39777V2.00008H3.1352ZM4.33376 6.57431V11.5741H3.56249L3 14H10.6265L10.064 11.5741H9.29273V10.912L8.29329 10.2954L7.68123 11.0458L8.41512 11.7051L8.09136 12.06L7.01905 11.0967L7.8804 10.0407L5.51473 8.58115L6.37396 7.47749L4.33376 6.57431ZM8.33495 7.06386L8.82641 7.96033L9.62671 7.82187L9.1805 7.06389L8.33495 7.06386ZM10.0561 7.3223L10.5025 9.23151L11.9364 9.28449L11.5895 7.7995L10.0561 7.3223ZM6.55939 8.02238L6.22296 8.45442L7.18815 9.04988L7.65707 8.5219L6.55939 8.02235V8.02238ZM8.44664 8.35684L7.60362 9.30613L9.29275 10.3483V9.07212L8.44664 8.35684ZM10.6446 9.68243L10.5114 10.4403L11.3759 10.9055L11.3735 10.1047L10.6446 9.68243ZM12.7073 9.85991L12.1117 10.4542L12.3362 11.3023L13 10.8391L12.7073 9.85991H12.7073ZM11.0075 11.6273L10.7244 12.5746L11.3666 13.0227L11.5838 12.2022L11.0075 11.6273Z" fill="#7D1AD3"/>
</svg>
