<svg width="16" height="16" viewBox="0 0 16 16" fill="none" xmlns="http://www.w3.org/2000/svg">
<g clip-path="url(#clip0_947_168)">
<path d="M13.9982 2.61166C13.9982 1.57535 14.5392 0.665201 15.3539 0.149508C15.1675 0.131662 14.9607 0.123047 14.7699 0.123047C12.9878 0.123047 11.4044 0.895355 10.2998 2.12305C10.6629 2.70397 10.8782 3.42828 10.8782 4.21228C10.8782 5.24859 10.5022 6.17782 9.90716 6.81351C9.32316 6.02459 8.30532 5.51751 7.82716 5.2092C7.67024 5.10766 7.54039 4.94028 7.54039 4.74212C7.54039 4.47074 7.76132 4.24982 8.0327 4.24982C8.25301 4.24982 8.38532 4.42828 8.51209 4.59382C8.63209 4.75012 8.93178 5.09843 9.07639 5.26643C9.14593 5.34705 9.25855 5.37597 9.35824 5.33843L9.63024 5.23689L9.41301 5.14397C9.41301 5.14397 9.19762 4.67074 9.12009 4.47751L9.82163 4.82889L9.78655 5.12612L10.1367 4.78089C10.2087 4.70951 10.2081 4.5932 10.1349 4.52366L9.85362 4.25474C9.65916 4.0252 9.63578 3.68489 9.48378 3.34212C9.26409 2.84366 8.96255 2.55135 8.96255 2.55135C8.96255 2.91505 8.8407 3.15751 8.8407 3.15751C8.8407 3.15751 8.40833 2.92723 7.84452 2.99523C7.32679 2.99849 6.84415 2.68717 6.64464 2.19191V2.19203L6.64458 2.19185C6.64458 2.19185 6.49104 2.86483 7.07233 3.28803C7.06347 3.294 7.05467 3.29997 7.04587 3.30619C6.68433 3.42459 6.27701 3.31277 6.02926 3.00908C6.02926 3.00908 5.97178 3.44852 6.25202 3.71191C6.33799 3.79271 6.43233 3.82748 6.52193 3.8372C6.35498 4.08175 6.23843 4.36951 6.23215 4.6732C6.2143 5.50951 6.47652 5.83234 7.04569 6.42643C7.14218 6.52711 7.18169 6.65474 7.18169 6.75505C7.18169 7.01166 6.9743 7.21966 6.71769 7.21966C6.58723 7.21966 6.43602 7.14871 6.33922 7.06348C5.67424 6.47769 5.12747 5.40366 5.12747 4.21228C5.12747 3.43012 5.34163 2.70766 5.70409 2.12735C4.59947 0.897201 3.01547 0.123047 1.23147 0.123047C1.0407 0.123047 0.832702 0.131662 0.64624 0.149508C1.46101 0.665201 2.00193 1.57535 2.00193 2.61166C2.00193 3.50889 1.59516 4.31197 0.957009 4.84674C2.22778 5.06336 3.19578 6.16982 3.19578 7.50274C3.19578 7.65412 3.18224 7.80243 3.15824 7.94705C3.25547 7.93966 3.35455 7.93843 3.45424 7.93597C4.89978 7.90212 6.53916 8.56859 6.80255 10.0683C6.98722 11.1195 7.33492 12.2128 7.97449 13.2467C8.3983 13.9318 8.53129 14.5064 7.99947 14.9303C7.56876 15.2737 6.65541 15.2805 6.26076 13.7036C6.56255 13.7168 6.84052 13.8251 7.06322 14.0012L6.14679 12.2488L5.29467 14.0334C5.50526 13.8541 5.77055 13.7365 6.06249 13.7082C6.06784 14.2512 6.15984 14.9275 6.52686 15.2995C6.87621 15.6536 7.3447 15.8769 7.81609 15.8769C8.30839 15.8769 8.76175 15.6819 9.13793 15.3261C9.59873 14.8903 10.0535 14.1743 9.50815 12.7087C9.07122 11.5346 8.99849 10.7668 9.25024 9.90975C9.6167 8.66212 11.1042 7.93597 12.5459 7.93597C12.6456 7.93597 12.7441 7.93966 12.8419 7.94705C12.8179 7.80182 12.8044 7.65412 12.8044 7.50274C12.8044 6.16982 13.7724 5.06336 15.0432 4.84674C14.405 4.31197 13.9982 3.50889 13.9982 2.61166Z" fill="#AC0C14"/>
<g clip-path="url(#clip1_947_168)">
<path d="M3.10927 4.2467C3.09742 4.0997 3.08046 3.96824 3.05768 3.86366C3.01161 3.6524 2.96696 3.6671 2.93021 3.81452V3.81326C2.83063 4.21394 2.73363 4.4042 2.63593 4.54784C2.61066 4.46846 2.60256 4.31138 2.61993 4.0388C2.67967 3.56252 2.74973 3.17822 2.82056 2.97956C2.87817 2.91698 2.92383 2.53184 2.94135 2.07908C3.01536 1.94342 3.10365 1.99802 3.15848 2.49236C3.12279 0.711138 2.99886 0.514158 2.88718 0.737178C2.88343 0.716598 2.87958 0.696858 2.87543 0.677958C2.77864 0.234018 2.68822 0.787158 2.66417 1.4747C2.64554 1.87832 2.62312 2.25926 2.59715 2.61668C2.48658 3.43652 2.38174 3.1148 2.30089 2.20802C2.23847 1.46462 2.18354 0.493998 2.1522 -0.419922H1.83423V1.40162C2.01273 2.09588 2.27512 4.67258 2.21873 5.42858C2.15575 5.6831 2.0871 5.89772 2.00929 6.10898C2.00058 6.12452 1.99218 6.1472 1.98413 6.1766C1.98352 6.17828 1.98296 6.17954 1.98236 6.18122L1.98251 6.18248C1.91472 6.43658 1.8726 7.14092 1.89533 7.73396C1.83413 8.73188 1.83965 10.0461 2.07986 10.3905C2.01035 9.84404 1.99491 9.12752 2.01921 8.54624C2.09282 8.62184 2.15352 8.16824 2.17342 7.6235C2.19964 7.06952 2.2406 6.57182 2.3055 6.40256C2.37561 6.21986 2.58809 6.92168 2.69379 8.38874C2.70361 8.64242 2.72528 8.87552 2.76198 9.04352C2.79798 9.20858 2.83271 9.23882 2.86338 9.1775C2.92272 9.7109 2.97263 10.5202 2.94904 11.2821C3.11985 10.0078 3.06512 8.86208 2.97724 8.0666C2.98443 7.62938 2.96474 7.17032 2.905 6.89606C2.87543 6.7604 2.84653 6.7184 2.81985 6.74402C2.77044 6.74696 2.71333 6.67094 2.6618 6.51806C2.59153 6.10352 2.59613 5.70746 2.654 5.45C2.74052 5.38112 2.82612 5.60918 2.89376 5.8994C2.90004 5.93888 2.90692 5.97626 2.91446 6.01112C2.99648 6.38744 3.07176 6.06488 3.10816 5.54828C3.1767 5.68562 3.23892 6.2039 3.27912 6.8297C3.34959 5.03462 3.23452 4.34498 3.10907 4.2467H3.10927Z" fill="#AC0C14"/>
</g>
</g>
<defs>
<clipPath id="clip0_947_168">
<rect width="16" height="16" fill="white"/>
</clipPath>
<clipPath id="clip1_947_168">
<rect width="1.62" height="13.44" fill="white" transform="translate(1.78003 -0.800049)"/>
</clipPath>
</defs>
</svg>
