<svg width="16" height="16" viewBox="0 0 16 16" fill="none" xmlns="http://www.w3.org/2000/svg">
<path d="M5.60309 1.21692C4.83434 2.42817 4.45934 4.36567 5.26246 5.80942L4.75309 6.09692C4.54371 5.72504 4.40309 5.33442 4.31871 4.93442C3.24059 4.73754 2.14934 4.70004 1.03809 4.86879C2.10277 5.18442 2.68715 5.60942 3.43434 6.32817C2.59621 6.63129 1.55152 7.27192 0.530273 8.52192C1.63871 8.24692 2.55621 8.16254 3.32496 8.32504C2.17059 9.02817 1.32309 10.0782 0.564336 11.8907C1.68621 11.3532 2.59215 11.3032 3.78121 11.3032C3.06027 12.325 2.67902 13.7157 2.64652 14.8282C3.41246 14.0157 4.44684 12.9469 5.37184 12.3594C5.46559 13.2938 5.84059 14.1813 6.49371 15.025C6.48746 13.6532 6.81559 12.2657 7.48121 10.8563C6.89371 11.1375 6.46871 11.4219 5.92184 11.7719C6.11559 10.9 6.30934 10.0282 6.50621 9.15629C5.77809 9.23129 5.28746 9.46879 4.61559 9.73442C5.12496 8.70004 5.63746 7.66879 6.14996 6.63442L6.67496 6.89379L5.78746 8.68754C6.36246 8.55004 6.68434 8.55942 7.21559 8.64692C7.07496 9.28442 6.93434 9.91879 6.79059 10.5532C8.83121 9.42192 11.425 9.11879 13.875 8.99067C14.1125 8.58754 14.3062 8.23442 14.4625 7.90317L14.2656 7.14067L13.5031 8.10317L13.2593 7.24379L12.5562 8.15629L12.3218 7.34067L11.575 8.32504L11.3343 7.44379L10.5906 8.42504L10.6281 7.14067L11.3343 5.80629L11.5718 6.69067L12.3187 5.70629L12.5562 6.58754L13.2906 5.65004L13.4937 6.49067L14.2593 5.52817L14.5031 6.38754L15.2718 5.38754C15.3437 5.05004 15.4156 4.68754 15.5031 4.27192C13.7687 4.15629 12.1812 4.42192 10.6906 4.57817C9.50309 3.92817 8.16559 3.74067 6.88121 4.00004C6.45621 3.07223 6.03121 2.14442 5.60309 1.21692ZM10.1718 4.94692C10.0312 5.39067 9.76559 5.51879 9.39996 5.59067C8.89684 5.45317 8.51559 5.10629 8.32496 4.64692C8.96246 4.52817 9.64996 4.75317 10.1718 4.94692Z" fill="#3C3C3C"/>
</svg>
