<svg width="95" height="95" viewBox="0 0 95 95" fill="none" xmlns="http://www.w3.org/2000/svg">
<path d="M60.6685 40.7711H55.7483V36.4297H49.96V40.7711H45.0413V36.4297H39.2517V40.7711H34.3316V36.4297H28.5447V46.5594H30.2809H34.3316H39.2517H40.9892H45.0413H49.96H55.7483H60.6685H66.4566V40.7711V36.4297H60.6685V40.7711Z" fill="black"/>
<path d="M28.5447 72.2455H43.4998V63.484C43.4998 61.1759 45.3718 59.304 47.6813 59.304C49.9906 59.304 51.8628 61.1761 51.8628 63.484V72.2455H66.4564V49.1635H28.5447V72.2455Z" fill="black"/>
<path d="M21.4166 27.0974H16.4964V22.7545H10.7096V27.0974H5.78943V22.7545H0V32.8856H1.73728H5.78943H10.7096H16.4964H21.4166H27.2062V27.0974V22.7545H21.4166V27.0974Z" fill="black"/>
<path d="M1.26672 72.2455H25.9394V35.4897H1.26672V72.2455ZM11.4323 41.8674H15.7737V50.1155H11.4323V41.8674Z" fill="black"/>
<path d="M89.2117 22.7545V27.0974H84.2917V22.7545H78.5036V27.0974H73.5834V22.7545H67.7951V32.8856H69.5326H73.5834H78.5036H84.2917H89.2117H95V27.0974V22.7545H89.2117Z" fill="black"/>
<path d="M69.0607 72.2455H93.7333V35.4897H69.0607V72.2455ZM79.2263 41.8674H83.5677V50.1155H79.2263V41.8674Z" fill="black"/>
</svg>
