<svg width="12" height="12" viewBox="0 0 12 12" fill="none" xmlns="http://www.w3.org/2000/svg">
<path fill-rule="evenodd" clip-rule="evenodd" d="M9.5 0H11C11.2652 0 11.5196 0.105357 11.7071 0.292893C11.8946 0.48043 12 0.734784 12 1V2.5C12 2.63261 11.9473 2.75979 11.8536 2.85355C11.7598 2.94732 11.6326 3 11.5 3C11.3674 3 11.2402 2.94732 11.1464 2.85355C11.0527 2.75979 11 2.63261 11 2.5V1H9.5C9.36739 1 9.24021 0.947321 9.14645 0.853553C9.05268 0.759785 9 0.632608 9 0.5C9 0.367392 9.05268 0.240215 9.14645 0.146447C9.24021 0.0526785 9.36739 0 9.5 0ZM11.1464 9.14645C11.2402 9.05268 11.3674 9 11.5 9C11.6326 9 11.7598 9.05268 11.8536 9.14645C11.9473 9.24021 12 9.36739 12 9.5V11C12 11.2652 11.8946 11.5196 11.7071 11.7071C11.5196 11.8946 11.2652 12 11 12H9.5C9.36739 12 9.24021 11.9473 9.14645 11.8536C9.05268 11.7598 9 11.6326 9 11.5C9 11.3674 9.05268 11.2402 9.14645 11.1464C9.24021 11.0527 9.36739 11 9.5 11H11V9.5C11 9.36739 11.0527 9.24021 11.1464 9.14645ZM1 11H2.5C2.63261 11 2.75979 11.0527 2.85355 11.1464C2.94732 11.2402 3 11.3674 3 11.5C3 11.6326 2.94732 11.7598 2.85355 11.8536C2.75979 11.9473 2.63261 12 2.5 12H1C0.734784 12 0.48043 11.8946 0.292893 11.7071C0.105357 11.5196 0 11.2652 0 11V9.5C0 9.36739 0.0526785 9.24021 0.146447 9.14645C0.240215 9.05268 0.367392 9 0.5 9C0.632608 9 0.759785 9.05268 0.853553 9.14645C0.947321 9.24021 1 9.36739 1 9.5V11ZM1 0H2.5C2.63261 0 2.75979 0.0526785 2.85355 0.146447C2.94732 0.240215 3 0.367392 3 0.5C3 0.632608 2.94732 0.759785 2.85355 0.853553C2.75979 0.947321 2.63261 1 2.5 1H1V2.5C1 2.63261 0.947321 2.75979 0.853553 2.85355C0.759785 2.94732 0.632608 3 0.5 3C0.367392 3 0.240215 2.94732 0.146447 2.85355C0.0526785 2.75979 0 2.63261 0 2.5V1C0 0.734784 0.105357 0.48043 0.292893 0.292893C0.48043 0.105357 0.734784 0 1 0Z" fill="#AAAAAA" fill-opacity="0.666667"/>
</svg>
